SplineFontDB: 3.2
FontName: Reijima-MediumItalic
FullName: Reijima Medium Italic
FamilyName: Reijima Medium
Weight: Medium
Copyright: Copyright (c) 2019 by Coji Morishita. All rights reserved.
Version: 1.000
ItalicAngle: -9
UnderlinePosition: -100
UnderlineWidth: 50
Ascent: 860
Descent: 140
InvalidEm: 0
LayerCount: 2
Layer: 0 0 "Back" 1
Layer: 1 0 "Fore" 0
FSType: 8
OS2Version: 0
OS2_WeightWidthSlopeOnly: 0
OS2_UseTypoMetrics: 0
CreationTime: 1707357831
ModificationTime: 1707357831
OS2TypoAscent: 0
OS2TypoAOffset: 1
OS2TypoDescent: 0
OS2TypoDOffset: 1
OS2TypoLinegap: 0
OS2WinAscent: 0
OS2WinAOffset: 1
OS2WinDescent: 0
OS2WinDOffset: 1
HheadAscent: 0
HheadAOffset: 1
HheadDescent: 0
HheadDOffset: 1
OS2Vendor: 'PfEd'
DEI: 91125
Encoding: UnicodeFull
Compacted: 1
UnicodeInterp: none
NameList: AGL For New Fonts
DisplaySize: -48
AntiAlias: 1
FitToEm: 0
WinInfo: 729 27 9
BeginPrivate: 2
BlueValues 24 [-10 0 520 530 730 750 ]
OtherBlues 12 [-220 -220 ]
EndPrivate
BeginChars: 1114125 956

StartChar: .notdef
Encoding: 1114112 -1 0
Width: 477
LayerCount: 2
Fore
SplineSet
328 -140 m 1
 17 -140 l 1
 176 860 l 1
 487 860 l 1
 328 -140 l 1
239 793 m 1
 234 760 l 1
 297 760 l 1
 291 723 l 1
 227 723 l 1
 221 690 l 1
 384 690 l 1
 389 723 l 1
 325 723 l 1
 331 760 l 1
 395 760 l 1
 400 793 l 1
 239 793 l 1
217 664 m 1
 201 560 l 1
 364 560 l 1
 369 594 l 1
 304 594 l 1
 315 664 l 1
 217 664 l 1
271 594 m 1
 239 594 l 1
 244 630 l 1
 277 630 l 1
 271 594 l 1
197 533 m 1
 191 500 l 1
 256 500 l 1
 250 463 l 1
 185 463 l 1
 180 430 l 1
 278 430 l 1
 289 500 l 1
 354 500 l 1
 359 533 l 1
 197 533 l 1
317 473 m 1
 307 407 l 1
 177 407 l 1
 171 373 l 1
 334 373 l 1
 350 473 l 1
 317 473 l 1
232 351 m 1
 224 295 l 1
 257 295 l 1
 261 318 l 1
 293 318 l 1
 285 271 l 1
 187 271 l 1
 200 351 l 1
 168 351 l 1
 150 238 l 1
 313 238 l 1
 330 351 l 1
 232 351 l 1
140 178 m 1
 122 65 l 1
 285 65 l 1
 303 178 l 1
 140 178 l 1
258 98 m 1
 160 98 l 1
 167 145 l 1
 265 145 l 1
 258 98 l 1
119 42 m 1
 114 9 l 1
 182 9 l 1
 106 -38 l 1
 101 -71 l 1
 264 -71 l 1
 269 -38 l 1
 169 -38 l 1
 245 9 l 1
 276 9 l 1
 281 42 l 1
 119 42 l 1
EndSplineSet
EndChar

StartChar: A
Encoding: 65 65 2
Width: 658
Flags: W
LayerCount: 2
Fore
SplineSet
484 0 m 1
 456 183 l 1
 170 183 l 1
 85 0 l 1
 -34 0 l 1
 327 730 l 1
 474 730 l 1
 603 0 l 1
 484 0 l 1
218 283 m 1
 441 283 l 1
 386 636 l 1
 384 636 l 1
 218 283 l 1
EndSplineSet
EndChar

StartChar: Aacute
Encoding: 193 193 3
Width: 674
Flags: W
LayerCount: 2
Fore
SplineSet
484 0 m 1
 456 183 l 1
 170 183 l 1
 85 0 l 1
 -34 0 l 1
 327 730 l 1
 474 730 l 1
 603 0 l 1
 484 0 l 1
218 283 m 1
 441 283 l 1
 386 636 l 1
 384 636 l 1
 218 283 l 1
445 770 m 1
 337 770 l 1
 463 980 l 1
 601 980 l 1
 445 770 l 1
EndSplineSet
EndChar

StartChar: Abreve
Encoding: 258 258 4
Width: 674
Flags: W
LayerCount: 2
Fore
SplineSet
484 0 m 1
 456 183 l 1
 170 183 l 1
 85 0 l 1
 -34 0 l 1
 327 730 l 1
 474 730 l 1
 603 0 l 1
 484 0 l 1
218 283 m 1
 441 283 l 1
 386 636 l 1
 384 636 l 1
 218 283 l 1
303 804 m 0
 276 819 255 839 242 865 c 0
 228 891 223 920 226 953 c 1
 341 953 l 1
 340 926 345 905 358 890 c 0
 370 876 389 869 414 869 c 0
 439 869 460 876 476 890 c 0
 494 905 506 926 513 953 c 1
 628 953 l 1
 621 920 606 891 584 865 c 0
 563 839 536 819 504 804 c 0
 472 790 437 783 400 783 c 0
 363 783 330 790 303 804 c 0
EndSplineSet
EndChar

StartChar: uni1EAE
Encoding: 7854 7854 5
Width: 658
Flags: W
LayerCount: 2
Fore
SplineSet
312 804 m 0
 284 819 263 839 250 865 c 0
 237 891 231 920 234 953 c 1
 343 953 l 1
 462 1150 l 1
 599 1150 l 1
 443 940 l 1
 349 940 l 1
 351 893 375 869 422 869 c 0
 447 869 468 876 484 890 c 0
 502 905 514 926 522 953 c 1
 636 953 l 1
 629 920 614 891 592 865 c 0
 571 839 544 819 512 804 c 0
 480 790 445 783 408 783 c 0
 371 783 339 790 312 804 c 0
484 0 m 1
 456 183 l 1
 170 183 l 1
 85 0 l 1
 -34 0 l 1
 327 730 l 1
 474 730 l 1
 603 0 l 1
 484 0 l 1
218 283 m 1
 441 283 l 1
 386 636 l 1
 384 636 l 1
 218 283 l 1
EndSplineSet
EndChar

StartChar: uni1EB6
Encoding: 7862 7862 6
Width: 674
Flags: W
LayerCount: 2
Fore
SplineSet
484 0 m 1
 456 183 l 1
 170 183 l 1
 85 0 l 1
 -34 0 l 1
 327 730 l 1
 474 730 l 1
 603 0 l 1
 484 0 l 1
218 283 m 1
 441 283 l 1
 386 636 l 1
 384 636 l 1
 218 283 l 1
230 -82 m 1
 354 -82 l 1
 334 -208 l 1
 210 -208 l 1
 230 -82 l 1
303 804 m 0
 276 819 255 839 242 865 c 0
 228 891 223 920 226 953 c 1
 341 953 l 1
 340 926 345 905 358 890 c 0
 370 876 389 869 414 869 c 0
 439 869 460 876 476 890 c 0
 494 905 506 926 513 953 c 1
 628 953 l 1
 621 920 606 891 584 865 c 0
 563 839 536 819 504 804 c 0
 472 790 437 783 400 783 c 0
 363 783 330 790 303 804 c 0
EndSplineSet
EndChar

StartChar: uni1EB0
Encoding: 7856 7856 7
Width: 658
Flags: W
LayerCount: 2
Fore
SplineSet
518 940 m 1
 424 940 l 1
 334 1150 l 1
 471 1150 l 1
 527 953 l 1
 636 953 l 1
 629 920 614 891 592 865 c 0
 571 839 544 819 512 804 c 0
 480 790 445 783 408 783 c 0
 371 783 338 790 311 804 c 0
 284 819 263 839 250 865 c 0
 237 891 231 920 234 953 c 1
 349 953 l 1
 348 926 353 905 366 890 c 0
 379 876 397 869 422 869 c 0
 469 869 501 893 518 940 c 1
484 0 m 1
 456 183 l 1
 170 183 l 1
 85 0 l 1
 -34 0 l 1
 327 730 l 1
 474 730 l 1
 603 0 l 1
 484 0 l 1
218 283 m 1
 441 283 l 1
 386 636 l 1
 384 636 l 1
 218 283 l 1
EndSplineSet
EndChar

StartChar: uni1EB2
Encoding: 7858 7858 8
Width: 658
Flags: W
LayerCount: 2
Fore
SplineSet
518 943 m 1
 463 943 l 1
 468 952 472 964 477 976 c 0
 482 990 485 1000 486 1009 c 0
 488 1024 485 1034 476 1038 c 0
 468 1044 451 1046 426 1046 c 0
 384 1046 342 1040 301 1028 c 1
 305 1115 l 1
 356 1127 409 1133 465 1133 c 0
 506 1133 537 1130 558 1126 c 0
 579 1120 594 1112 602 1100 c 0
 609 1089 611 1072 608 1050 c 0
 606 1036 602 1020 596 1002 c 0
 590 984 583 968 576 953 c 1
 636 953 l 1
 629 920 614 891 592 865 c 0
 571 839 544 819 512 804 c 0
 480 790 445 783 408 783 c 0
 371 783 338 790 311 804 c 0
 284 819 263 839 250 865 c 0
 237 891 231 920 234 953 c 1
 349 953 l 1
 348 926 353 905 366 890 c 0
 379 876 397 869 422 869 c 0
 469 869 501 894 518 943 c 1
484 0 m 1
 456 183 l 1
 170 183 l 1
 85 0 l 1
 -34 0 l 1
 327 730 l 1
 474 730 l 1
 603 0 l 1
 484 0 l 1
218 283 m 1
 441 283 l 1
 386 636 l 1
 384 636 l 1
 218 283 l 1
EndSplineSet
EndChar

StartChar: uni1EB4
Encoding: 7860 7860 9
Width: 674
Flags: W
LayerCount: 2
Fore
SplineSet
484 0 m 1
 456 183 l 1
 170 183 l 1
 85 0 l 1
 -34 0 l 1
 327 730 l 1
 474 730 l 1
 603 0 l 1
 484 0 l 1
218 283 m 1
 441 283 l 1
 386 636 l 1
 384 636 l 1
 218 283 l 1
303 804 m 0
 276 819 255 839 242 865 c 0
 228 891 223 920 226 953 c 1
 341 953 l 1
 340 926 345 905 358 890 c 0
 370 876 389 869 414 869 c 0
 439 869 460 876 476 890 c 0
 494 905 506 926 513 953 c 1
 628 953 l 1
 621 920 606 891 584 865 c 0
 563 839 536 819 504 804 c 0
 472 790 437 783 400 783 c 0
 363 783 330 790 303 804 c 0
496 1006 m 0
 479 1013 459 1024 435 1039 c 0
 407 1058 386 1067 372 1067 c 0
 362 1067 354 1062 348 1054 c 0
 343 1044 338 1029 334 1007 c 1
 236 1007 l 1
 245 1064 260 1106 280 1133 c 0
 299 1160 325 1173 357 1173 c 0
 373 1173 389 1170 406 1164 c 0
 422 1157 442 1146 465 1131 c 0
 493 1112 514 1103 527 1103 c 0
 537 1103 545 1108 551 1117 c 0
 557 1126 562 1142 565 1163 c 1
 663 1163 l 1
 654 1106 639 1064 620 1037 c 0
 601 1010 575 997 543 997 c 0
 528 997 512 1000 496 1006 c 0
EndSplineSet
EndChar

StartChar: Acircumflex
Encoding: 194 194 10
Width: 674
Flags: W
LayerCount: 2
Fore
SplineSet
484 0 m 1
 456 183 l 1
 170 183 l 1
 85 0 l 1
 -34 0 l 1
 327 730 l 1
 474 730 l 1
 603 0 l 1
 484 0 l 1
218 283 m 1
 441 283 l 1
 386 636 l 1
 384 636 l 1
 218 283 l 1
339 980 m 1
 529 980 l 1
 618 770 l 1
 490 770 l 1
 428 930 l 1
 426 930 l 1
 312 770 l 1
 185 770 l 1
 339 980 l 1
EndSplineSet
EndChar

StartChar: uni1EA4
Encoding: 7844 7844 11
Width: 658
Flags: W
LayerCount: 2
Fore
SplineSet
431 930 m 1
 317 770 l 1
 190 770 l 1
 345 980 l 1
 531 980 l 1
 639 1160 l 1
 776 1160 l 1
 620 950 l 1
 547 950 l 1
 623 770 l 1
 496 770 l 1
 433 930 l 1
 431 930 l 1
484 0 m 1
 456 183 l 1
 170 183 l 1
 85 0 l 1
 -34 0 l 1
 327 730 l 1
 474 730 l 1
 603 0 l 1
 484 0 l 1
218 283 m 1
 441 283 l 1
 386 636 l 1
 384 636 l 1
 218 283 l 1
EndSplineSet
EndChar

StartChar: uni1EAC
Encoding: 7852 7852 12
Width: 674
Flags: W
LayerCount: 2
Fore
SplineSet
484 0 m 1
 456 183 l 1
 170 183 l 1
 85 0 l 1
 -34 0 l 1
 327 730 l 1
 474 730 l 1
 603 0 l 1
 484 0 l 1
218 283 m 1
 441 283 l 1
 386 636 l 1
 384 636 l 1
 218 283 l 1
230 -82 m 1
 354 -82 l 1
 334 -208 l 1
 210 -208 l 1
 230 -82 l 1
339 980 m 1
 529 980 l 1
 618 770 l 1
 490 770 l 1
 428 930 l 1
 426 930 l 1
 312 770 l 1
 185 770 l 1
 339 980 l 1
EndSplineSet
EndChar

StartChar: uni1EA6
Encoding: 7846 7846 13
Width: 658
Flags: W
LayerCount: 2
Fore
SplineSet
322 950 m 1
 250 950 l 1
 160 1160 l 1
 298 1160 l 1
 348 980 l 1
 534 980 l 1
 623 770 l 1
 496 770 l 1
 433 930 l 1
 431 930 l 1
 317 770 l 1
 190 770 l 1
 322 950 l 1
484 0 m 1
 456 183 l 1
 170 183 l 1
 85 0 l 1
 -34 0 l 1
 327 730 l 1
 474 730 l 1
 603 0 l 1
 484 0 l 1
218 283 m 1
 441 283 l 1
 386 636 l 1
 384 636 l 1
 218 283 l 1
EndSplineSet
EndChar

StartChar: uni1EA8
Encoding: 7848 7848 14
Width: 658
Flags: W
LayerCount: 2
Fore
SplineSet
526 980 m 1
 531 997 534 1009 535 1014 c 0
 537 1029 534 1038 526 1044 c 0
 517 1048 500 1051 474 1051 c 0
 432 1051 391 1045 350 1033 c 1
 354 1120 l 1
 405 1132 458 1138 514 1138 c 0
 555 1138 586 1136 607 1130 c 0
 628 1126 643 1117 650 1106 c 0
 658 1094 660 1077 656 1055 c 0
 653 1039 649 1021 642 1001 c 0
 635 981 628 963 620 948 c 1
 547 948 l 1
 623 770 l 1
 496 770 l 1
 433 930 l 1
 431 930 l 1
 317 770 l 1
 190 770 l 1
 345 980 l 1
 526 980 l 1
484 0 m 1
 456 183 l 1
 170 183 l 1
 85 0 l 1
 -34 0 l 1
 327 730 l 1
 474 730 l 1
 603 0 l 1
 484 0 l 1
218 283 m 1
 441 283 l 1
 386 636 l 1
 384 636 l 1
 218 283 l 1
EndSplineSet
EndChar

StartChar: uni1EAA
Encoding: 7850 7850 15
Width: 674
Flags: W
LayerCount: 2
Fore
SplineSet
484 0 m 1
 456 183 l 1
 170 183 l 1
 85 0 l 1
 -34 0 l 1
 327 730 l 1
 474 730 l 1
 603 0 l 1
 484 0 l 1
218 283 m 1
 441 283 l 1
 386 636 l 1
 384 636 l 1
 218 283 l 1
339 980 m 1
 529 980 l 1
 618 770 l 1
 490 770 l 1
 428 930 l 1
 426 930 l 1
 312 770 l 1
 185 770 l 1
 339 980 l 1
496 1006 m 0
 479 1013 459 1024 435 1039 c 0
 407 1058 386 1067 372 1067 c 0
 362 1067 354 1062 348 1054 c 0
 343 1044 338 1029 334 1007 c 1
 236 1007 l 1
 245 1064 260 1106 280 1133 c 0
 299 1160 325 1173 357 1173 c 0
 373 1173 389 1170 406 1164 c 0
 422 1157 442 1146 465 1131 c 0
 493 1112 514 1103 527 1103 c 0
 537 1103 545 1108 551 1117 c 0
 557 1126 562 1142 565 1163 c 1
 663 1163 l 1
 654 1106 639 1064 620 1037 c 0
 601 1010 575 997 543 997 c 0
 528 997 512 1000 496 1006 c 0
EndSplineSet
EndChar

StartChar: uni0200
Encoding: 512 512 16
Width: 674
Flags: W
LayerCount: 2
Fore
SplineSet
484 0 m 1
 456 183 l 1
 170 183 l 1
 85 0 l 1
 -34 0 l 1
 327 730 l 1
 474 730 l 1
 603 0 l 1
 484 0 l 1
218 283 m 1
 441 283 l 1
 386 636 l 1
 384 636 l 1
 218 283 l 1
166 980 m 1
 303 980 l 1
 363 770 l 1
 255 770 l 1
 166 980 l 1
386 980 m 1
 524 980 l 1
 583 770 l 1
 476 770 l 1
 386 980 l 1
EndSplineSet
EndChar

StartChar: Adieresis
Encoding: 196 196 17
Width: 674
Flags: W
LayerCount: 2
Fore
SplineSet
484 0 m 1
 456 183 l 1
 170 183 l 1
 85 0 l 1
 -34 0 l 1
 327 730 l 1
 474 730 l 1
 603 0 l 1
 484 0 l 1
218 283 m 1
 441 283 l 1
 386 636 l 1
 384 636 l 1
 218 283 l 1
237 938 m 1
 361 938 l 1
 341 812 l 1
 217 812 l 1
 237 938 l 1
486 938 m 1
 609 938 l 1
 589 812 l 1
 466 812 l 1
 486 938 l 1
EndSplineSet
EndChar

StartChar: uni1EA0
Encoding: 7840 7840 18
Width: 674
Flags: W
LayerCount: 2
Fore
SplineSet
484 0 m 1
 456 183 l 1
 170 183 l 1
 85 0 l 1
 -34 0 l 1
 327 730 l 1
 474 730 l 1
 603 0 l 1
 484 0 l 1
218 283 m 1
 441 283 l 1
 386 636 l 1
 384 636 l 1
 218 283 l 1
230 -82 m 1
 354 -82 l 1
 334 -208 l 1
 210 -208 l 1
 230 -82 l 1
EndSplineSet
EndChar

StartChar: Agrave
Encoding: 192 192 19
Width: 674
Flags: W
LayerCount: 2
Fore
SplineSet
484 0 m 1
 456 183 l 1
 170 183 l 1
 85 0 l 1
 -34 0 l 1
 327 730 l 1
 474 730 l 1
 603 0 l 1
 484 0 l 1
218 283 m 1
 441 283 l 1
 386 636 l 1
 384 636 l 1
 218 283 l 1
257 980 m 1
 394 980 l 1
 454 770 l 1
 346 770 l 1
 257 980 l 1
EndSplineSet
EndChar

StartChar: uni1EA2
Encoding: 7842 7842 20
Width: 674
Flags: W
LayerCount: 2
Fore
SplineSet
484 0 m 1
 456 183 l 1
 170 183 l 1
 85 0 l 1
 -34 0 l 1
 327 730 l 1
 474 730 l 1
 603 0 l 1
 484 0 l 1
218 283 m 1
 441 283 l 1
 386 636 l 1
 384 636 l 1
 218 283 l 1
489 826 m 0
 494 840 497 850 498 859 c 0
 500 874 497 884 488 888 c 0
 479 894 462 896 437 896 c 0
 395 896 354 890 313 878 c 1
 317 965 l 1
 368 977 421 983 476 983 c 0
 517 983 548 980 569 976 c 0
 590 970 605 962 612 950 c 0
 620 939 622 922 619 900 c 0
 616 884 612 866 605 846 c 0
 598 826 591 808 583 793 c 1
 475 793 l 1
 480 802 484 814 489 826 c 0
EndSplineSet
EndChar

StartChar: uni0202
Encoding: 514 514 21
Width: 674
Flags: W
LayerCount: 2
Fore
SplineSet
484 0 m 1
 456 183 l 1
 170 183 l 1
 85 0 l 1
 -34 0 l 1
 327 730 l 1
 474 730 l 1
 603 0 l 1
 484 0 l 1
218 283 m 1
 441 283 l 1
 386 636 l 1
 384 636 l 1
 218 283 l 1
526 946 m 0
 553 931 574 911 588 885 c 0
 601 859 606 830 603 797 c 1
 489 797 l 1
 490 824 485 845 472 860 c 0
 459 874 441 881 416 881 c 0
 391 881 370 874 353 860 c 0
 336 845 323 824 316 797 c 1
 201 797 l 1
 208 830 223 859 244 885 c 0
 266 911 293 931 325 946 c 0
 357 960 392 967 429 967 c 0
 466 967 499 960 526 946 c 0
EndSplineSet
EndChar

StartChar: Amacron
Encoding: 256 256 22
Width: 674
Flags: W
LayerCount: 2
Fore
SplineSet
484 0 m 1
 456 183 l 1
 170 183 l 1
 85 0 l 1
 -34 0 l 1
 327 730 l 1
 474 730 l 1
 603 0 l 1
 484 0 l 1
218 283 m 1
 441 283 l 1
 386 636 l 1
 384 636 l 1
 218 283 l 1
235 918 m 1
 605 918 l 1
 591 832 l 1
 221 832 l 1
 235 918 l 1
EndSplineSet
EndChar

StartChar: Aogonek
Encoding: 260 260 23
Width: 665
Flags: W
LayerCount: 2
Fore
SplineSet
659 -196 m 1
 624 -210 585 -217 543 -217 c 0
 493 -217 456 -208 431 -190 c 0
 406 -171 397 -145 402 -112 c 0
 409 -71 436 -32 483 5 c 1
 456 183 l 1
 170 183 l 1
 85 0 l 1
 -34 0 l 1
 327 730 l 1
 474 730 l 1
 603 0 l 1
 574 -16 551 -32 534 -48 c 0
 517 -65 507 -80 505 -93 c 0
 503 -105 507 -114 518 -120 c 0
 528 -127 544 -130 566 -130 c 0
 597 -130 627 -124 656 -111 c 1
 659 -196 l 1
218 283 m 1
 441 283 l 1
 386 636 l 1
 384 636 l 1
 218 283 l 1
EndSplineSet
EndChar

StartChar: Aring
Encoding: 197 197 24
Width: 658
Flags: W
LayerCount: 2
Fore
SplineSet
456 183 m 1
 170 183 l 1
 85 0 l 1
 -34 0 l 1
 321 718 l 1
 302 732 288 750 280 772 c 0
 270 794 268 818 272 845 c 0
 276 872 286 898 304 920 c 0
 320 944 341 962 366 975 c 0
 391 988 416 995 443 995 c 0
 470 995 493 988 514 975 c 0
 534 962 549 944 558 920 c 0
 568 898 571 872 566 845 c 0
 562 818 552 794 536 771 c 0
 519 748 499 730 475 717 c 1
 603 0 l 1
 484 0 l 1
 456 183 l 1
378 894 m 0
 363 881 354 864 351 845 c 0
 348 826 352 809 363 796 c 0
 374 782 389 775 408 775 c 0
 427 775 444 782 460 796 c 0
 475 809 485 826 488 845 c 0
 491 864 487 881 476 894 c 0
 465 908 449 915 430 915 c 0
 411 915 394 908 378 894 c 0
218 283 m 1
 441 283 l 1
 386 636 l 1
 384 636 l 1
 218 283 l 1
EndSplineSet
EndChar

StartChar: Aringacute
Encoding: 506 506 25
Width: 658
Flags: W
LayerCount: 2
Fore
SplineSet
456 183 m 1
 170 183 l 1
 85 0 l 1
 -34 0 l 1
 321 718 l 1
 302 732 288 750 280 772 c 0
 270 794 268 818 272 845 c 0
 275 868 284 889 296 909 c 0
 310 929 325 946 343 960 c 1
 463 1160 l 1
 600 1160 l 1
 476 991 l 1
 507 984 532 966 549 939 c 0
 566 912 572 880 566 845 c 0
 562 818 552 794 536 771 c 0
 519 748 499 730 475 717 c 1
 603 0 l 1
 484 0 l 1
 456 183 l 1
476 894 m 0
 464 908 449 915 430 915 c 0
 411 915 394 908 378 894 c 0
 363 881 354 864 351 845 c 0
 348 826 352 809 363 796 c 0
 374 782 389 775 408 775 c 0
 427 775 444 782 460 796 c 0
 475 809 485 826 488 845 c 0
 491 864 486 881 476 894 c 0
218 283 m 1
 441 283 l 1
 386 636 l 1
 384 636 l 1
 218 283 l 1
EndSplineSet
EndChar

StartChar: Atilde
Encoding: 195 195 26
Width: 674
Flags: W
LayerCount: 2
Fore
SplineSet
484 0 m 1
 456 183 l 1
 170 183 l 1
 85 0 l 1
 -34 0 l 1
 327 730 l 1
 474 730 l 1
 603 0 l 1
 484 0 l 1
218 283 m 1
 441 283 l 1
 386 636 l 1
 384 636 l 1
 218 283 l 1
462 796 m 0
 445 803 425 814 401 829 c 0
 373 848 352 857 338 857 c 0
 328 857 320 852 314 844 c 0
 309 834 304 819 300 797 c 1
 202 797 l 1
 211 854 226 896 246 923 c 0
 265 950 291 963 323 963 c 0
 339 963 355 960 372 954 c 0
 388 947 408 936 431 921 c 0
 459 902 480 893 493 893 c 0
 503 893 511 898 517 907 c 0
 523 916 528 932 531 953 c 1
 629 953 l 1
 620 896 605 854 586 827 c 0
 567 800 541 787 509 787 c 0
 494 787 478 790 462 796 c 0
EndSplineSet
EndChar

StartChar: AE
Encoding: 198 198 27
Width: 835
Flags: W
LayerCount: 2
Fore
SplineSet
832 632 m 1
 563 632 l 1
 531 430 l 1
 781 430 l 1
 766 335 l 1
 516 335 l 1
 478 98 l 1
 748 98 l 1
 732 0 l 1
 355 0 l 1
 384 183 l 1
 184 183 l 1
 85 0 l 1
 -34 0 l 1
 377 730 l 1
 848 730 l 1
 832 632 l 1
238 283 m 1
 400 283 l 1
 456 640 l 1
 432 640 l 1
 238 283 l 1
EndSplineSet
EndChar

StartChar: AEacute
Encoding: 508 508 28
Width: 858
Flags: W
LayerCount: 2
Fore
SplineSet
832 632 m 1
 563 632 l 1
 531 430 l 1
 781 430 l 1
 766 335 l 1
 516 335 l 1
 478 98 l 1
 748 98 l 1
 732 0 l 1
 355 0 l 1
 384 183 l 1
 184 183 l 1
 85 0 l 1
 -34 0 l 1
 377 730 l 1
 848 730 l 1
 832 632 l 1
238 283 m 1
 400 283 l 1
 456 640 l 1
 432 640 l 1
 238 283 l 1
568 770 m 1
 460 770 l 1
 586 980 l 1
 724 980 l 1
 568 770 l 1
EndSplineSet
EndChar

StartChar: B
Encoding: 66 66 29
Width: 624
Flags: W
LayerCount: 2
Fore
SplineSet
558 328 m 0
 581 297 588 256 580 205 c 0
 569 136 536 85 480 51 c 0
 424 17 345 0 243 0 c 2
 28 0 l 1
 143 730 l 1
 354 730 l 2
 448 730 516 715 557 686 c 0
 598 657 614 612 605 553 c 0
 598 510 581 474 553 446 c 0
 525 417 489 398 445 389 c 1
 445 387 l 1
 498 378 535 359 558 328 c 0
236 632 m 1
 204 430 l 1
 312 430 l 2
 369 430 413 438 442 456 c 0
 471 472 489 499 495 534 c 0
 500 569 491 594 468 609 c 0
 444 624 402 632 343 632 c 2
 236 632 l 1
411 126 m 0
 445 146 465 175 472 216 c 0
 479 257 468 287 439 306 c 0
 410 325 363 335 296 335 c 2
 189 335 l 1
 151 98 l 1
 259 98 l 2
 326 98 377 108 411 126 c 0
EndSplineSet
EndChar

StartChar: C
Encoding: 67 67 30
Width: 671
Flags: W
LayerCount: 2
Fore
SplineSet
162 35 m 0
 113 65 79 108 60 164 c 0
 41 221 37 288 49 365 c 0
 61 442 86 509 124 566 c 0
 161 622 209 665 267 695 c 0
 325 725 391 740 464 740 c 0
 554 740 629 718 689 674 c 1
 630 585 l 1
 577 622 518 640 453 640 c 0
 375 640 310 616 258 566 c 0
 206 518 173 450 160 365 c 0
 147 280 158 212 195 164 c 0
 232 114 289 90 366 90 c 0
 431 90 496 108 560 145 c 1
 591 56 l 1
 518 12 436 -10 346 -10 c 0
 272 -10 211 5 162 35 c 0
EndSplineSet
EndChar

StartChar: Cacute
Encoding: 262 262 31
Width: 691
Flags: W
LayerCount: 2
Fore
SplineSet
162 35 m 0
 113 65 79 108 60 164 c 0
 41 221 37 288 49 365 c 0
 61 442 86 509 124 566 c 0
 161 622 209 665 267 695 c 0
 325 725 391 740 464 740 c 0
 554 740 629 718 689 674 c 1
 630 585 l 1
 577 622 518 640 453 640 c 0
 375 640 310 616 258 566 c 0
 206 518 173 450 160 365 c 0
 147 280 158 212 195 164 c 0
 232 114 289 90 366 90 c 0
 431 90 496 108 560 145 c 1
 591 56 l 1
 518 12 436 -10 346 -10 c 0
 272 -10 211 5 162 35 c 0
488 770 m 1
 380 770 l 1
 506 980 l 1
 644 980 l 1
 488 770 l 1
EndSplineSet
EndChar

StartChar: Ccaron
Encoding: 268 268 32
Width: 691
Flags: W
LayerCount: 2
Fore
SplineSet
162 35 m 0
 113 65 79 108 60 164 c 0
 41 221 37 288 49 365 c 0
 61 442 86 509 124 566 c 0
 161 622 209 665 267 695 c 0
 325 725 391 740 464 740 c 0
 554 740 629 718 689 674 c 1
 630 585 l 1
 577 622 518 640 453 640 c 0
 375 640 310 616 258 566 c 0
 206 518 173 450 160 365 c 0
 147 280 158 212 195 164 c 0
 232 114 289 90 366 90 c 0
 431 90 496 108 560 145 c 1
 591 56 l 1
 518 12 436 -10 346 -10 c 0
 272 -10 211 5 162 35 c 0
261 980 m 1
 388 980 l 1
 451 820 l 1
 453 820 l 1
 567 980 l 1
 694 980 l 1
 538 770 l 1
 349 770 l 1
 261 980 l 1
EndSplineSet
EndChar

StartChar: Ccedilla
Encoding: 199 199 33
Width: 671
Flags: W
LayerCount: 2
Fore
SplineSet
591 56 m 1
 536 23 475 2 408 -6 c 1
 437 -41 448 -76 442 -112 c 0
 437 -145 419 -171 388 -190 c 0
 358 -208 318 -217 268 -217 c 0
 226 -217 189 -210 158 -196 c 1
 188 -111 l 1
 213 -124 241 -130 273 -130 c 0
 294 -130 311 -127 324 -120 c 0
 336 -114 343 -105 345 -93 c 0
 347 -80 343 -66 332 -51 c 0
 322 -36 306 -21 285 -6 c 1
 194 5 128 44 86 108 c 0
 45 174 32 259 49 365 c 0
 61 442 86 509 124 566 c 0
 161 622 209 665 267 695 c 0
 325 725 391 740 464 740 c 0
 554 740 629 718 689 674 c 1
 630 585 l 1
 577 622 518 640 453 640 c 0
 375 640 310 616 258 566 c 0
 206 518 173 450 160 365 c 0
 147 280 158 212 195 164 c 0
 232 114 289 90 366 90 c 0
 431 90 496 108 560 145 c 1
 591 56 l 1
EndSplineSet
EndChar

StartChar: Ccircumflex
Encoding: 264 264 34
Width: 691
Flags: W
LayerCount: 2
Fore
SplineSet
162 35 m 0
 113 65 79 108 60 164 c 0
 41 221 37 288 49 365 c 0
 61 442 86 509 124 566 c 0
 161 622 209 665 267 695 c 0
 325 725 391 740 464 740 c 0
 554 740 629 718 689 674 c 1
 630 585 l 1
 577 622 518 640 453 640 c 0
 375 640 310 616 258 566 c 0
 206 518 173 450 160 365 c 0
 147 280 158 212 195 164 c 0
 232 114 289 90 366 90 c 0
 431 90 496 108 560 145 c 1
 591 56 l 1
 518 12 436 -10 346 -10 c 0
 272 -10 211 5 162 35 c 0
382 980 m 1
 572 980 l 1
 661 770 l 1
 533 770 l 1
 471 930 l 1
 469 930 l 1
 355 770 l 1
 228 770 l 1
 382 980 l 1
EndSplineSet
EndChar

StartChar: Cdotaccent
Encoding: 266 266 35
Width: 691
Flags: W
LayerCount: 2
Fore
SplineSet
162 35 m 0
 113 65 79 108 60 164 c 0
 41 221 37 288 49 365 c 0
 61 442 86 509 124 566 c 0
 161 622 209 665 267 695 c 0
 325 725 391 740 464 740 c 0
 554 740 629 718 689 674 c 1
 630 585 l 1
 577 622 518 640 453 640 c 0
 375 640 310 616 258 566 c 0
 206 518 173 450 160 365 c 0
 147 280 158 212 195 164 c 0
 232 114 289 90 366 90 c 0
 431 90 496 108 560 145 c 1
 591 56 l 1
 518 12 436 -10 346 -10 c 0
 272 -10 211 5 162 35 c 0
434 938 m 1
 558 938 l 1
 538 812 l 1
 414 812 l 1
 434 938 l 1
EndSplineSet
EndChar

StartChar: D
Encoding: 68 68 36
Width: 662
Flags: W
LayerCount: 2
Fore
SplineSet
335 730 m 2
 458 730 544 700 594 640 c 0
 644 581 659 489 639 365 c 0
 620 241 576 149 506 90 c 0
 438 30 342 0 219 0 c 2
 28 0 l 1
 143 730 l 1
 335 730 l 2
440 162 m 0
 484 204 515 272 530 365 c 0
 545 458 536 526 504 568 c 0
 472 609 413 630 326 630 c 2
 235 630 l 1
 151 100 l 1
 242 100 l 2
 329 100 394 121 440 162 c 0
EndSplineSet
EndChar

StartChar: uni01C4
Encoding: 452 452 37
Width: 1283
Flags: W
LayerCount: 2
Fore
SplineSet
335 730 m 2
 458 730 544 700 594 640 c 0
 644 581 659 489 639 365 c 0
 620 241 576 149 506 90 c 0
 438 30 342 0 219 0 c 2
 28 0 l 1
 143 730 l 1
 335 730 l 2
440 162 m 0
 484 204 515 272 530 365 c 0
 545 458 536 526 504 568 c 0
 472 609 413 630 326 630 c 2
 235 630 l 1
 151 100 l 1
 242 100 l 2
 329 100 394 121 440 162 c 0
674 100 m 1
 1125 628 l 1
 1126 630 l 1
 758 630 l 1
 774 730 l 1
 1274 730 l 1
 1258 630 l 1
 807 102 l 1
 806 100 l 1
 1174 100 l 1
 1158 0 l 1
 658 0 l 1
 674 100 l 1
845 980 m 1
 972 980 l 1
 1035 820 l 1
 1037 820 l 1
 1151 980 l 1
 1278 980 l 1
 1122 770 l 1
 933 770 l 1
 845 980 l 1
EndSplineSet
EndChar

StartChar: Eth
Encoding: 208 208 38
Width: 719
Flags: W
LayerCount: 2
Fore
SplineSet
650 640 m 0
 700 581 715 489 696 365 c 0
 677 241 632 149 564 90 c 0
 494 30 399 0 276 0 c 2
 85 0 l 1
 135 320 l 1
 29 320 l 1
 44 410 l 1
 149 410 l 1
 200 730 l 1
 391 730 l 2
 514 730 600 700 650 640 c 0
496 162 m 0
 542 204 571 272 586 365 c 0
 601 458 592 526 560 568 c 0
 529 609 469 630 382 630 c 2
 292 630 l 1
 257 410 l 1
 453 410 l 1
 439 320 l 1
 243 320 l 1
 208 100 l 1
 298 100 l 2
 385 100 452 121 496 162 c 0
EndSplineSet
EndChar

StartChar: Dcaron
Encoding: 270 270 39
Width: 685
Flags: W
LayerCount: 2
Fore
SplineSet
335 730 m 2
 458 730 544 700 594 640 c 0
 644 581 659 489 639 365 c 0
 620 241 576 149 506 90 c 0
 438 30 342 0 219 0 c 2
 28 0 l 1
 143 730 l 1
 335 730 l 2
440 162 m 0
 484 204 515 272 530 365 c 0
 545 458 536 526 504 568 c 0
 472 609 413 630 326 630 c 2
 235 630 l 1
 151 100 l 1
 242 100 l 2
 329 100 394 121 440 162 c 0
224 980 m 1
 351 980 l 1
 414 820 l 1
 416 820 l 1
 530 980 l 1
 657 980 l 1
 501 770 l 1
 312 770 l 1
 224 980 l 1
EndSplineSet
EndChar

StartChar: Dcroat
Encoding: 272 272 40
Width: 739
Flags: W
LayerCount: 2
Fore
SplineSet
650 640 m 0
 700 581 715 489 696 365 c 0
 677 241 632 149 564 90 c 0
 494 30 399 0 276 0 c 2
 85 0 l 1
 135 320 l 1
 29 320 l 1
 44 410 l 1
 149 410 l 1
 200 730 l 1
 391 730 l 2
 514 730 600 700 650 640 c 0
496 162 m 0
 542 204 571 272 586 365 c 0
 601 458 592 526 560 568 c 0
 529 609 469 630 382 630 c 2
 292 630 l 1
 257 410 l 1
 453 410 l 1
 439 320 l 1
 243 320 l 1
 208 100 l 1
 298 100 l 2
 385 100 452 121 496 162 c 0
EndSplineSet
EndChar

StartChar: uni01C5
Encoding: 453 453 41
Width: 1203
Flags: W
LayerCount: 2
Fore
SplineSet
335 730 m 2
 458 730 544 700 594 640 c 0
 644 581 659 489 639 365 c 0
 620 241 576 149 506 90 c 0
 438 30 342 0 219 0 c 2
 28 0 l 1
 143 730 l 1
 335 730 l 2
440 162 m 0
 484 204 515 272 530 365 c 0
 545 458 536 526 504 568 c 0
 472 609 413 630 326 630 c 2
 235 630 l 1
 151 100 l 1
 242 100 l 2
 329 100 394 121 440 162 c 0
693 90 m 1
 1017 428 l 1
 1017 430 l 1
 747 430 l 1
 762 520 l 1
 1160 520 l 1
 1146 430 l 1
 823 92 l 1
 823 90 l 1
 1092 90 l 1
 1078 0 l 1
 679 0 l 1
 693 90 l 1
787 770 m 1
 914 770 l 1
 977 610 l 1
 979 610 l 1
 1093 770 l 1
 1220 770 l 1
 1064 560 l 1
 875 560 l 1
 787 770 l 1
EndSplineSet
EndChar

StartChar: E
Encoding: 69 69 42
Width: 576
Flags: W
LayerCount: 2
Fore
SplineSet
143 730 m 1
 589 730 l 1
 574 632 l 1
 236 632 l 1
 204 430 l 1
 522 430 l 1
 507 335 l 1
 189 335 l 1
 151 98 l 1
 489 98 l 1
 474 0 l 1
 28 0 l 1
 143 730 l 1
EndSplineSet
EndChar

StartChar: Eacute
Encoding: 201 201 43
Width: 599
Flags: W
LayerCount: 2
Fore
SplineSet
143 730 m 1
 589 730 l 1
 574 632 l 1
 236 632 l 1
 204 430 l 1
 522 430 l 1
 507 335 l 1
 189 335 l 1
 151 98 l 1
 489 98 l 1
 474 0 l 1
 28 0 l 1
 143 730 l 1
418 770 m 1
 310 770 l 1
 436 980 l 1
 574 980 l 1
 418 770 l 1
EndSplineSet
EndChar

StartChar: Ebreve
Encoding: 276 276 44
Width: 599
Flags: W
LayerCount: 2
Fore
SplineSet
143 730 m 1
 589 730 l 1
 574 632 l 1
 236 632 l 1
 204 430 l 1
 522 430 l 1
 507 335 l 1
 189 335 l 1
 151 98 l 1
 489 98 l 1
 474 0 l 1
 28 0 l 1
 143 730 l 1
276 804 m 0
 249 819 228 839 214 865 c 0
 201 891 196 920 199 953 c 1
 314 953 l 1
 313 926 318 905 330 890 c 0
 343 876 362 869 387 869 c 0
 412 869 432 876 450 890 c 0
 466 905 479 926 486 953 c 1
 601 953 l 1
 594 920 579 891 558 865 c 0
 536 839 509 819 477 804 c 0
 445 790 410 783 373 783 c 0
 336 783 303 790 276 804 c 0
EndSplineSet
EndChar

StartChar: Ecaron
Encoding: 282 282 45
Width: 599
Flags: W
LayerCount: 2
Fore
SplineSet
143 730 m 1
 589 730 l 1
 574 632 l 1
 236 632 l 1
 204 430 l 1
 522 430 l 1
 507 335 l 1
 189 335 l 1
 151 98 l 1
 489 98 l 1
 474 0 l 1
 28 0 l 1
 143 730 l 1
191 980 m 1
 318 980 l 1
 381 820 l 1
 383 820 l 1
 497 980 l 1
 624 980 l 1
 468 770 l 1
 279 770 l 1
 191 980 l 1
EndSplineSet
EndChar

StartChar: Ecircumflex
Encoding: 202 202 46
Width: 599
Flags: W
LayerCount: 2
Fore
SplineSet
143 730 m 1
 589 730 l 1
 574 632 l 1
 236 632 l 1
 204 430 l 1
 522 430 l 1
 507 335 l 1
 189 335 l 1
 151 98 l 1
 489 98 l 1
 474 0 l 1
 28 0 l 1
 143 730 l 1
312 980 m 1
 502 980 l 1
 591 770 l 1
 463 770 l 1
 401 930 l 1
 399 930 l 1
 285 770 l 1
 158 770 l 1
 312 980 l 1
EndSplineSet
EndChar

StartChar: uni1EBE
Encoding: 7870 7870 47
Width: 583
Flags: W
LayerCount: 2
Fore
SplineSet
400 930 m 1
 286 770 l 1
 159 770 l 1
 313 980 l 1
 500 980 l 1
 607 1160 l 1
 745 1160 l 1
 589 950 l 1
 515 950 l 1
 592 770 l 1
 464 770 l 1
 401 930 l 1
 400 930 l 1
28 0 m 1
 143 730 l 1
 589 730 l 1
 574 632 l 1
 236 632 l 1
 204 430 l 1
 522 430 l 1
 507 335 l 1
 189 335 l 1
 151 98 l 1
 489 98 l 1
 474 0 l 1
 28 0 l 1
EndSplineSet
EndChar

StartChar: uni1EC6
Encoding: 7878 7878 48
Width: 599
Flags: W
LayerCount: 2
Fore
SplineSet
143 730 m 1
 589 730 l 1
 574 632 l 1
 236 632 l 1
 204 430 l 1
 522 430 l 1
 507 335 l 1
 189 335 l 1
 151 98 l 1
 489 98 l 1
 474 0 l 1
 28 0 l 1
 143 730 l 1
203 -82 m 1
 327 -82 l 1
 307 -208 l 1
 183 -208 l 1
 203 -82 l 1
312 980 m 1
 502 980 l 1
 591 770 l 1
 463 770 l 1
 401 930 l 1
 399 930 l 1
 285 770 l 1
 158 770 l 1
 312 980 l 1
EndSplineSet
EndChar

StartChar: uni1EC0
Encoding: 7872 7872 49
Width: 582
Flags: W
LayerCount: 2
Fore
SplineSet
297 950 m 1
 224 950 l 1
 135 1160 l 1
 272 1160 l 1
 323 980 l 1
 508 980 l 1
 598 770 l 1
 470 770 l 1
 407 930 l 1
 405 930 l 1
 292 770 l 1
 164 770 l 1
 297 950 l 1
580 632 m 1
 242 632 l 1
 210 430 l 1
 528 430 l 1
 513 335 l 1
 195 335 l 1
 157 98 l 1
 495 98 l 1
 480 0 l 1
 34 0 l 1
 149 730 l 1
 595 730 l 1
 580 632 l 1
EndSplineSet
EndChar

StartChar: uni1EC2
Encoding: 7874 7874 50
Width: 576
Flags: W
LayerCount: 2
Fore
SplineSet
495 980 m 1
 500 997 503 1009 504 1014 c 0
 506 1029 503 1038 494 1044 c 0
 485 1048 468 1051 443 1051 c 0
 401 1051 360 1045 319 1033 c 1
 323 1120 l 1
 374 1132 427 1138 482 1138 c 0
 523 1138 554 1136 575 1130 c 0
 596 1126 611 1117 618 1106 c 0
 626 1094 628 1077 625 1055 c 0
 622 1039 618 1021 611 1001 c 0
 604 981 597 963 589 948 c 1
 516 948 l 1
 592 770 l 1
 464 770 l 1
 401 930 l 1
 400 930 l 1
 286 770 l 1
 159 770 l 1
 313 980 l 1
 495 980 l 1
574 632 m 1
 236 632 l 1
 204 430 l 1
 522 430 l 1
 507 335 l 1
 189 335 l 1
 151 98 l 1
 489 98 l 1
 474 0 l 1
 28 0 l 1
 143 730 l 1
 589 730 l 1
 574 632 l 1
EndSplineSet
EndChar

StartChar: uni1EC4
Encoding: 7876 7876 51
Width: 599
Flags: W
LayerCount: 2
Fore
SplineSet
143 730 m 1
 589 730 l 1
 574 632 l 1
 236 632 l 1
 204 430 l 1
 522 430 l 1
 507 335 l 1
 189 335 l 1
 151 98 l 1
 489 98 l 1
 474 0 l 1
 28 0 l 1
 143 730 l 1
312 980 m 1
 502 980 l 1
 591 770 l 1
 463 770 l 1
 401 930 l 1
 399 930 l 1
 285 770 l 1
 158 770 l 1
 312 980 l 1
468 1006 m 0
 452 1013 432 1024 408 1039 c 0
 380 1058 359 1067 345 1067 c 0
 335 1067 327 1062 322 1054 c 0
 316 1044 311 1029 307 1007 c 1
 209 1007 l 1
 218 1064 233 1106 252 1133 c 0
 272 1160 298 1173 330 1173 c 0
 346 1173 362 1170 378 1164 c 0
 395 1157 415 1146 438 1131 c 0
 466 1112 487 1103 500 1103 c 0
 510 1103 518 1108 524 1117 c 0
 530 1126 535 1142 538 1163 c 1
 636 1163 l 1
 627 1106 612 1064 593 1037 c 0
 574 1010 548 997 516 997 c 0
 501 997 485 1000 468 1006 c 0
EndSplineSet
EndChar

StartChar: uni0204
Encoding: 516 516 52
Width: 599
Flags: W
LayerCount: 2
Fore
SplineSet
143 730 m 1
 589 730 l 1
 574 632 l 1
 236 632 l 1
 204 430 l 1
 522 430 l 1
 507 335 l 1
 189 335 l 1
 151 98 l 1
 489 98 l 1
 474 0 l 1
 28 0 l 1
 143 730 l 1
139 980 m 1
 276 980 l 1
 336 770 l 1
 228 770 l 1
 139 980 l 1
359 980 m 1
 497 980 l 1
 556 770 l 1
 449 770 l 1
 359 980 l 1
EndSplineSet
EndChar

StartChar: Edieresis
Encoding: 203 203 53
Width: 599
Flags: W
LayerCount: 2
Fore
SplineSet
143 730 m 1
 589 730 l 1
 574 632 l 1
 236 632 l 1
 204 430 l 1
 522 430 l 1
 507 335 l 1
 189 335 l 1
 151 98 l 1
 489 98 l 1
 474 0 l 1
 28 0 l 1
 143 730 l 1
210 938 m 1
 334 938 l 1
 314 812 l 1
 190 812 l 1
 210 938 l 1
459 938 m 1
 582 938 l 1
 562 812 l 1
 439 812 l 1
 459 938 l 1
EndSplineSet
EndChar

StartChar: Edotaccent
Encoding: 278 278 54
Width: 599
Flags: W
LayerCount: 2
Fore
SplineSet
143 730 m 1
 589 730 l 1
 574 632 l 1
 236 632 l 1
 204 430 l 1
 522 430 l 1
 507 335 l 1
 189 335 l 1
 151 98 l 1
 489 98 l 1
 474 0 l 1
 28 0 l 1
 143 730 l 1
364 938 m 1
 488 938 l 1
 468 812 l 1
 344 812 l 1
 364 938 l 1
EndSplineSet
EndChar

StartChar: uni1EB8
Encoding: 7864 7864 55
Width: 599
Flags: W
LayerCount: 2
Fore
SplineSet
143 730 m 1
 589 730 l 1
 574 632 l 1
 236 632 l 1
 204 430 l 1
 522 430 l 1
 507 335 l 1
 189 335 l 1
 151 98 l 1
 489 98 l 1
 474 0 l 1
 28 0 l 1
 143 730 l 1
203 -82 m 1
 327 -82 l 1
 307 -208 l 1
 183 -208 l 1
 203 -82 l 1
EndSplineSet
EndChar

StartChar: Egrave
Encoding: 200 200 56
Width: 599
Flags: W
LayerCount: 2
Fore
SplineSet
143 730 m 1
 589 730 l 1
 574 632 l 1
 236 632 l 1
 204 430 l 1
 522 430 l 1
 507 335 l 1
 189 335 l 1
 151 98 l 1
 489 98 l 1
 474 0 l 1
 28 0 l 1
 143 730 l 1
230 980 m 1
 367 980 l 1
 427 770 l 1
 319 770 l 1
 230 980 l 1
EndSplineSet
EndChar

StartChar: uni1EBA
Encoding: 7866 7866 57
Width: 599
Flags: W
LayerCount: 2
Fore
SplineSet
143 730 m 1
 589 730 l 1
 574 632 l 1
 236 632 l 1
 204 430 l 1
 522 430 l 1
 507 335 l 1
 189 335 l 1
 151 98 l 1
 489 98 l 1
 474 0 l 1
 28 0 l 1
 143 730 l 1
462 826 m 0
 467 840 470 850 471 859 c 0
 473 874 470 884 461 888 c 0
 452 894 435 896 410 896 c 0
 368 896 327 890 286 878 c 1
 290 965 l 1
 341 977 394 983 449 983 c 0
 490 983 521 980 542 976 c 0
 563 970 578 962 586 950 c 0
 593 939 595 922 592 900 c 0
 589 884 585 866 578 846 c 0
 571 826 564 808 556 793 c 1
 448 793 l 1
 453 802 457 814 462 826 c 0
EndSplineSet
EndChar

StartChar: uni0206
Encoding: 518 518 58
Width: 599
Flags: W
LayerCount: 2
Fore
SplineSet
143 730 m 1
 589 730 l 1
 574 632 l 1
 236 632 l 1
 204 430 l 1
 522 430 l 1
 507 335 l 1
 189 335 l 1
 151 98 l 1
 489 98 l 1
 474 0 l 1
 28 0 l 1
 143 730 l 1
499 946 m 0
 526 931 547 911 560 885 c 0
 574 859 579 830 576 797 c 1
 462 797 l 1
 463 824 458 845 445 860 c 0
 432 874 414 881 389 881 c 0
 364 881 343 874 326 860 c 0
 309 845 296 824 289 797 c 1
 174 797 l 1
 181 830 196 859 218 885 c 0
 239 911 266 931 298 946 c 0
 330 960 365 967 402 967 c 0
 439 967 472 960 499 946 c 0
EndSplineSet
EndChar

StartChar: Emacron
Encoding: 274 274 59
Width: 599
Flags: W
LayerCount: 2
Fore
SplineSet
143 730 m 1
 589 730 l 1
 574 632 l 1
 236 632 l 1
 204 430 l 1
 522 430 l 1
 507 335 l 1
 189 335 l 1
 151 98 l 1
 489 98 l 1
 474 0 l 1
 28 0 l 1
 143 730 l 1
208 918 m 1
 578 918 l 1
 564 832 l 1
 194 832 l 1
 208 918 l 1
EndSplineSet
EndChar

StartChar: Eogonek
Encoding: 280 280 60
Width: 583
Flags: W
LayerCount: 2
Fore
SplineSet
530 -196 m 1
 495 -210 456 -217 414 -217 c 0
 364 -217 327 -208 302 -190 c 0
 277 -171 268 -145 273 -112 c 0
 279 -73 304 -35 348 0 c 1
 28 0 l 1
 143 730 l 1
 589 730 l 1
 574 632 l 1
 236 632 l 1
 204 430 l 1
 522 430 l 1
 507 335 l 1
 189 335 l 1
 151 98 l 1
 489 98 l 1
 474 0 l 1
 445 -16 422 -32 405 -48 c 0
 388 -65 378 -80 376 -93 c 0
 374 -105 378 -114 388 -120 c 0
 399 -127 415 -130 436 -130 c 0
 467 -130 498 -124 527 -111 c 1
 530 -196 l 1
EndSplineSet
EndChar

StartChar: uni1EBC
Encoding: 7868 7868 61
Width: 599
Flags: W
LayerCount: 2
Fore
SplineSet
143 730 m 1
 589 730 l 1
 574 632 l 1
 236 632 l 1
 204 430 l 1
 522 430 l 1
 507 335 l 1
 189 335 l 1
 151 98 l 1
 489 98 l 1
 474 0 l 1
 28 0 l 1
 143 730 l 1
434 796 m 0
 418 803 398 814 374 829 c 0
 346 848 325 857 311 857 c 0
 301 857 293 852 288 844 c 0
 282 834 277 819 273 797 c 1
 175 797 l 1
 184 854 199 896 218 923 c 0
 238 950 264 963 296 963 c 0
 312 963 328 960 344 954 c 0
 361 947 381 936 404 921 c 0
 432 902 453 893 466 893 c 0
 476 893 484 898 490 907 c 0
 496 916 501 932 504 953 c 1
 602 953 l 1
 593 896 578 854 559 827 c 0
 540 800 514 787 482 787 c 0
 467 787 451 790 434 796 c 0
EndSplineSet
EndChar

StartChar: F
Encoding: 70 70 62
Width: 566
Flags: W
LayerCount: 2
Fore
SplineSet
143 730 m 1
 589 730 l 1
 573 630 l 1
 235 630 l 1
 201 415 l 1
 520 415 l 1
 504 317 l 1
 186 317 l 1
 136 0 l 1
 28 0 l 1
 143 730 l 1
EndSplineSet
EndChar

StartChar: G
Encoding: 71 71 63
Width: 749
Flags: W
LayerCount: 2
Fore
SplineSet
711 427 m 1
 651 47 l 1
 612 29 568 15 520 5 c 0
 470 -5 422 -10 374 -10 c 0
 294 -10 228 5 175 34 c 0
 122 64 85 107 64 164 c 0
 42 220 37 287 49 365 c 0
 62 443 88 510 128 566 c 0
 167 623 218 666 280 696 c 0
 342 725 413 740 493 740 c 0
 590 740 667 719 725 677 c 1
 668 591 l 1
 614 625 550 642 477 642 c 0
 390 642 318 618 264 570 c 0
 208 522 174 454 160 365 c 0
 146 276 159 208 198 160 c 0
 238 112 302 88 389 88 c 0
 448 88 503 97 554 116 c 1
 588 332 l 1
 362 332 l 1
 378 427 l 1
 711 427 l 1
EndSplineSet
EndChar

StartChar: Gbreve
Encoding: 286 286 64
Width: 773
Flags: W
LayerCount: 2
Fore
SplineSet
711 427 m 1
 651 47 l 1
 612 29 568 15 520 5 c 0
 470 -5 422 -10 374 -10 c 0
 294 -10 228 5 175 34 c 0
 122 64 85 107 64 164 c 0
 42 220 37 287 49 365 c 0
 62 443 88 510 128 566 c 0
 167 623 218 666 280 696 c 0
 342 725 413 740 493 740 c 0
 590 740 667 719 725 677 c 1
 668 591 l 1
 614 625 550 642 477 642 c 0
 390 642 318 618 264 570 c 0
 208 522 174 454 160 365 c 0
 146 276 159 208 198 160 c 0
 238 112 302 88 389 88 c 0
 448 88 503 97 554 116 c 1
 588 332 l 1
 362 332 l 1
 378 427 l 1
 711 427 l 1
371 804 m 0
 344 819 323 839 310 865 c 0
 296 891 291 920 294 953 c 1
 409 953 l 1
 408 926 413 905 426 890 c 0
 438 876 457 869 482 869 c 0
 507 869 528 876 544 890 c 0
 562 905 574 926 581 953 c 1
 696 953 l 1
 689 920 674 891 652 865 c 0
 631 839 604 819 572 804 c 0
 540 790 505 783 468 783 c 0
 431 783 398 790 371 804 c 0
EndSplineSet
EndChar

StartChar: Gcaron
Encoding: 486 486 65
Width: 773
Flags: W
LayerCount: 2
Fore
SplineSet
711 427 m 1
 651 47 l 1
 612 29 568 15 520 5 c 0
 470 -5 422 -10 374 -10 c 0
 294 -10 228 5 175 34 c 0
 122 64 85 107 64 164 c 0
 42 220 37 287 49 365 c 0
 62 443 88 510 128 566 c 0
 167 623 218 666 280 696 c 0
 342 725 413 740 493 740 c 0
 590 740 667 719 725 677 c 1
 668 591 l 1
 614 625 550 642 477 642 c 0
 390 642 318 618 264 570 c 0
 208 522 174 454 160 365 c 0
 146 276 159 208 198 160 c 0
 238 112 302 88 389 88 c 0
 448 88 503 97 554 116 c 1
 588 332 l 1
 362 332 l 1
 378 427 l 1
 711 427 l 1
286 980 m 1
 413 980 l 1
 476 820 l 1
 478 820 l 1
 592 980 l 1
 719 980 l 1
 563 770 l 1
 374 770 l 1
 286 980 l 1
EndSplineSet
EndChar

StartChar: Gcircumflex
Encoding: 284 284 66
Width: 773
Flags: W
LayerCount: 2
Fore
SplineSet
711 427 m 1
 651 47 l 1
 612 29 568 15 520 5 c 0
 470 -5 422 -10 374 -10 c 0
 294 -10 228 5 175 34 c 0
 122 64 85 107 64 164 c 0
 42 220 37 287 49 365 c 0
 62 443 88 510 128 566 c 0
 167 623 218 666 280 696 c 0
 342 725 413 740 493 740 c 0
 590 740 667 719 725 677 c 1
 668 591 l 1
 614 625 550 642 477 642 c 0
 390 642 318 618 264 570 c 0
 208 522 174 454 160 365 c 0
 146 276 159 208 198 160 c 0
 238 112 302 88 389 88 c 0
 448 88 503 97 554 116 c 1
 588 332 l 1
 362 332 l 1
 378 427 l 1
 711 427 l 1
407 980 m 1
 597 980 l 1
 686 770 l 1
 558 770 l 1
 496 930 l 1
 494 930 l 1
 380 770 l 1
 253 770 l 1
 407 980 l 1
EndSplineSet
EndChar

StartChar: uni0122
Encoding: 290 290 67
Width: 773
Flags: W
LayerCount: 2
Fore
SplineSet
711 427 m 1
 651 47 l 1
 612 29 568 15 520 5 c 0
 470 -5 422 -10 374 -10 c 0
 294 -10 228 5 175 34 c 0
 122 64 85 107 64 164 c 0
 42 220 37 287 49 365 c 0
 62 443 88 510 128 566 c 0
 167 623 218 666 280 696 c 0
 342 725 413 740 493 740 c 0
 590 740 667 719 725 677 c 1
 668 591 l 1
 614 625 550 642 477 642 c 0
 390 642 318 618 264 570 c 0
 208 522 174 454 160 365 c 0
 146 276 159 208 198 160 c 0
 238 112 302 88 389 88 c 0
 448 88 503 97 554 116 c 1
 588 332 l 1
 362 332 l 1
 378 427 l 1
 711 427 l 1
254 -250 m 1
 146 -250 l 1
 272 -40 l 1
 409 -40 l 1
 254 -250 l 1
EndSplineSet
EndChar

StartChar: Gdotaccent
Encoding: 288 288 68
Width: 773
Flags: W
LayerCount: 2
Fore
SplineSet
711 427 m 1
 651 47 l 1
 612 29 568 15 520 5 c 0
 470 -5 422 -10 374 -10 c 0
 294 -10 228 5 175 34 c 0
 122 64 85 107 64 164 c 0
 42 220 37 287 49 365 c 0
 62 443 88 510 128 566 c 0
 167 623 218 666 280 696 c 0
 342 725 413 740 493 740 c 0
 590 740 667 719 725 677 c 1
 668 591 l 1
 614 625 550 642 477 642 c 0
 390 642 318 618 264 570 c 0
 208 522 174 454 160 365 c 0
 146 276 159 208 198 160 c 0
 238 112 302 88 389 88 c 0
 448 88 503 97 554 116 c 1
 588 332 l 1
 362 332 l 1
 378 427 l 1
 711 427 l 1
459 938 m 1
 583 938 l 1
 563 812 l 1
 439 812 l 1
 459 938 l 1
EndSplineSet
EndChar

StartChar: H
Encoding: 72 72 69
Width: 689
Flags: W
LayerCount: 2
Fore
SplineSet
580 730 m 1
 687 730 l 1
 572 0 l 1
 464 0 l 1
 517 335 l 1
 189 335 l 1
 136 0 l 1
 28 0 l 1
 143 730 l 1
 251 730 l 1
 204 435 l 1
 533 435 l 1
 580 730 l 1
EndSplineSet
EndChar

StartChar: Hbar
Encoding: 294 294 70
Width: 776
Flags: W
LayerCount: 2
Fore
SplineSet
807 641 m 1
 793 551 l 1
 702 551 l 1
 615 0 l 1
 507 0 l 1
 560 335 l 1
 231 335 l 1
 178 0 l 1
 71 0 l 1
 158 551 l 1
 68 551 l 1
 82 641 l 1
 172 641 l 1
 186 730 l 1
 294 730 l 1
 280 641 l 1
 608 641 l 1
 622 730 l 1
 730 730 l 1
 716 641 l 1
 807 641 l 1
576 435 m 1
 594 551 l 1
 266 551 l 1
 247 435 l 1
 576 435 l 1
EndSplineSet
EndChar

StartChar: Hcircumflex
Encoding: 292 292 71
Width: 715
Flags: W
LayerCount: 2
Fore
SplineSet
580 730 m 1
 687 730 l 1
 572 0 l 1
 464 0 l 1
 517 335 l 1
 189 335 l 1
 136 0 l 1
 28 0 l 1
 143 730 l 1
 251 730 l 1
 204 435 l 1
 533 435 l 1
 580 730 l 1
360 980 m 1
 550 980 l 1
 639 770 l 1
 511 770 l 1
 449 930 l 1
 447 930 l 1
 333 770 l 1
 206 770 l 1
 360 980 l 1
EndSplineSet
EndChar

StartChar: I
Encoding: 73 73 72
Width: 271
Flags: W
LayerCount: 2
Fore
SplineSet
151 730 m 1
 262 730 l 1
 147 0 l 1
 35 0 l 1
 151 730 l 1
EndSplineSet
EndChar

StartChar: Iacute
Encoding: 205 205 73
Width: 290
Flags: W
LayerCount: 2
Fore
SplineSet
151 730 m 1
 262 730 l 1
 147 0 l 1
 35 0 l 1
 151 730 l 1
253 770 m 1
 145 770 l 1
 271 980 l 1
 409 980 l 1
 253 770 l 1
EndSplineSet
EndChar

StartChar: Ibreve
Encoding: 300 300 74
Width: 290
Flags: W
LayerCount: 2
Fore
SplineSet
151 730 m 1
 262 730 l 1
 147 0 l 1
 35 0 l 1
 151 730 l 1
111 804 m 0
 84 819 63 839 50 865 c 0
 36 891 31 920 34 953 c 1
 149 953 l 1
 148 926 153 905 166 890 c 0
 178 876 197 869 222 869 c 0
 247 869 268 876 284 890 c 0
 302 905 314 926 321 953 c 1
 436 953 l 1
 429 920 414 891 392 865 c 0
 371 839 344 819 312 804 c 0
 280 790 245 783 208 783 c 0
 171 783 138 790 111 804 c 0
EndSplineSet
EndChar

StartChar: Icircumflex
Encoding: 206 206 75
Width: 290
Flags: W
LayerCount: 2
Fore
SplineSet
151 730 m 1
 262 730 l 1
 147 0 l 1
 35 0 l 1
 151 730 l 1
147 980 m 1
 337 980 l 1
 426 770 l 1
 298 770 l 1
 236 930 l 1
 234 930 l 1
 120 770 l 1
 -7 770 l 1
 147 980 l 1
EndSplineSet
EndChar

StartChar: uni0208
Encoding: 520 520 76
Width: 290
Flags: W
LayerCount: 2
Fore
SplineSet
151 730 m 1
 262 730 l 1
 147 0 l 1
 35 0 l 1
 151 730 l 1
-26 980 m 1
 111 980 l 1
 171 770 l 1
 63 770 l 1
 -26 980 l 1
194 980 m 1
 332 980 l 1
 391 770 l 1
 284 770 l 1
 194 980 l 1
EndSplineSet
EndChar

StartChar: Idieresis
Encoding: 207 207 77
Width: 290
Flags: W
LayerCount: 2
Fore
SplineSet
151 730 m 1
 262 730 l 1
 147 0 l 1
 35 0 l 1
 151 730 l 1
45 938 m 1
 169 938 l 1
 149 812 l 1
 25 812 l 1
 45 938 l 1
294 938 m 1
 417 938 l 1
 397 812 l 1
 274 812 l 1
 294 938 l 1
EndSplineSet
EndChar

StartChar: Idotaccent
Encoding: 304 304 78
Width: 290
Flags: W
LayerCount: 2
Fore
SplineSet
151 730 m 1
 262 730 l 1
 147 0 l 1
 35 0 l 1
 151 730 l 1
199 938 m 1
 323 938 l 1
 303 812 l 1
 179 812 l 1
 199 938 l 1
EndSplineSet
EndChar

StartChar: uni1ECA
Encoding: 7882 7882 79
Width: 290
Flags: W
LayerCount: 2
Fore
SplineSet
151 730 m 1
 262 730 l 1
 147 0 l 1
 35 0 l 1
 151 730 l 1
38 -82 m 1
 162 -82 l 1
 142 -208 l 1
 18 -208 l 1
 38 -82 l 1
EndSplineSet
EndChar

StartChar: Igrave
Encoding: 204 204 80
Width: 290
Flags: W
LayerCount: 2
Fore
SplineSet
151 730 m 1
 262 730 l 1
 147 0 l 1
 35 0 l 1
 151 730 l 1
65 980 m 1
 202 980 l 1
 262 770 l 1
 154 770 l 1
 65 980 l 1
EndSplineSet
EndChar

StartChar: uni1EC8
Encoding: 7880 7880 81
Width: 290
Flags: W
LayerCount: 2
Fore
SplineSet
151 730 m 1
 262 730 l 1
 147 0 l 1
 35 0 l 1
 151 730 l 1
296 826 m 0
 301 840 304 850 305 859 c 0
 307 874 304 884 295 888 c 0
 286 894 269 896 244 896 c 0
 202 896 161 890 120 878 c 1
 124 965 l 1
 175 977 228 983 283 983 c 0
 324 983 355 980 376 976 c 0
 397 970 412 962 420 950 c 0
 427 939 429 922 426 900 c 0
 423 884 419 866 412 846 c 0
 405 826 398 808 390 793 c 1
 282 793 l 1
 287 802 291 814 296 826 c 0
EndSplineSet
EndChar

StartChar: uni020A
Encoding: 522 522 82
Width: 290
Flags: W
LayerCount: 2
Fore
SplineSet
151 730 m 1
 262 730 l 1
 147 0 l 1
 35 0 l 1
 151 730 l 1
334 946 m 0
 361 931 382 911 396 885 c 0
 409 859 414 830 411 797 c 1
 297 797 l 1
 298 824 293 845 280 860 c 0
 267 874 249 881 224 881 c 0
 199 881 178 874 161 860 c 0
 144 845 131 824 124 797 c 1
 9 797 l 1
 16 830 31 859 52 885 c 0
 74 911 101 931 133 946 c 0
 165 960 200 967 237 967 c 0
 274 967 307 960 334 946 c 0
EndSplineSet
EndChar

StartChar: Imacron
Encoding: 298 298 83
Width: 290
Flags: W
LayerCount: 2
Fore
SplineSet
151 730 m 1
 262 730 l 1
 147 0 l 1
 35 0 l 1
 151 730 l 1
43 918 m 1
 413 918 l 1
 399 832 l 1
 29 832 l 1
 43 918 l 1
EndSplineSet
EndChar

StartChar: Iogonek
Encoding: 302 302 84
Width: 283
Flags: W
LayerCount: 2
Fore
SplineSet
208 -196 m 1
 173 -210 134 -217 92 -217 c 0
 42 -217 5 -208 -20 -190 c 0
 -45 -171 -54 -145 -49 -112 c 0
 -42 -69 -12 -27 42 12 c 1
 156 730 l 1
 268 730 l 1
 152 0 l 1
 123 -16 100 -32 83 -48 c 0
 66 -65 56 -80 54 -93 c 0
 52 -105 56 -114 66 -120 c 0
 77 -127 93 -130 115 -130 c 0
 146 -130 176 -124 205 -111 c 1
 208 -196 l 1
EndSplineSet
EndChar

StartChar: Itilde
Encoding: 296 296 85
Width: 290
Flags: W
LayerCount: 2
Fore
SplineSet
151 730 m 1
 262 730 l 1
 147 0 l 1
 35 0 l 1
 151 730 l 1
270 796 m 0
 253 803 233 814 209 829 c 0
 181 848 160 857 146 857 c 0
 136 857 128 852 122 844 c 0
 117 834 112 819 108 797 c 1
 10 797 l 1
 19 854 34 896 54 923 c 0
 73 950 99 963 131 963 c 0
 147 963 163 960 180 954 c 0
 196 947 216 936 239 921 c 0
 267 902 288 893 301 893 c 0
 311 893 319 898 325 907 c 0
 331 916 336 932 339 953 c 1
 437 953 l 1
 428 896 413 854 394 827 c 0
 375 800 349 787 317 787 c 0
 302 787 286 790 270 796 c 0
EndSplineSet
EndChar

StartChar: J
Encoding: 74 74 86
Width: 550
Flags: W
LayerCount: 2
Fore
SplineSet
-31 45 m 1
 21 138 l 1
 74 106 129 90 186 90 c 0
 239 90 281 106 312 136 c 0
 343 168 363 215 373 280 c 2
 444 730 l 1
 555 730 l 1
 484 280 l 2
 468 181 436 108 386 60 c 0
 338 14 269 -10 180 -10 c 0
 97 -10 27 8 -31 45 c 1
EndSplineSet
EndChar

StartChar: Jcircumflex
Encoding: 308 308 87
Width: 567
Flags: W
LayerCount: 2
Fore
SplineSet
-31 45 m 1
 21 138 l 1
 74 106 129 90 186 90 c 0
 239 90 281 106 312 136 c 0
 343 168 363 215 373 280 c 2
 444 730 l 1
 555 730 l 1
 484 280 l 2
 468 181 436 108 386 60 c 0
 338 14 269 -10 180 -10 c 0
 97 -10 27 8 -31 45 c 1
286 980 m 1
 476 980 l 1
 565 770 l 1
 437 770 l 1
 375 930 l 1
 373 930 l 1
 259 770 l 1
 132 770 l 1
 286 980 l 1
EndSplineSet
EndChar

StartChar: K
Encoding: 75 75 88
Width: 634
Flags: W
LayerCount: 2
Fore
SplineSet
143 730 m 1
 251 730 l 1
 202 421 l 1
 204 421 l 1
 544 730 l 1
 678 730 l 1
 298 385 l 1
 572 0 l 1
 438 0 l 1
 193 350 l 1
 191 350 l 1
 136 0 l 1
 28 0 l 1
 143 730 l 1
EndSplineSet
EndChar

StartChar: uni0136
Encoding: 310 310 89
Width: 655
Flags: W
LayerCount: 2
Fore
SplineSet
143 730 m 1
 251 730 l 1
 202 421 l 1
 204 421 l 1
 544 730 l 1
 678 730 l 1
 298 385 l 1
 572 0 l 1
 438 0 l 1
 193 350 l 1
 191 350 l 1
 136 0 l 1
 28 0 l 1
 143 730 l 1
159 -250 m 1
 51 -250 l 1
 177 -40 l 1
 314 -40 l 1
 159 -250 l 1
EndSplineSet
EndChar

StartChar: L
Encoding: 76 76 90
Width: 566
Flags: W
LayerCount: 2
Fore
SplineSet
143 730 m 1
 254 730 l 1
 154 100 l 1
 504 100 l 1
 488 0 l 1
 28 0 l 1
 143 730 l 1
EndSplineSet
EndChar

StartChar: uni01C7
Encoding: 455 455 91
Width: 1173
Flags: W
LayerCount: 2
Fore
SplineSet
143 730 m 1
 254 730 l 1
 154 100 l 1
 504 100 l 1
 488 0 l 1
 28 0 l 1
 143 730 l 1
575 45 m 1
 627 138 l 1
 680 106 735 90 792 90 c 0
 845 90 887 106 918 136 c 0
 949 168 969 215 979 280 c 2
 1050 730 l 1
 1161 730 l 1
 1090 280 l 2
 1074 181 1042 108 992 60 c 0
 944 14 875 -10 786 -10 c 0
 703 -10 633 8 575 45 c 1
EndSplineSet
EndChar

StartChar: Lacute
Encoding: 313 313 92
Width: 586
Flags: W
LayerCount: 2
Fore
SplineSet
143 730 m 1
 254 730 l 1
 154 100 l 1
 504 100 l 1
 488 0 l 1
 28 0 l 1
 143 730 l 1
401 770 m 1
 293 770 l 1
 419 980 l 1
 557 980 l 1
 401 770 l 1
EndSplineSet
EndChar

StartChar: Lcaron
Encoding: 317 317 93
Width: 615
Flags: W
LayerCount: 2
Fore
SplineSet
143 730 m 1
 254 730 l 1
 154 100 l 1
 504 100 l 1
 488 0 l 1
 28 0 l 1
 143 730 l 1
527 770 m 1
 654 770 l 1
 494 470 l 1
 396 470 l 1
 527 770 l 1
EndSplineSet
EndChar

StartChar: uni013B
Encoding: 315 315 94
Width: 586
Flags: W
LayerCount: 2
Fore
SplineSet
143 730 m 1
 254 730 l 1
 154 100 l 1
 504 100 l 1
 488 0 l 1
 28 0 l 1
 143 730 l 1
142 -250 m 1
 34 -250 l 1
 160 -40 l 1
 297 -40 l 1
 142 -250 l 1
EndSplineSet
EndChar

StartChar: Ldot
Encoding: 319 319 95
Width: 621
Flags: W
LayerCount: 2
Fore
SplineSet
143 730 m 1
 254 730 l 1
 154 100 l 1
 504 100 l 1
 488 0 l 1
 28 0 l 1
 143 730 l 1
417 440 m 1
 544 440 l 1
 523 310 l 1
 396 310 l 1
 417 440 l 1
EndSplineSet
EndChar

StartChar: uni01C8
Encoding: 456 456 96
Width: 912
Flags: W
LayerCount: 2
Fore
SplineSet
143 730 m 1
 254 730 l 1
 154 100 l 1
 504 100 l 1
 488 0 l 1
 28 0 l 1
 143 730 l 1
791 740 m 1
 894 740 l 1
 877 630 l 1
 774 630 l 1
 791 740 l 1
586 -128 m 0
 613 -120 634 -105 646 -84 c 0
 660 -62 670 -27 677 20 c 2
 756 520 l 1
 860 520 l 1
 780 20 l 2
 769 -47 753 -98 730 -133 c 0
 708 -168 675 -193 632 -208 c 0
 588 -223 527 -230 449 -230 c 1
 459 -140 l 1
 516 -140 558 -136 586 -128 c 0
EndSplineSet
EndChar

StartChar: Lslash
Encoding: 321 321 97
Width: 658
Flags: W
LayerCount: 2
Fore
SplineSet
247 100 m 1
 596 100 l 1
 581 0 l 1
 120 0 l 1
 166 291 l 1
 36 239 l 1
 14 323 l 1
 182 390 l 1
 236 730 l 1
 346 730 l 1
 300 438 l 1
 433 491 l 1
 455 407 l 1
 284 339 l 1
 247 100 l 1
EndSplineSet
EndChar

StartChar: M
Encoding: 77 77 98
Width: 841
Flags: W
LayerCount: 2
Fore
SplineSet
143 730 m 1
 281 730 l 1
 420 283 l 1
 422 283 l 1
 702 730 l 1
 839 730 l 1
 724 0 l 1
 616 0 l 1
 704 555 l 1
 702 555 l 1
 451 155 l 1
 349 155 l 1
 225 555 l 1
 224 555 l 1
 136 0 l 1
 28 0 l 1
 143 730 l 1
EndSplineSet
EndChar

StartChar: N
Encoding: 78 78 99
Width: 699
Flags: W
LayerCount: 2
Fore
SplineSet
143 730 m 1
 262 730 l 1
 500 180 l 1
 502 180 l 1
 589 730 l 1
 697 730 l 1
 581 0 l 1
 463 0 l 1
 225 550 l 1
 223 550 l 1
 136 0 l 1
 28 0 l 1
 143 730 l 1
EndSplineSet
EndChar

StartChar: uni01CA
Encoding: 458 458 100
Width: 1292
Flags: W
LayerCount: 2
Fore
SplineSet
143 730 m 1
 262 730 l 1
 500 180 l 1
 502 180 l 1
 589 730 l 1
 697 730 l 1
 581 0 l 1
 463 0 l 1
 225 550 l 1
 223 550 l 1
 136 0 l 1
 28 0 l 1
 143 730 l 1
694 45 m 1
 746 138 l 1
 799 106 854 90 911 90 c 0
 964 90 1006 106 1037 136 c 0
 1068 168 1088 215 1098 280 c 2
 1169 730 l 1
 1280 730 l 1
 1209 280 l 2
 1193 181 1160 108 1112 60 c 0
 1062 14 994 -10 905 -10 c 0
 822 -10 752 8 694 45 c 1
EndSplineSet
EndChar

StartChar: Nacute
Encoding: 323 323 101
Width: 725
Flags: W
LayerCount: 2
Fore
SplineSet
143 730 m 1
 262 730 l 1
 500 180 l 1
 502 180 l 1
 589 730 l 1
 697 730 l 1
 581 0 l 1
 463 0 l 1
 225 550 l 1
 223 550 l 1
 136 0 l 1
 28 0 l 1
 143 730 l 1
471 770 m 1
 363 770 l 1
 489 980 l 1
 627 980 l 1
 471 770 l 1
EndSplineSet
EndChar

StartChar: Ncaron
Encoding: 327 327 102
Width: 725
Flags: W
LayerCount: 2
Fore
SplineSet
143 730 m 1
 262 730 l 1
 500 180 l 1
 502 180 l 1
 589 730 l 1
 697 730 l 1
 581 0 l 1
 463 0 l 1
 225 550 l 1
 223 550 l 1
 136 0 l 1
 28 0 l 1
 143 730 l 1
244 980 m 1
 371 980 l 1
 434 820 l 1
 436 820 l 1
 550 980 l 1
 677 980 l 1
 521 770 l 1
 332 770 l 1
 244 980 l 1
EndSplineSet
EndChar

StartChar: uni0145
Encoding: 325 325 103
Width: 725
Flags: W
LayerCount: 2
Fore
SplineSet
143 730 m 1
 262 730 l 1
 500 180 l 1
 502 180 l 1
 589 730 l 1
 697 730 l 1
 581 0 l 1
 463 0 l 1
 225 550 l 1
 223 550 l 1
 136 0 l 1
 28 0 l 1
 143 730 l 1
212 -250 m 1
 104 -250 l 1
 230 -40 l 1
 367 -40 l 1
 212 -250 l 1
EndSplineSet
EndChar

StartChar: Eng
Encoding: 330 330 104
Width: 699
Flags: W
LayerCount: 2
Fore
SplineSet
697 730 m 1
 577 -26 l 2
 566 -95 545 -144 513 -175 c 0
 481 -206 435 -221 374 -221 c 0
 335 -221 299 -216 265 -205 c 1
 296 -114 l 1
 318 -122 342 -126 368 -126 c 0
 399 -126 423 -118 439 -102 c 0
 455 -87 466 -61 472 -26 c 1
 472 -20 l 1
 223 540 l 1
 221 540 l 1
 136 0 l 1
 28 0 l 1
 143 730 l 1
 262 730 l 1
 502 190 l 1
 504 190 l 1
 589 730 l 1
 697 730 l 1
EndSplineSet
EndChar

StartChar: uni01CB
Encoding: 459 459 105
Width: 1051
Flags: W
LayerCount: 2
Fore
SplineSet
143 730 m 1
 262 730 l 1
 500 180 l 1
 502 180 l 1
 589 730 l 1
 697 730 l 1
 581 0 l 1
 463 0 l 1
 225 550 l 1
 223 550 l 1
 136 0 l 1
 28 0 l 1
 143 730 l 1
930 740 m 1
 1033 740 l 1
 1016 630 l 1
 913 630 l 1
 930 740 l 1
724 -128 m 0
 752 -120 772 -105 786 -84 c 0
 798 -62 809 -27 816 20 c 2
 895 520 l 1
 999 520 l 1
 919 20 l 2
 908 -47 892 -98 870 -133 c 0
 847 -168 814 -193 770 -208 c 0
 727 -223 666 -230 588 -230 c 1
 598 -140 l 1
 655 -140 697 -136 724 -128 c 0
EndSplineSet
EndChar

StartChar: Ntilde
Encoding: 209 209 106
Width: 725
Flags: W
LayerCount: 2
Fore
SplineSet
143 730 m 1
 262 730 l 1
 500 180 l 1
 502 180 l 1
 589 730 l 1
 697 730 l 1
 581 0 l 1
 463 0 l 1
 225 550 l 1
 223 550 l 1
 136 0 l 1
 28 0 l 1
 143 730 l 1
488 796 m 0
 471 803 451 814 427 829 c 0
 399 848 378 857 364 857 c 0
 354 857 346 852 340 844 c 0
 335 834 330 819 326 797 c 1
 228 797 l 1
 237 854 252 896 272 923 c 0
 291 950 317 963 349 963 c 0
 365 963 381 960 398 954 c 0
 414 947 434 936 457 921 c 0
 485 902 506 893 519 893 c 0
 529 893 537 898 543 907 c 0
 549 916 554 932 557 953 c 1
 655 953 l 1
 646 896 631 854 612 827 c 0
 593 800 567 787 535 787 c 0
 520 787 504 790 488 796 c 0
EndSplineSet
EndChar

StartChar: O
Encoding: 79 79 107
Width: 784
Flags: W
LayerCount: 2
Fore
SplineSet
164 36 m 0
 114 66 80 109 60 166 c 0
 41 223 37 289 49 365 c 0
 61 441 86 507 124 564 c 0
 161 621 209 664 268 694 c 0
 327 725 392 740 464 740 c 0
 537 740 597 725 646 694 c 0
 695 664 729 621 749 564 c 0
 769 507 773 441 761 365 c 0
 749 289 724 223 686 166 c 0
 648 109 600 66 542 36 c 0
 483 5 418 -10 346 -10 c 0
 273 -10 212 5 164 36 c 0
553 163 m 0
 604 212 637 279 650 365 c 0
 663 451 652 518 616 567 c 0
 581 616 525 640 449 640 c 0
 372 640 308 616 257 567 c 0
 206 518 173 451 160 365 c 0
 147 279 158 212 194 163 c 0
 229 114 285 90 361 90 c 0
 438 90 502 114 553 163 c 0
EndSplineSet
EndChar

StartChar: Oacute
Encoding: 211 211 108
Width: 806
Flags: W
LayerCount: 2
Fore
SplineSet
164 36 m 0
 114 66 80 109 60 166 c 0
 41 223 37 289 49 365 c 0
 61 441 86 507 124 564 c 0
 161 621 209 664 268 694 c 0
 327 725 392 740 464 740 c 0
 537 740 597 725 646 694 c 0
 695 664 729 621 749 564 c 0
 769 507 773 441 761 365 c 0
 749 289 724 223 686 166 c 0
 648 109 600 66 542 36 c 0
 483 5 418 -10 346 -10 c 0
 273 -10 212 5 164 36 c 0
553 163 m 0
 604 212 637 279 650 365 c 0
 663 451 652 518 616 567 c 0
 581 616 525 640 449 640 c 0
 372 640 308 616 257 567 c 0
 206 518 173 451 160 365 c 0
 147 279 158 212 194 163 c 0
 229 114 285 90 361 90 c 0
 438 90 502 114 553 163 c 0
511 770 m 1
 403 770 l 1
 529 980 l 1
 667 980 l 1
 511 770 l 1
EndSplineSet
EndChar

StartChar: Obreve
Encoding: 334 334 109
Width: 806
Flags: W
LayerCount: 2
Fore
SplineSet
164 36 m 0
 114 66 80 109 60 166 c 0
 41 223 37 289 49 365 c 0
 61 441 86 507 124 564 c 0
 161 621 209 664 268 694 c 0
 327 725 392 740 464 740 c 0
 537 740 597 725 646 694 c 0
 695 664 729 621 749 564 c 0
 769 507 773 441 761 365 c 0
 749 289 724 223 686 166 c 0
 648 109 600 66 542 36 c 0
 483 5 418 -10 346 -10 c 0
 273 -10 212 5 164 36 c 0
553 163 m 0
 604 212 637 279 650 365 c 0
 663 451 652 518 616 567 c 0
 581 616 525 640 449 640 c 0
 372 640 308 616 257 567 c 0
 206 518 173 451 160 365 c 0
 147 279 158 212 194 163 c 0
 229 114 285 90 361 90 c 0
 438 90 502 114 553 163 c 0
369 804 m 0
 342 819 321 839 308 865 c 0
 294 891 289 920 292 953 c 1
 407 953 l 1
 406 926 411 905 424 890 c 0
 436 876 455 869 480 869 c 0
 505 869 526 876 542 890 c 0
 560 905 572 926 579 953 c 1
 694 953 l 1
 687 920 672 891 650 865 c 0
 629 839 602 819 570 804 c 0
 538 790 503 783 466 783 c 0
 429 783 396 790 369 804 c 0
EndSplineSet
EndChar

StartChar: Ocircumflex
Encoding: 212 212 110
Width: 806
Flags: W
LayerCount: 2
Fore
SplineSet
164 36 m 0
 114 66 80 109 60 166 c 0
 41 223 37 289 49 365 c 0
 61 441 86 507 124 564 c 0
 161 621 209 664 268 694 c 0
 327 725 392 740 464 740 c 0
 537 740 597 725 646 694 c 0
 695 664 729 621 749 564 c 0
 769 507 773 441 761 365 c 0
 749 289 724 223 686 166 c 0
 648 109 600 66 542 36 c 0
 483 5 418 -10 346 -10 c 0
 273 -10 212 5 164 36 c 0
553 163 m 0
 604 212 637 279 650 365 c 0
 663 451 652 518 616 567 c 0
 581 616 525 640 449 640 c 0
 372 640 308 616 257 567 c 0
 206 518 173 451 160 365 c 0
 147 279 158 212 194 163 c 0
 229 114 285 90 361 90 c 0
 438 90 502 114 553 163 c 0
405 980 m 1
 595 980 l 1
 684 770 l 1
 556 770 l 1
 494 930 l 1
 492 930 l 1
 378 770 l 1
 251 770 l 1
 405 980 l 1
EndSplineSet
EndChar

StartChar: uni1ED0
Encoding: 7888 7888 111
Width: 784
Flags: W
LayerCount: 2
Fore
SplineSet
493 930 m 1
 380 770 l 1
 253 770 l 1
 407 980 l 1
 593 980 l 1
 701 1160 l 1
 839 1160 l 1
 683 950 l 1
 609 950 l 1
 686 770 l 1
 558 770 l 1
 495 930 l 1
 493 930 l 1
646 694 m 0
 695 664 729 621 749 564 c 0
 769 507 773 441 761 365 c 0
 749 289 724 223 686 166 c 0
 648 109 600 66 542 36 c 0
 483 5 418 -10 346 -10 c 0
 273 -10 212 5 164 36 c 0
 114 66 80 109 60 166 c 0
 41 223 37 289 49 365 c 0
 61 441 86 507 124 564 c 0
 161 621 209 664 268 694 c 0
 327 725 392 740 464 740 c 0
 537 740 597 725 646 694 c 0
553 163 m 0
 604 212 637 279 650 365 c 0
 663 451 652 518 616 567 c 0
 581 616 525 640 449 640 c 0
 372 640 308 616 257 567 c 0
 206 518 173 451 160 365 c 0
 147 279 158 212 194 163 c 0
 229 114 285 90 361 90 c 0
 438 90 502 114 553 163 c 0
EndSplineSet
EndChar

StartChar: uni1ED8
Encoding: 7896 7896 112
Width: 806
Flags: W
LayerCount: 2
Fore
SplineSet
164 36 m 0
 114 66 80 109 60 166 c 0
 41 223 37 289 49 365 c 0
 61 441 86 507 124 564 c 0
 161 621 209 664 268 694 c 0
 327 725 392 740 464 740 c 0
 537 740 597 725 646 694 c 0
 695 664 729 621 749 564 c 0
 769 507 773 441 761 365 c 0
 749 289 724 223 686 166 c 0
 648 109 600 66 542 36 c 0
 483 5 418 -10 346 -10 c 0
 273 -10 212 5 164 36 c 0
553 163 m 0
 604 212 637 279 650 365 c 0
 663 451 652 518 616 567 c 0
 581 616 525 640 449 640 c 0
 372 640 308 616 257 567 c 0
 206 518 173 451 160 365 c 0
 147 279 158 212 194 163 c 0
 229 114 285 90 361 90 c 0
 438 90 502 114 553 163 c 0
296 -82 m 1
 420 -82 l 1
 400 -208 l 1
 276 -208 l 1
 296 -82 l 1
405 980 m 1
 595 980 l 1
 684 770 l 1
 556 770 l 1
 494 930 l 1
 492 930 l 1
 378 770 l 1
 251 770 l 1
 405 980 l 1
EndSplineSet
EndChar

StartChar: uni1ED2
Encoding: 7890 7890 113
Width: 784
Flags: W
LayerCount: 2
Fore
SplineSet
385 950 m 1
 312 950 l 1
 223 1160 l 1
 360 1160 l 1
 411 980 l 1
 596 980 l 1
 686 770 l 1
 558 770 l 1
 495 930 l 1
 493 930 l 1
 380 770 l 1
 253 770 l 1
 385 950 l 1
646 694 m 0
 695 664 729 621 749 564 c 0
 769 507 773 441 761 365 c 0
 749 289 724 223 686 166 c 0
 648 109 600 66 542 36 c 0
 483 5 418 -10 346 -10 c 0
 273 -10 212 5 164 36 c 0
 114 66 80 109 60 166 c 0
 41 223 37 289 49 365 c 0
 61 441 86 507 124 564 c 0
 161 621 209 664 268 694 c 0
 327 725 392 740 464 740 c 0
 537 740 597 725 646 694 c 0
553 163 m 0
 604 212 637 279 650 365 c 0
 663 451 652 518 616 567 c 0
 581 616 525 640 449 640 c 0
 372 640 308 616 257 567 c 0
 206 518 173 451 160 365 c 0
 147 279 158 212 194 163 c 0
 229 114 285 90 361 90 c 0
 438 90 502 114 553 163 c 0
EndSplineSet
EndChar

StartChar: uni1ED4
Encoding: 7892 7892 114
Width: 784
Flags: W
LayerCount: 2
Fore
SplineSet
589 980 m 1
 594 997 597 1009 598 1014 c 0
 600 1029 597 1038 588 1044 c 0
 579 1048 562 1051 537 1051 c 0
 495 1051 454 1045 413 1033 c 1
 417 1120 l 1
 468 1132 521 1138 576 1138 c 0
 617 1138 648 1136 669 1130 c 0
 690 1126 705 1117 712 1106 c 0
 720 1094 722 1077 719 1055 c 0
 716 1039 712 1021 705 1001 c 0
 698 981 691 963 683 948 c 1
 610 948 l 1
 686 770 l 1
 558 770 l 1
 495 930 l 1
 493 930 l 1
 380 770 l 1
 253 770 l 1
 407 980 l 1
 589 980 l 1
646 694 m 0
 695 664 729 621 749 564 c 0
 769 507 773 441 761 365 c 0
 749 289 724 223 686 166 c 0
 648 109 600 66 542 36 c 0
 483 5 418 -10 346 -10 c 0
 273 -10 212 5 164 36 c 0
 114 66 80 109 60 166 c 0
 41 223 37 289 49 365 c 0
 61 441 86 507 124 564 c 0
 161 621 209 664 268 694 c 0
 327 725 392 740 464 740 c 0
 537 740 597 725 646 694 c 0
553 163 m 0
 604 212 637 279 650 365 c 0
 663 451 652 518 616 567 c 0
 581 616 525 640 449 640 c 0
 372 640 308 616 257 567 c 0
 206 518 173 451 160 365 c 0
 147 279 158 212 194 163 c 0
 229 114 285 90 361 90 c 0
 438 90 502 114 553 163 c 0
EndSplineSet
EndChar

StartChar: uni1ED6
Encoding: 7894 7894 115
Width: 806
Flags: W
LayerCount: 2
Fore
SplineSet
164 36 m 0
 114 66 80 109 60 166 c 0
 41 223 37 289 49 365 c 0
 61 441 86 507 124 564 c 0
 161 621 209 664 268 694 c 0
 327 725 392 740 464 740 c 0
 537 740 597 725 646 694 c 0
 695 664 729 621 749 564 c 0
 769 507 773 441 761 365 c 0
 749 289 724 223 686 166 c 0
 648 109 600 66 542 36 c 0
 483 5 418 -10 346 -10 c 0
 273 -10 212 5 164 36 c 0
553 163 m 0
 604 212 637 279 650 365 c 0
 663 451 652 518 616 567 c 0
 581 616 525 640 449 640 c 0
 372 640 308 616 257 567 c 0
 206 518 173 451 160 365 c 0
 147 279 158 212 194 163 c 0
 229 114 285 90 361 90 c 0
 438 90 502 114 553 163 c 0
405 980 m 1
 595 980 l 1
 684 770 l 1
 556 770 l 1
 494 930 l 1
 492 930 l 1
 378 770 l 1
 251 770 l 1
 405 980 l 1
562 1006 m 0
 545 1013 525 1024 501 1039 c 0
 473 1058 452 1067 438 1067 c 0
 428 1067 420 1062 414 1054 c 0
 409 1044 404 1029 400 1007 c 1
 302 1007 l 1
 311 1064 326 1106 346 1133 c 0
 365 1160 391 1173 423 1173 c 0
 439 1173 455 1170 472 1164 c 0
 488 1157 508 1146 531 1131 c 0
 559 1112 580 1103 593 1103 c 0
 603 1103 611 1108 617 1117 c 0
 623 1126 628 1142 631 1163 c 1
 729 1163 l 1
 720 1106 705 1064 686 1037 c 0
 667 1010 641 997 609 997 c 0
 594 997 578 1000 562 1006 c 0
EndSplineSet
EndChar

StartChar: uni020C
Encoding: 524 524 116
Width: 806
Flags: W
LayerCount: 2
Fore
SplineSet
164 36 m 0
 114 66 80 109 60 166 c 0
 41 223 37 289 49 365 c 0
 61 441 86 507 124 564 c 0
 161 621 209 664 268 694 c 0
 327 725 392 740 464 740 c 0
 537 740 597 725 646 694 c 0
 695 664 729 621 749 564 c 0
 769 507 773 441 761 365 c 0
 749 289 724 223 686 166 c 0
 648 109 600 66 542 36 c 0
 483 5 418 -10 346 -10 c 0
 273 -10 212 5 164 36 c 0
553 163 m 0
 604 212 637 279 650 365 c 0
 663 451 652 518 616 567 c 0
 581 616 525 640 449 640 c 0
 372 640 308 616 257 567 c 0
 206 518 173 451 160 365 c 0
 147 279 158 212 194 163 c 0
 229 114 285 90 361 90 c 0
 438 90 502 114 553 163 c 0
232 980 m 1
 369 980 l 1
 429 770 l 1
 321 770 l 1
 232 980 l 1
452 980 m 1
 590 980 l 1
 649 770 l 1
 542 770 l 1
 452 980 l 1
EndSplineSet
EndChar

StartChar: Odieresis
Encoding: 214 214 117
Width: 806
Flags: W
LayerCount: 2
Fore
SplineSet
164 36 m 0
 114 66 80 109 60 166 c 0
 41 223 37 289 49 365 c 0
 61 441 86 507 124 564 c 0
 161 621 209 664 268 694 c 0
 327 725 392 740 464 740 c 0
 537 740 597 725 646 694 c 0
 695 664 729 621 749 564 c 0
 769 507 773 441 761 365 c 0
 749 289 724 223 686 166 c 0
 648 109 600 66 542 36 c 0
 483 5 418 -10 346 -10 c 0
 273 -10 212 5 164 36 c 0
553 163 m 0
 604 212 637 279 650 365 c 0
 663 451 652 518 616 567 c 0
 581 616 525 640 449 640 c 0
 372 640 308 616 257 567 c 0
 206 518 173 451 160 365 c 0
 147 279 158 212 194 163 c 0
 229 114 285 90 361 90 c 0
 438 90 502 114 553 163 c 0
303 938 m 1
 427 938 l 1
 407 812 l 1
 283 812 l 1
 303 938 l 1
552 938 m 1
 675 938 l 1
 655 812 l 1
 532 812 l 1
 552 938 l 1
EndSplineSet
EndChar

StartChar: uni022A
Encoding: 554 554 118
Width: 806
Flags: W
LayerCount: 2
Fore
SplineSet
164 36 m 0
 114 66 80 109 60 166 c 0
 41 223 37 289 49 365 c 0
 61 441 86 507 124 564 c 0
 161 621 209 664 268 694 c 0
 327 725 392 740 464 740 c 0
 537 740 597 725 646 694 c 0
 695 664 729 621 749 564 c 0
 769 507 773 441 761 365 c 0
 749 289 724 223 686 166 c 0
 648 109 600 66 542 36 c 0
 483 5 418 -10 346 -10 c 0
 273 -10 212 5 164 36 c 0
553 163 m 0
 604 212 637 279 650 365 c 0
 663 451 652 518 616 567 c 0
 581 616 525 640 449 640 c 0
 372 640 308 616 257 567 c 0
 206 518 173 451 160 365 c 0
 147 279 158 212 194 163 c 0
 229 114 285 90 361 90 c 0
 438 90 502 114 553 163 c 0
303 938 m 1
 427 938 l 1
 407 812 l 1
 283 812 l 1
 303 938 l 1
552 938 m 1
 675 938 l 1
 655 812 l 1
 532 812 l 1
 552 938 l 1
334 1126 m 1
 704 1126 l 1
 690 1040 l 1
 320 1040 l 1
 334 1126 l 1
EndSplineSet
EndChar

StartChar: uni0230
Encoding: 560 560 119
Width: 806
Flags: W
LayerCount: 2
Fore
SplineSet
164 36 m 0
 114 66 80 109 60 166 c 0
 41 223 37 289 49 365 c 0
 61 441 86 507 124 564 c 0
 161 621 209 664 268 694 c 0
 327 725 392 740 464 740 c 0
 537 740 597 725 646 694 c 0
 695 664 729 621 749 564 c 0
 769 507 773 441 761 365 c 0
 749 289 724 223 686 166 c 0
 648 109 600 66 542 36 c 0
 483 5 418 -10 346 -10 c 0
 273 -10 212 5 164 36 c 0
553 163 m 0
 604 212 637 279 650 365 c 0
 663 451 652 518 616 567 c 0
 581 616 525 640 449 640 c 0
 372 640 308 616 257 567 c 0
 206 518 173 451 160 365 c 0
 147 279 158 212 194 163 c 0
 229 114 285 90 361 90 c 0
 438 90 502 114 553 163 c 0
457 938 m 1
 581 938 l 1
 561 812 l 1
 437 812 l 1
 457 938 l 1
334 1126 m 1
 704 1126 l 1
 690 1040 l 1
 320 1040 l 1
 334 1126 l 1
EndSplineSet
EndChar

StartChar: uni1ECC
Encoding: 7884 7884 120
Width: 806
Flags: W
LayerCount: 2
Fore
SplineSet
164 36 m 0
 114 66 80 109 60 166 c 0
 41 223 37 289 49 365 c 0
 61 441 86 507 124 564 c 0
 161 621 209 664 268 694 c 0
 327 725 392 740 464 740 c 0
 537 740 597 725 646 694 c 0
 695 664 729 621 749 564 c 0
 769 507 773 441 761 365 c 0
 749 289 724 223 686 166 c 0
 648 109 600 66 542 36 c 0
 483 5 418 -10 346 -10 c 0
 273 -10 212 5 164 36 c 0
553 163 m 0
 604 212 637 279 650 365 c 0
 663 451 652 518 616 567 c 0
 581 616 525 640 449 640 c 0
 372 640 308 616 257 567 c 0
 206 518 173 451 160 365 c 0
 147 279 158 212 194 163 c 0
 229 114 285 90 361 90 c 0
 438 90 502 114 553 163 c 0
296 -82 m 1
 420 -82 l 1
 400 -208 l 1
 276 -208 l 1
 296 -82 l 1
EndSplineSet
EndChar

StartChar: Ograve
Encoding: 210 210 121
Width: 806
Flags: W
LayerCount: 2
Fore
SplineSet
164 36 m 0
 114 66 80 109 60 166 c 0
 41 223 37 289 49 365 c 0
 61 441 86 507 124 564 c 0
 161 621 209 664 268 694 c 0
 327 725 392 740 464 740 c 0
 537 740 597 725 646 694 c 0
 695 664 729 621 749 564 c 0
 769 507 773 441 761 365 c 0
 749 289 724 223 686 166 c 0
 648 109 600 66 542 36 c 0
 483 5 418 -10 346 -10 c 0
 273 -10 212 5 164 36 c 0
553 163 m 0
 604 212 637 279 650 365 c 0
 663 451 652 518 616 567 c 0
 581 616 525 640 449 640 c 0
 372 640 308 616 257 567 c 0
 206 518 173 451 160 365 c 0
 147 279 158 212 194 163 c 0
 229 114 285 90 361 90 c 0
 438 90 502 114 553 163 c 0
323 980 m 1
 460 980 l 1
 520 770 l 1
 412 770 l 1
 323 980 l 1
EndSplineSet
EndChar

StartChar: uni1ECE
Encoding: 7886 7886 122
Width: 806
Flags: W
LayerCount: 2
Fore
SplineSet
164 36 m 0
 114 66 80 109 60 166 c 0
 41 223 37 289 49 365 c 0
 61 441 86 507 124 564 c 0
 161 621 209 664 268 694 c 0
 327 725 392 740 464 740 c 0
 537 740 597 725 646 694 c 0
 695 664 729 621 749 564 c 0
 769 507 773 441 761 365 c 0
 749 289 724 223 686 166 c 0
 648 109 600 66 542 36 c 0
 483 5 418 -10 346 -10 c 0
 273 -10 212 5 164 36 c 0
553 163 m 0
 604 212 637 279 650 365 c 0
 663 451 652 518 616 567 c 0
 581 616 525 640 449 640 c 0
 372 640 308 616 257 567 c 0
 206 518 173 451 160 365 c 0
 147 279 158 212 194 163 c 0
 229 114 285 90 361 90 c 0
 438 90 502 114 553 163 c 0
555 826 m 0
 560 840 563 850 564 859 c 0
 566 874 563 884 554 888 c 0
 545 894 528 896 503 896 c 0
 461 896 420 890 379 878 c 1
 383 965 l 1
 434 977 487 983 542 983 c 0
 583 983 614 980 635 976 c 0
 656 970 671 962 678 950 c 0
 686 939 688 922 685 900 c 0
 682 884 678 866 671 846 c 0
 664 826 657 808 649 793 c 1
 541 793 l 1
 546 802 550 814 555 826 c 0
EndSplineSet
EndChar

StartChar: Ohorn
Encoding: 416 416 123
Width: 805
Flags: W
LayerCount: 2
Fore
SplineSet
822 624 m 0
 801 599 775 584 743 578 c 1
 768 519 774 448 761 365 c 0
 749 289 724 223 686 166 c 0
 648 109 600 66 542 36 c 0
 483 5 418 -10 346 -10 c 0
 273 -10 212 5 164 36 c 0
 114 66 80 109 60 166 c 0
 41 223 37 289 49 365 c 0
 61 441 86 507 124 564 c 0
 161 621 209 664 268 694 c 0
 327 725 392 740 464 740 c 0
 555 740 627 716 680 669 c 0
 682 668 685 668 689 668 c 0
 706 668 720 674 732 686 c 0
 743 697 750 713 753 734 c 0
 756 749 757 768 756 789 c 0
 755 810 753 827 750 840 c 1
 860 840 l 1
 867 799 867 759 861 720 c 0
 855 681 842 649 822 624 c 0
553 163 m 0
 604 212 637 279 650 365 c 0
 663 451 652 518 616 567 c 0
 581 616 525 640 449 640 c 0
 372 640 308 616 257 567 c 0
 206 518 173 451 160 365 c 0
 147 279 158 212 194 163 c 0
 229 114 285 90 361 90 c 0
 438 90 502 114 553 163 c 0
EndSplineSet
EndChar

StartChar: uni1EDA
Encoding: 7898 7898 124
Width: 826
Flags: W
LayerCount: 2
Fore
SplineSet
822 624 m 0
 801 599 775 584 743 578 c 1
 768 519 774 448 761 365 c 0
 749 289 724 223 686 166 c 0
 648 109 600 66 542 36 c 0
 483 5 418 -10 346 -10 c 0
 273 -10 212 5 164 36 c 0
 114 66 80 109 60 166 c 0
 41 223 37 289 49 365 c 0
 61 441 86 507 124 564 c 0
 161 621 209 664 268 694 c 0
 327 725 392 740 464 740 c 0
 555 740 627 716 680 669 c 0
 682 668 685 668 689 668 c 0
 706 668 720 674 732 686 c 0
 743 697 750 713 753 734 c 0
 756 749 757 768 756 789 c 0
 755 810 753 827 750 840 c 1
 860 840 l 1
 867 799 867 759 861 720 c 0
 855 681 842 649 822 624 c 0
553 163 m 0
 604 212 637 279 650 365 c 0
 663 451 652 518 616 567 c 0
 581 616 525 640 449 640 c 0
 372 640 308 616 257 567 c 0
 206 518 173 451 160 365 c 0
 147 279 158 212 194 163 c 0
 229 114 285 90 361 90 c 0
 438 90 502 114 553 163 c 0
511 770 m 1
 403 770 l 1
 529 980 l 1
 667 980 l 1
 511 770 l 1
EndSplineSet
EndChar

StartChar: uni1EE2
Encoding: 7906 7906 125
Width: 826
Flags: W
LayerCount: 2
Fore
SplineSet
822 624 m 0
 801 599 775 584 743 578 c 1
 768 519 774 448 761 365 c 0
 749 289 724 223 686 166 c 0
 648 109 600 66 542 36 c 0
 483 5 418 -10 346 -10 c 0
 273 -10 212 5 164 36 c 0
 114 66 80 109 60 166 c 0
 41 223 37 289 49 365 c 0
 61 441 86 507 124 564 c 0
 161 621 209 664 268 694 c 0
 327 725 392 740 464 740 c 0
 555 740 627 716 680 669 c 0
 682 668 685 668 689 668 c 0
 706 668 720 674 732 686 c 0
 743 697 750 713 753 734 c 0
 756 749 757 768 756 789 c 0
 755 810 753 827 750 840 c 1
 860 840 l 1
 867 799 867 759 861 720 c 0
 855 681 842 649 822 624 c 0
553 163 m 0
 604 212 637 279 650 365 c 0
 663 451 652 518 616 567 c 0
 581 616 525 640 449 640 c 0
 372 640 308 616 257 567 c 0
 206 518 173 451 160 365 c 0
 147 279 158 212 194 163 c 0
 229 114 285 90 361 90 c 0
 438 90 502 114 553 163 c 0
296 -82 m 1
 420 -82 l 1
 400 -208 l 1
 276 -208 l 1
 296 -82 l 1
EndSplineSet
EndChar

StartChar: uni1EDC
Encoding: 7900 7900 126
Width: 826
Flags: W
LayerCount: 2
Fore
SplineSet
822 624 m 0
 801 599 775 584 743 578 c 1
 768 519 774 448 761 365 c 0
 749 289 724 223 686 166 c 0
 648 109 600 66 542 36 c 0
 483 5 418 -10 346 -10 c 0
 273 -10 212 5 164 36 c 0
 114 66 80 109 60 166 c 0
 41 223 37 289 49 365 c 0
 61 441 86 507 124 564 c 0
 161 621 209 664 268 694 c 0
 327 725 392 740 464 740 c 0
 555 740 627 716 680 669 c 0
 682 668 685 668 689 668 c 0
 706 668 720 674 732 686 c 0
 743 697 750 713 753 734 c 0
 756 749 757 768 756 789 c 0
 755 810 753 827 750 840 c 1
 860 840 l 1
 867 799 867 759 861 720 c 0
 855 681 842 649 822 624 c 0
553 163 m 0
 604 212 637 279 650 365 c 0
 663 451 652 518 616 567 c 0
 581 616 525 640 449 640 c 0
 372 640 308 616 257 567 c 0
 206 518 173 451 160 365 c 0
 147 279 158 212 194 163 c 0
 229 114 285 90 361 90 c 0
 438 90 502 114 553 163 c 0
323 980 m 1
 460 980 l 1
 520 770 l 1
 412 770 l 1
 323 980 l 1
EndSplineSet
EndChar

StartChar: uni1EDE
Encoding: 7902 7902 127
Width: 826
Flags: W
LayerCount: 2
Fore
SplineSet
822 624 m 0
 801 599 775 584 743 578 c 1
 768 519 774 448 761 365 c 0
 749 289 724 223 686 166 c 0
 648 109 600 66 542 36 c 0
 483 5 418 -10 346 -10 c 0
 273 -10 212 5 164 36 c 0
 114 66 80 109 60 166 c 0
 41 223 37 289 49 365 c 0
 61 441 86 507 124 564 c 0
 161 621 209 664 268 694 c 0
 327 725 392 740 464 740 c 0
 555 740 627 716 680 669 c 0
 682 668 685 668 689 668 c 0
 706 668 720 674 732 686 c 0
 743 697 750 713 753 734 c 0
 756 749 757 768 756 789 c 0
 755 810 753 827 750 840 c 1
 860 840 l 1
 867 799 867 759 861 720 c 0
 855 681 842 649 822 624 c 0
553 163 m 0
 604 212 637 279 650 365 c 0
 663 451 652 518 616 567 c 0
 581 616 525 640 449 640 c 0
 372 640 308 616 257 567 c 0
 206 518 173 451 160 365 c 0
 147 279 158 212 194 163 c 0
 229 114 285 90 361 90 c 0
 438 90 502 114 553 163 c 0
555 826 m 0
 560 840 563 850 564 859 c 0
 566 874 563 884 554 888 c 0
 545 894 528 896 503 896 c 0
 461 896 420 890 379 878 c 1
 383 965 l 1
 434 977 487 983 542 983 c 0
 583 983 614 980 635 976 c 0
 656 970 671 962 678 950 c 0
 686 939 688 922 685 900 c 0
 682 884 678 866 671 846 c 0
 664 826 657 808 649 793 c 1
 541 793 l 1
 546 802 550 814 555 826 c 0
EndSplineSet
EndChar

StartChar: uni1EE0
Encoding: 7904 7904 128
Width: 826
Flags: W
LayerCount: 2
Fore
SplineSet
822 624 m 0
 801 599 775 584 743 578 c 1
 768 519 774 448 761 365 c 0
 749 289 724 223 686 166 c 0
 648 109 600 66 542 36 c 0
 483 5 418 -10 346 -10 c 0
 273 -10 212 5 164 36 c 0
 114 66 80 109 60 166 c 0
 41 223 37 289 49 365 c 0
 61 441 86 507 124 564 c 0
 161 621 209 664 268 694 c 0
 327 725 392 740 464 740 c 0
 555 740 627 716 680 669 c 0
 682 668 685 668 689 668 c 0
 706 668 720 674 732 686 c 0
 743 697 750 713 753 734 c 0
 756 749 757 768 756 789 c 0
 755 810 753 827 750 840 c 1
 860 840 l 1
 867 799 867 759 861 720 c 0
 855 681 842 649 822 624 c 0
553 163 m 0
 604 212 637 279 650 365 c 0
 663 451 652 518 616 567 c 0
 581 616 525 640 449 640 c 0
 372 640 308 616 257 567 c 0
 206 518 173 451 160 365 c 0
 147 279 158 212 194 163 c 0
 229 114 285 90 361 90 c 0
 438 90 502 114 553 163 c 0
528 796 m 0
 511 803 491 814 467 829 c 0
 439 848 418 857 404 857 c 0
 394 857 386 852 380 844 c 0
 375 834 370 819 366 797 c 1
 268 797 l 1
 277 854 292 896 312 923 c 0
 331 950 357 963 389 963 c 0
 405 963 421 960 438 954 c 0
 454 947 474 936 497 921 c 0
 525 902 546 893 559 893 c 0
 569 893 577 898 583 907 c 0
 589 916 594 932 597 953 c 1
 695 953 l 1
 686 896 671 854 652 827 c 0
 633 800 607 787 575 787 c 0
 560 787 544 790 528 796 c 0
EndSplineSet
EndChar

StartChar: Ohungarumlaut
Encoding: 336 336 129
Width: 806
Flags: W
LayerCount: 2
Fore
SplineSet
164 36 m 0
 114 66 80 109 60 166 c 0
 41 223 37 289 49 365 c 0
 61 441 86 507 124 564 c 0
 161 621 209 664 268 694 c 0
 327 725 392 740 464 740 c 0
 537 740 597 725 646 694 c 0
 695 664 729 621 749 564 c 0
 769 507 773 441 761 365 c 0
 749 289 724 223 686 166 c 0
 648 109 600 66 542 36 c 0
 483 5 418 -10 346 -10 c 0
 273 -10 212 5 164 36 c 0
553 163 m 0
 604 212 637 279 650 365 c 0
 663 451 652 518 616 567 c 0
 581 616 525 640 449 640 c 0
 372 640 308 616 257 567 c 0
 206 518 173 451 160 365 c 0
 147 279 158 212 194 163 c 0
 229 114 285 90 361 90 c 0
 438 90 502 114 553 163 c 0
401 770 m 1
 293 770 l 1
 419 980 l 1
 557 980 l 1
 401 770 l 1
626 770 m 1
 518 770 l 1
 644 980 l 1
 782 980 l 1
 626 770 l 1
EndSplineSet
EndChar

StartChar: uni020E
Encoding: 526 526 130
Width: 806
Flags: W
LayerCount: 2
Fore
SplineSet
164 36 m 0
 114 66 80 109 60 166 c 0
 41 223 37 289 49 365 c 0
 61 441 86 507 124 564 c 0
 161 621 209 664 268 694 c 0
 327 725 392 740 464 740 c 0
 537 740 597 725 646 694 c 0
 695 664 729 621 749 564 c 0
 769 507 773 441 761 365 c 0
 749 289 724 223 686 166 c 0
 648 109 600 66 542 36 c 0
 483 5 418 -10 346 -10 c 0
 273 -10 212 5 164 36 c 0
553 163 m 0
 604 212 637 279 650 365 c 0
 663 451 652 518 616 567 c 0
 581 616 525 640 449 640 c 0
 372 640 308 616 257 567 c 0
 206 518 173 451 160 365 c 0
 147 279 158 212 194 163 c 0
 229 114 285 90 361 90 c 0
 438 90 502 114 553 163 c 0
592 946 m 0
 619 931 640 911 654 885 c 0
 667 859 672 830 669 797 c 1
 555 797 l 1
 556 824 551 845 538 860 c 0
 525 874 507 881 482 881 c 0
 457 881 436 874 419 860 c 0
 402 845 389 824 382 797 c 1
 267 797 l 1
 274 830 289 859 310 885 c 0
 332 911 359 931 391 946 c 0
 423 960 458 967 495 967 c 0
 532 967 565 960 592 946 c 0
EndSplineSet
EndChar

StartChar: Omacron
Encoding: 332 332 131
Width: 806
Flags: W
LayerCount: 2
Fore
SplineSet
164 36 m 0
 114 66 80 109 60 166 c 0
 41 223 37 289 49 365 c 0
 61 441 86 507 124 564 c 0
 161 621 209 664 268 694 c 0
 327 725 392 740 464 740 c 0
 537 740 597 725 646 694 c 0
 695 664 729 621 749 564 c 0
 769 507 773 441 761 365 c 0
 749 289 724 223 686 166 c 0
 648 109 600 66 542 36 c 0
 483 5 418 -10 346 -10 c 0
 273 -10 212 5 164 36 c 0
553 163 m 0
 604 212 637 279 650 365 c 0
 663 451 652 518 616 567 c 0
 581 616 525 640 449 640 c 0
 372 640 308 616 257 567 c 0
 206 518 173 451 160 365 c 0
 147 279 158 212 194 163 c 0
 229 114 285 90 361 90 c 0
 438 90 502 114 553 163 c 0
301 918 m 1
 671 918 l 1
 657 832 l 1
 287 832 l 1
 301 918 l 1
EndSplineSet
EndChar

StartChar: uni01EA
Encoding: 490 490 132
Width: 784
Flags: W
LayerCount: 2
Fore
SplineSet
333 -52 m 0
 318 -67 310 -80 308 -93 c 0
 306 -105 310 -114 320 -120 c 0
 331 -127 347 -130 369 -130 c 0
 400 -130 430 -124 459 -111 c 1
 462 -196 l 1
 427 -210 388 -217 346 -217 c 0
 296 -217 259 -208 234 -190 c 0
 209 -171 200 -145 205 -112 c 0
 211 -74 234 -38 275 -4 c 1
 189 10 126 50 86 115 c 0
 45 180 33 264 49 365 c 0
 61 441 86 507 124 564 c 0
 161 621 209 664 268 694 c 0
 327 725 392 740 464 740 c 0
 537 740 597 725 646 694 c 0
 695 664 729 621 749 564 c 0
 769 507 773 441 761 365 c 0
 750 294 727 232 694 178 c 0
 661 125 618 82 567 50 c 0
 516 18 458 -1 393 -8 c 1
 368 -23 348 -37 333 -52 c 0
194 163 m 0
 229 114 285 90 361 90 c 0
 438 90 502 114 553 163 c 0
 604 212 637 279 650 365 c 0
 663 451 652 518 616 567 c 0
 581 616 525 640 449 640 c 0
 372 640 308 616 257 567 c 0
 206 518 173 451 160 365 c 0
 147 279 158 212 194 163 c 0
EndSplineSet
EndChar

StartChar: Oslash
Encoding: 216 216 133
Width: 784
Flags: W
LayerCount: 2
Fore
SplineSet
760 522 m 0
 770 475 770 423 761 365 c 0
 749 289 724 223 686 166 c 0
 648 109 600 66 542 36 c 0
 483 5 418 -10 346 -10 c 0
 276 -10 216 5 166 35 c 1
 102 -37 l 1
 40 17 l 1
 103 89 l 1
 76 122 58 161 49 208 c 0
 40 255 40 307 49 365 c 0
 61 441 86 507 124 564 c 0
 161 621 209 664 268 694 c 0
 327 725 392 740 464 740 c 0
 534 740 594 725 644 695 c 1
 708 767 l 1
 770 713 l 1
 706 641 l 1
 733 608 752 569 760 522 c 0
183 178 m 1
 568 611 l 1
 537 630 497 640 449 640 c 0
 372 640 308 616 257 567 c 0
 206 518 173 451 160 365 c 0
 147 288 155 225 183 178 c 1
553 163 m 0
 604 212 637 279 650 365 c 0
 662 442 654 505 627 552 c 1
 242 119 l 1
 273 100 313 90 361 90 c 0
 438 90 502 114 553 163 c 0
EndSplineSet
EndChar

StartChar: Oslashacute
Encoding: 510 510 134
Width: 806
Flags: W
LayerCount: 2
Fore
SplineSet
760 522 m 0
 770 475 770 423 761 365 c 0
 749 289 724 223 686 166 c 0
 648 109 600 66 542 36 c 0
 483 5 418 -10 346 -10 c 0
 276 -10 216 5 166 35 c 1
 102 -37 l 1
 40 17 l 1
 103 89 l 1
 76 122 58 161 49 208 c 0
 40 255 40 307 49 365 c 0
 61 441 86 507 124 564 c 0
 161 621 209 664 268 694 c 0
 327 725 392 740 464 740 c 0
 534 740 594 725 644 695 c 1
 708 767 l 1
 770 713 l 1
 706 641 l 1
 733 608 752 569 760 522 c 0
183 178 m 1
 568 611 l 1
 537 630 497 640 449 640 c 0
 372 640 308 616 257 567 c 0
 206 518 173 451 160 365 c 0
 147 288 155 225 183 178 c 1
553 163 m 0
 604 212 637 279 650 365 c 0
 662 442 654 505 627 552 c 1
 242 119 l 1
 273 100 313 90 361 90 c 0
 438 90 502 114 553 163 c 0
511 770 m 1
 403 770 l 1
 529 980 l 1
 667 980 l 1
 511 770 l 1
EndSplineSet
EndChar

StartChar: Otilde
Encoding: 213 213 135
Width: 806
Flags: W
LayerCount: 2
Fore
SplineSet
164 36 m 0
 114 66 80 109 60 166 c 0
 41 223 37 289 49 365 c 0
 61 441 86 507 124 564 c 0
 161 621 209 664 268 694 c 0
 327 725 392 740 464 740 c 0
 537 740 597 725 646 694 c 0
 695 664 729 621 749 564 c 0
 769 507 773 441 761 365 c 0
 749 289 724 223 686 166 c 0
 648 109 600 66 542 36 c 0
 483 5 418 -10 346 -10 c 0
 273 -10 212 5 164 36 c 0
553 163 m 0
 604 212 637 279 650 365 c 0
 663 451 652 518 616 567 c 0
 581 616 525 640 449 640 c 0
 372 640 308 616 257 567 c 0
 206 518 173 451 160 365 c 0
 147 279 158 212 194 163 c 0
 229 114 285 90 361 90 c 0
 438 90 502 114 553 163 c 0
528 796 m 0
 511 803 491 814 467 829 c 0
 439 848 418 857 404 857 c 0
 394 857 386 852 380 844 c 0
 375 834 370 819 366 797 c 1
 268 797 l 1
 277 854 292 896 312 923 c 0
 331 950 357 963 389 963 c 0
 405 963 421 960 438 954 c 0
 454 947 474 936 497 921 c 0
 525 902 546 893 559 893 c 0
 569 893 577 898 583 907 c 0
 589 916 594 932 597 953 c 1
 695 953 l 1
 686 896 671 854 652 827 c 0
 633 800 607 787 575 787 c 0
 560 787 544 790 528 796 c 0
EndSplineSet
EndChar

StartChar: uni022C
Encoding: 556 556 136
Width: 806
Flags: W
LayerCount: 2
Fore
SplineSet
164 36 m 0
 114 66 80 109 60 166 c 0
 41 223 37 289 49 365 c 0
 61 441 86 507 124 564 c 0
 161 621 209 664 268 694 c 0
 327 725 392 740 464 740 c 0
 537 740 597 725 646 694 c 0
 695 664 729 621 749 564 c 0
 769 507 773 441 761 365 c 0
 749 289 724 223 686 166 c 0
 648 109 600 66 542 36 c 0
 483 5 418 -10 346 -10 c 0
 273 -10 212 5 164 36 c 0
553 163 m 0
 604 212 637 279 650 365 c 0
 663 451 652 518 616 567 c 0
 581 616 525 640 449 640 c 0
 372 640 308 616 257 567 c 0
 206 518 173 451 160 365 c 0
 147 279 158 212 194 163 c 0
 229 114 285 90 361 90 c 0
 438 90 502 114 553 163 c 0
528 796 m 0
 511 803 491 814 467 829 c 0
 439 848 418 857 404 857 c 0
 394 857 386 852 380 844 c 0
 375 834 370 819 366 797 c 1
 268 797 l 1
 277 854 292 896 312 923 c 0
 331 950 357 963 389 963 c 0
 405 963 421 960 438 954 c 0
 454 947 474 936 497 921 c 0
 525 902 546 893 559 893 c 0
 569 893 577 898 583 907 c 0
 589 916 594 932 597 953 c 1
 695 953 l 1
 686 896 671 854 652 827 c 0
 633 800 607 787 575 787 c 0
 560 787 544 790 528 796 c 0
338 1151 m 1
 708 1151 l 1
 694 1065 l 1
 324 1065 l 1
 338 1151 l 1
EndSplineSet
EndChar

StartChar: OE
Encoding: 338 338 137
Width: 990
Flags: W
LayerCount: 2
Fore
SplineSet
649 632 m 1
 617 430 l 1
 936 430 l 1
 921 335 l 1
 602 335 l 1
 565 98 l 1
 903 98 l 1
 887 0 l 1
 442 0 l 1
 413 -7 381 -10 346 -10 c 0
 273 -10 212 5 164 36 c 0
 114 66 80 109 60 166 c 0
 41 223 37 289 49 365 c 0
 61 441 86 507 124 564 c 0
 161 621 209 664 268 694 c 0
 327 725 392 740 464 740 c 0
 499 740 531 737 558 730 c 1
 1003 730 l 1
 987 632 l 1
 649 632 l 1
194 163 m 0
 229 114 285 90 361 90 c 0
 396 90 429 95 458 106 c 1
 540 624 l 1
 514 635 484 640 449 640 c 0
 372 640 308 616 257 567 c 0
 206 518 173 451 160 365 c 0
 147 279 158 212 194 163 c 0
EndSplineSet
EndChar

StartChar: P
Encoding: 80 80 138
Width: 593
Flags: W
LayerCount: 2
Fore
SplineSet
554 673 m 0
 598 635 614 576 601 497 c 0
 588 418 555 360 502 322 c 0
 448 283 372 264 275 264 c 2
 177 264 l 1
 136 0 l 1
 28 0 l 1
 143 730 l 1
 330 730 l 2
 435 730 509 711 554 673 c 0
428 394 m 0
 463 415 484 449 491 496 c 0
 498 543 488 577 461 598 c 0
 434 619 386 630 319 630 c 2
 235 630 l 1
 193 362 l 1
 276 362 l 2
 343 362 394 373 428 394 c 0
EndSplineSet
EndChar

StartChar: Thorn
Encoding: 222 222 139
Width: 593
Flags: W
LayerCount: 2
Fore
SplineSet
534 551 m 0
 579 513 595 454 582 375 c 0
 569 296 536 238 482 200 c 0
 429 161 353 142 256 142 c 2
 158 142 l 1
 136 0 l 1
 28 0 l 1
 143 730 l 1
 251 730 l 1
 232 608 l 1
 310 608 l 2
 415 608 490 589 534 551 c 0
410 272 m 0
 444 293 465 327 472 374 c 0
 479 421 469 455 442 476 c 0
 414 497 366 508 299 508 c 2
 216 508 l 1
 174 240 l 1
 257 240 l 2
 324 240 375 251 410 272 c 0
EndSplineSet
EndChar

StartChar: Q
Encoding: 81 81 140
Width: 787
Flags: W
LayerCount: 2
Fore
SplineSet
705 -71 m 1
 610 -133 l 1
 586 -94 551 -63 506 -42 c 0
 460 -21 407 -10 346 -10 c 0
 273 -10 212 5 164 36 c 0
 114 66 80 109 60 166 c 0
 41 223 37 289 49 365 c 0
 61 441 86 507 124 564 c 0
 161 621 209 664 268 694 c 0
 327 725 392 740 464 740 c 0
 537 740 597 725 646 694 c 0
 695 664 729 621 749 564 c 0
 769 507 773 441 761 365 c 0
 749 290 724 224 684 169 c 0
 646 114 596 71 537 42 c 1
 612 17 668 -21 705 -71 c 1
194 163 m 0
 229 114 285 90 361 90 c 0
 438 90 502 114 553 163 c 0
 604 212 637 279 650 365 c 0
 663 451 652 518 616 567 c 0
 581 616 525 640 449 640 c 0
 372 640 308 616 257 567 c 0
 206 518 173 451 160 365 c 0
 147 279 158 212 194 163 c 0
EndSplineSet
EndChar

StartChar: R
Encoding: 82 82 141
Width: 621
Flags: W
LayerCount: 2
Fore
SplineSet
237 302 m 1
 183 302 l 1
 136 0 l 1
 28 0 l 1
 143 730 l 1
 339 730 l 2
 442 730 515 713 558 678 c 0
 601 644 616 591 605 518 c 0
 595 455 570 406 530 370 c 0
 489 336 433 314 361 306 c 1
 547 0 l 1
 420 0 l 1
 237 302 l 1
199 398 m 1
 292 398 l 2
 357 398 405 407 437 425 c 0
 469 443 488 472 494 513 c 0
 501 554 491 584 465 602 c 0
 439 621 393 630 328 630 c 2
 235 630 l 1
 199 398 l 1
EndSplineSet
EndChar

StartChar: Racute
Encoding: 340 340 142
Width: 642
Flags: W
LayerCount: 2
Fore
SplineSet
237 302 m 1
 183 302 l 1
 136 0 l 1
 28 0 l 1
 143 730 l 1
 339 730 l 2
 442 730 515 713 558 678 c 0
 601 644 616 591 605 518 c 0
 595 455 570 406 530 370 c 0
 489 336 433 314 361 306 c 1
 547 0 l 1
 420 0 l 1
 237 302 l 1
199 398 m 1
 292 398 l 2
 357 398 405 407 437 425 c 0
 469 443 488 472 494 513 c 0
 501 554 491 584 465 602 c 0
 439 621 393 630 328 630 c 2
 235 630 l 1
 199 398 l 1
418 770 m 1
 310 770 l 1
 436 980 l 1
 574 980 l 1
 418 770 l 1
EndSplineSet
EndChar

StartChar: Rcaron
Encoding: 344 344 143
Width: 642
Flags: W
LayerCount: 2
Fore
SplineSet
237 302 m 1
 183 302 l 1
 136 0 l 1
 28 0 l 1
 143 730 l 1
 339 730 l 2
 442 730 515 713 558 678 c 0
 601 644 616 591 605 518 c 0
 595 455 570 406 530 370 c 0
 489 336 433 314 361 306 c 1
 547 0 l 1
 420 0 l 1
 237 302 l 1
199 398 m 1
 292 398 l 2
 357 398 405 407 437 425 c 0
 469 443 488 472 494 513 c 0
 501 554 491 584 465 602 c 0
 439 621 393 630 328 630 c 2
 235 630 l 1
 199 398 l 1
191 980 m 1
 318 980 l 1
 381 820 l 1
 383 820 l 1
 497 980 l 1
 624 980 l 1
 468 770 l 1
 279 770 l 1
 191 980 l 1
EndSplineSet
EndChar

StartChar: uni0156
Encoding: 342 342 144
Width: 642
Flags: W
LayerCount: 2
Fore
SplineSet
237 302 m 1
 183 302 l 1
 136 0 l 1
 28 0 l 1
 143 730 l 1
 339 730 l 2
 442 730 515 713 558 678 c 0
 601 644 616 591 605 518 c 0
 595 455 570 406 530 370 c 0
 489 336 433 314 361 306 c 1
 547 0 l 1
 420 0 l 1
 237 302 l 1
199 398 m 1
 292 398 l 2
 357 398 405 407 437 425 c 0
 469 443 488 472 494 513 c 0
 501 554 491 584 465 602 c 0
 439 621 393 630 328 630 c 2
 235 630 l 1
 199 398 l 1
159 -250 m 1
 51 -250 l 1
 177 -40 l 1
 314 -40 l 1
 159 -250 l 1
EndSplineSet
EndChar

StartChar: uni0210
Encoding: 528 528 145
Width: 642
Flags: W
LayerCount: 2
Fore
SplineSet
237 302 m 1
 183 302 l 1
 136 0 l 1
 28 0 l 1
 143 730 l 1
 339 730 l 2
 442 730 515 713 558 678 c 0
 601 644 616 591 605 518 c 0
 595 455 570 406 530 370 c 0
 489 336 433 314 361 306 c 1
 547 0 l 1
 420 0 l 1
 237 302 l 1
199 398 m 1
 292 398 l 2
 357 398 405 407 437 425 c 0
 469 443 488 472 494 513 c 0
 501 554 491 584 465 602 c 0
 439 621 393 630 328 630 c 2
 235 630 l 1
 199 398 l 1
139 980 m 1
 276 980 l 1
 336 770 l 1
 228 770 l 1
 139 980 l 1
359 980 m 1
 497 980 l 1
 556 770 l 1
 449 770 l 1
 359 980 l 1
EndSplineSet
EndChar

StartChar: uni0212
Encoding: 530 530 146
Width: 642
Flags: W
LayerCount: 2
Fore
SplineSet
237 302 m 1
 183 302 l 1
 136 0 l 1
 28 0 l 1
 143 730 l 1
 339 730 l 2
 442 730 515 713 558 678 c 0
 601 644 616 591 605 518 c 0
 595 455 570 406 530 370 c 0
 489 336 433 314 361 306 c 1
 547 0 l 1
 420 0 l 1
 237 302 l 1
199 398 m 1
 292 398 l 2
 357 398 405 407 437 425 c 0
 469 443 488 472 494 513 c 0
 501 554 491 584 465 602 c 0
 439 621 393 630 328 630 c 2
 235 630 l 1
 199 398 l 1
499 946 m 0
 526 931 547 911 560 885 c 0
 574 859 579 830 576 797 c 1
 462 797 l 1
 463 824 458 845 445 860 c 0
 432 874 414 881 389 881 c 0
 364 881 343 874 326 860 c 0
 309 845 296 824 289 797 c 1
 174 797 l 1
 181 830 196 859 218 885 c 0
 239 911 266 931 298 946 c 0
 330 960 365 967 402 967 c 0
 439 967 472 960 499 946 c 0
EndSplineSet
EndChar

StartChar: S
Encoding: 83 83 147
Width: 596
Flags: W
LayerCount: 2
Fore
SplineSet
112 6 m 0
 73 16 39 31 10 51 c 1
 63 145 l 1
 90 128 121 114 155 104 c 0
 189 95 223 90 258 90 c 0
 306 90 344 99 372 118 c 0
 401 136 418 162 424 197 c 0
 428 220 425 239 415 254 c 0
 405 269 391 280 372 289 c 0
 354 298 329 308 296 319 c 0
 244 336 202 354 172 373 c 0
 140 392 118 415 104 442 c 0
 89 469 85 503 91 543 c 0
 101 606 131 654 180 688 c 0
 229 723 294 740 375 740 c 0
 416 740 457 736 498 726 c 0
 538 718 571 706 597 691 c 1
 545 597 l 1
 522 610 494 621 462 628 c 0
 428 636 396 640 364 640 c 0
 317 640 279 632 252 616 c 0
 225 599 208 575 203 543 c 0
 200 522 203 504 212 490 c 0
 222 476 236 464 254 456 c 0
 273 446 298 437 330 426 c 0
 382 407 424 389 454 370 c 0
 486 351 508 328 523 300 c 0
 538 273 542 238 535 197 c 0
 525 132 494 81 443 44 c 0
 392 8 325 -10 242 -10 c 0
 195 -10 151 -5 112 6 c 0
EndSplineSet
EndChar

StartChar: Sacute
Encoding: 346 346 148
Width: 616
Flags: W
LayerCount: 2
Fore
SplineSet
112 6 m 0
 73 16 39 31 10 51 c 1
 63 145 l 1
 90 128 121 114 155 104 c 0
 189 95 223 90 258 90 c 0
 306 90 344 99 372 118 c 0
 401 136 418 162 424 197 c 0
 428 220 425 239 415 254 c 0
 405 269 391 280 372 289 c 0
 354 298 329 308 296 319 c 0
 244 336 202 354 172 373 c 0
 140 392 118 415 104 442 c 0
 89 469 85 503 91 543 c 0
 101 606 131 654 180 688 c 0
 229 723 294 740 375 740 c 0
 416 740 457 736 498 726 c 0
 538 718 571 706 597 691 c 1
 545 597 l 1
 522 610 494 621 462 628 c 0
 428 636 396 640 364 640 c 0
 317 640 279 632 252 616 c 0
 225 599 208 575 203 543 c 0
 200 522 203 504 212 490 c 0
 222 476 236 464 254 456 c 0
 273 446 298 437 330 426 c 0
 382 407 424 389 454 370 c 0
 486 351 508 328 523 300 c 0
 538 273 542 238 535 197 c 0
 525 132 494 81 443 44 c 0
 392 8 325 -10 242 -10 c 0
 195 -10 151 -5 112 6 c 0
414 770 m 1
 306 770 l 1
 432 980 l 1
 570 980 l 1
 414 770 l 1
EndSplineSet
EndChar

StartChar: Scaron
Encoding: 352 352 149
Width: 616
Flags: W
LayerCount: 2
Fore
SplineSet
112 6 m 0
 73 16 39 31 10 51 c 1
 63 145 l 1
 90 128 121 114 155 104 c 0
 189 95 223 90 258 90 c 0
 306 90 344 99 372 118 c 0
 401 136 418 162 424 197 c 0
 428 220 425 239 415 254 c 0
 405 269 391 280 372 289 c 0
 354 298 329 308 296 319 c 0
 244 336 202 354 172 373 c 0
 140 392 118 415 104 442 c 0
 89 469 85 503 91 543 c 0
 101 606 131 654 180 688 c 0
 229 723 294 740 375 740 c 0
 416 740 457 736 498 726 c 0
 538 718 571 706 597 691 c 1
 545 597 l 1
 522 610 494 621 462 628 c 0
 428 636 396 640 364 640 c 0
 317 640 279 632 252 616 c 0
 225 599 208 575 203 543 c 0
 200 522 203 504 212 490 c 0
 222 476 236 464 254 456 c 0
 273 446 298 437 330 426 c 0
 382 407 424 389 454 370 c 0
 486 351 508 328 523 300 c 0
 538 273 542 238 535 197 c 0
 525 132 494 81 443 44 c 0
 392 8 325 -10 242 -10 c 0
 195 -10 151 -5 112 6 c 0
187 980 m 1
 314 980 l 1
 377 820 l 1
 379 820 l 1
 493 980 l 1
 620 980 l 1
 464 770 l 1
 275 770 l 1
 187 980 l 1
EndSplineSet
EndChar

StartChar: Scedilla
Encoding: 350 350 150
Width: 596
Flags: W
LayerCount: 2
Fore
SplineSet
471 68 m 0
 436 33 390 10 333 -1 c 1
 366 -36 379 -73 373 -112 c 0
 368 -145 350 -171 320 -190 c 0
 289 -208 249 -217 198 -217 c 0
 156 -217 120 -210 89 -196 c 1
 119 -111 l 1
 144 -124 172 -130 203 -130 c 0
 224 -130 241 -127 254 -120 c 0
 267 -114 274 -105 276 -93 c 0
 278 -81 274 -68 264 -54 c 0
 255 -39 240 -25 220 -10 c 1
 178 -9 139 -3 103 8 c 0
 67 18 36 32 10 51 c 1
 63 145 l 1
 90 128 121 114 155 104 c 0
 189 95 223 90 258 90 c 0
 306 90 344 99 372 118 c 0
 401 136 418 162 424 197 c 0
 428 220 425 239 415 254 c 0
 405 269 391 280 372 289 c 0
 354 298 329 308 296 319 c 0
 244 336 202 354 172 373 c 0
 140 392 118 415 104 442 c 0
 89 469 85 503 91 543 c 0
 101 606 131 654 180 688 c 0
 229 723 294 740 375 740 c 0
 416 740 457 736 498 726 c 0
 538 718 571 706 597 691 c 1
 545 597 l 1
 522 610 494 621 462 628 c 0
 428 636 396 640 364 640 c 0
 317 640 279 632 252 616 c 0
 225 599 208 575 203 543 c 0
 200 522 203 504 212 490 c 0
 222 476 236 464 254 456 c 0
 273 446 298 437 330 426 c 0
 382 407 424 389 454 370 c 0
 486 351 508 328 523 300 c 0
 538 273 542 238 535 197 c 0
 528 145 506 102 471 68 c 0
EndSplineSet
EndChar

StartChar: Scircumflex
Encoding: 348 348 151
Width: 616
Flags: W
LayerCount: 2
Fore
SplineSet
112 6 m 0
 73 16 39 31 10 51 c 1
 63 145 l 1
 90 128 121 114 155 104 c 0
 189 95 223 90 258 90 c 0
 306 90 344 99 372 118 c 0
 401 136 418 162 424 197 c 0
 428 220 425 239 415 254 c 0
 405 269 391 280 372 289 c 0
 354 298 329 308 296 319 c 0
 244 336 202 354 172 373 c 0
 140 392 118 415 104 442 c 0
 89 469 85 503 91 543 c 0
 101 606 131 654 180 688 c 0
 229 723 294 740 375 740 c 0
 416 740 457 736 498 726 c 0
 538 718 571 706 597 691 c 1
 545 597 l 1
 522 610 494 621 462 628 c 0
 428 636 396 640 364 640 c 0
 317 640 279 632 252 616 c 0
 225 599 208 575 203 543 c 0
 200 522 203 504 212 490 c 0
 222 476 236 464 254 456 c 0
 273 446 298 437 330 426 c 0
 382 407 424 389 454 370 c 0
 486 351 508 328 523 300 c 0
 538 273 542 238 535 197 c 0
 525 132 494 81 443 44 c 0
 392 8 325 -10 242 -10 c 0
 195 -10 151 -5 112 6 c 0
308 980 m 1
 498 980 l 1
 587 770 l 1
 459 770 l 1
 397 930 l 1
 395 930 l 1
 281 770 l 1
 154 770 l 1
 308 980 l 1
EndSplineSet
EndChar

StartChar: uni0218
Encoding: 536 536 152
Width: 616
Flags: W
LayerCount: 2
Fore
SplineSet
112 6 m 0
 73 16 39 31 10 51 c 1
 63 145 l 1
 90 128 121 114 155 104 c 0
 189 95 223 90 258 90 c 0
 306 90 344 99 372 118 c 0
 401 136 418 162 424 197 c 0
 428 220 425 239 415 254 c 0
 405 269 391 280 372 289 c 0
 354 298 329 308 296 319 c 0
 244 336 202 354 172 373 c 0
 140 392 118 415 104 442 c 0
 89 469 85 503 91 543 c 0
 101 606 131 654 180 688 c 0
 229 723 294 740 375 740 c 0
 416 740 457 736 498 726 c 0
 538 718 571 706 597 691 c 1
 545 597 l 1
 522 610 494 621 462 628 c 0
 428 636 396 640 364 640 c 0
 317 640 279 632 252 616 c 0
 225 599 208 575 203 543 c 0
 200 522 203 504 212 490 c 0
 222 476 236 464 254 456 c 0
 273 446 298 437 330 426 c 0
 382 407 424 389 454 370 c 0
 486 351 508 328 523 300 c 0
 538 273 542 238 535 197 c 0
 525 132 494 81 443 44 c 0
 392 8 325 -10 242 -10 c 0
 195 -10 151 -5 112 6 c 0
155 -250 m 1
 47 -250 l 1
 173 -40 l 1
 310 -40 l 1
 155 -250 l 1
EndSplineSet
EndChar

StartChar: uni1E9E
Encoding: 7838 7838 153
Width: 659
Flags: W
LayerCount: 2
Fore
SplineSet
224 11 m 1
 255 108 l 1
 288 96 320 90 352 90 c 0
 398 90 435 99 463 118 c 0
 491 136 507 162 512 195 c 0
 518 231 508 258 483 274 c 0
 458 292 415 300 355 300 c 2
 345 300 l 1
 361 400 l 1
 501 561 l 1
 504 587 495 607 475 620 c 0
 455 633 424 640 381 640 c 0
 329 640 290 630 265 608 c 0
 240 588 223 552 215 503 c 2
 136 0 l 1
 28 0 l 1
 107 503 l 2
 120 582 150 642 198 681 c 0
 245 720 312 740 397 740 c 0
 557 740 626 671 604 533 c 1
 475 385 l 1
 475 383 l 1
 532 378 572 360 598 328 c 0
 622 295 631 251 622 195 c 0
 611 129 583 78 536 43 c 0
 489 8 428 -10 351 -10 c 0
 306 -10 264 -3 224 11 c 1
EndSplineSet
EndChar

StartChar: uni018F
Encoding: 399 399 154
Width: 737
Flags: W
LayerCount: 2
Fore
SplineSet
660 643 m 0
 715 578 733 486 714 365 c 0
 701 287 677 220 642 164 c 0
 606 107 560 64 506 34 c 0
 450 5 388 -10 318 -10 c 0
 249 -10 192 4 148 34 c 0
 102 62 71 105 54 160 c 0
 37 215 34 281 46 358 c 0
 50 385 54 403 58 413 c 1
 614 413 l 1
 623 489 608 546 571 584 c 0
 534 621 472 640 387 640 c 0
 306 640 225 624 145 593 c 1
 139 688 l 1
 176 704 216 717 262 726 c 0
 306 735 351 740 396 740 c 0
 517 740 605 708 660 643 c 0
505 146 m 0
 549 184 579 240 596 314 c 1
 149 314 l 1
 142 240 155 184 187 146 c 0
 219 109 269 90 337 90 c 0
 405 90 461 109 505 146 c 0
EndSplineSet
EndChar

StartChar: T
Encoding: 84 84 155
Width: 618
Flags: W
LayerCount: 2
Fore
SplineSet
309 630 m 1
 80 630 l 1
 96 730 l 1
 664 730 l 1
 648 630 l 1
 419 630 l 1
 320 0 l 1
 209 0 l 1
 309 630 l 1
EndSplineSet
EndChar

StartChar: Tbar
Encoding: 358 358 156
Width: 669
Flags: W
LayerCount: 2
Fore
SplineSet
673 630 m 1
 445 630 l 1
 402 360 l 1
 573 360 l 1
 558 270 l 1
 388 270 l 1
 345 0 l 1
 234 0 l 1
 277 270 l 1
 108 270 l 1
 122 360 l 1
 291 360 l 1
 334 630 l 1
 106 630 l 1
 122 730 l 1
 689 730 l 1
 673 630 l 1
EndSplineSet
EndChar

StartChar: Tcaron
Encoding: 356 356 157
Width: 635
Flags: W
LayerCount: 2
Fore
SplineSet
309 630 m 1
 80 630 l 1
 96 730 l 1
 664 730 l 1
 648 630 l 1
 419 630 l 1
 320 0 l 1
 209 0 l 1
 309 630 l 1
199 980 m 1
 326 980 l 1
 389 820 l 1
 391 820 l 1
 505 980 l 1
 632 980 l 1
 476 770 l 1
 287 770 l 1
 199 980 l 1
EndSplineSet
EndChar

StartChar: uni0162
Encoding: 354 354 158
Width: 618
Flags: W
LayerCount: 2
Fore
SplineSet
419 630 m 1
 322 13 l 1
 364 -26 381 -68 374 -112 c 0
 369 -145 351 -171 320 -190 c 0
 290 -208 250 -217 200 -217 c 0
 158 -217 122 -210 91 -196 c 1
 121 -111 l 1
 146 -124 174 -130 205 -130 c 0
 226 -130 243 -127 256 -120 c 0
 269 -114 276 -105 277 -93 c 0
 279 -80 274 -65 262 -48 c 0
 250 -32 232 -16 209 0 c 1
 309 630 l 1
 80 630 l 1
 96 730 l 1
 664 730 l 1
 648 630 l 1
 419 630 l 1
EndSplineSet
EndChar

StartChar: uni021A
Encoding: 538 538 159
Width: 635
Flags: W
LayerCount: 2
Fore
SplineSet
309 630 m 1
 80 630 l 1
 96 730 l 1
 664 730 l 1
 648 630 l 1
 419 630 l 1
 320 0 l 1
 209 0 l 1
 309 630 l 1
167 -250 m 1
 59 -250 l 1
 185 -40 l 1
 322 -40 l 1
 167 -250 l 1
EndSplineSet
EndChar

StartChar: U
Encoding: 85 85 160
Width: 679
Flags: W
LayerCount: 2
Fore
SplineSet
100 62 m 0
 62 109 49 179 63 270 c 2
 136 730 l 1
 244 730 l 1
 173 283 l 2
 162 216 168 168 190 136 c 0
 211 106 251 90 309 90 c 0
 367 90 412 106 444 136 c 0
 475 168 496 216 506 283 c 2
 577 730 l 1
 685 730 l 1
 612 270 l 2
 597 179 563 109 509 62 c 0
 455 14 383 -10 293 -10 c 0
 204 -10 140 14 100 62 c 0
EndSplineSet
EndChar

StartChar: Uacute
Encoding: 218 218 161
Width: 704
Flags: W
LayerCount: 2
Fore
SplineSet
100 62 m 0
 62 109 49 179 63 270 c 2
 136 730 l 1
 244 730 l 1
 173 283 l 2
 162 216 168 168 190 136 c 0
 211 106 251 90 309 90 c 0
 367 90 412 106 444 136 c 0
 475 168 496 216 506 283 c 2
 577 730 l 1
 685 730 l 1
 612 270 l 2
 597 179 563 109 509 62 c 0
 455 14 383 -10 293 -10 c 0
 204 -10 140 14 100 62 c 0
460 770 m 1
 352 770 l 1
 478 980 l 1
 616 980 l 1
 460 770 l 1
EndSplineSet
EndChar

StartChar: Ubreve
Encoding: 364 364 162
Width: 704
Flags: W
LayerCount: 2
Fore
SplineSet
100 62 m 0
 62 109 49 179 63 270 c 2
 136 730 l 1
 244 730 l 1
 173 283 l 2
 162 216 168 168 190 136 c 0
 211 106 251 90 309 90 c 0
 367 90 412 106 444 136 c 0
 475 168 496 216 506 283 c 2
 577 730 l 1
 685 730 l 1
 612 270 l 2
 597 179 563 109 509 62 c 0
 455 14 383 -10 293 -10 c 0
 204 -10 140 14 100 62 c 0
318 804 m 0
 291 819 270 839 256 865 c 0
 243 891 238 920 241 953 c 1
 356 953 l 1
 355 926 360 905 372 890 c 0
 385 876 404 869 429 869 c 0
 454 869 474 876 492 890 c 0
 508 905 521 926 528 953 c 1
 643 953 l 1
 636 920 621 891 600 865 c 0
 578 839 551 819 519 804 c 0
 487 790 452 783 415 783 c 0
 378 783 345 790 318 804 c 0
EndSplineSet
EndChar

StartChar: Ucircumflex
Encoding: 219 219 163
Width: 704
Flags: W
LayerCount: 2
Fore
SplineSet
100 62 m 0
 62 109 49 179 63 270 c 2
 136 730 l 1
 244 730 l 1
 173 283 l 2
 162 216 168 168 190 136 c 0
 211 106 251 90 309 90 c 0
 367 90 412 106 444 136 c 0
 475 168 496 216 506 283 c 2
 577 730 l 1
 685 730 l 1
 612 270 l 2
 597 179 563 109 509 62 c 0
 455 14 383 -10 293 -10 c 0
 204 -10 140 14 100 62 c 0
354 980 m 1
 544 980 l 1
 633 770 l 1
 505 770 l 1
 443 930 l 1
 441 930 l 1
 327 770 l 1
 200 770 l 1
 354 980 l 1
EndSplineSet
EndChar

StartChar: uni0214
Encoding: 532 532 164
Width: 704
Flags: W
LayerCount: 2
Fore
SplineSet
100 62 m 0
 62 109 49 179 63 270 c 2
 136 730 l 1
 244 730 l 1
 173 283 l 2
 162 216 168 168 190 136 c 0
 211 106 251 90 309 90 c 0
 367 90 412 106 444 136 c 0
 475 168 496 216 506 283 c 2
 577 730 l 1
 685 730 l 1
 612 270 l 2
 597 179 563 109 509 62 c 0
 455 14 383 -10 293 -10 c 0
 204 -10 140 14 100 62 c 0
181 980 m 1
 318 980 l 1
 378 770 l 1
 270 770 l 1
 181 980 l 1
401 980 m 1
 539 980 l 1
 598 770 l 1
 491 770 l 1
 401 980 l 1
EndSplineSet
EndChar

StartChar: Udieresis
Encoding: 220 220 165
Width: 704
Flags: W
LayerCount: 2
Fore
SplineSet
100 62 m 0
 62 109 49 179 63 270 c 2
 136 730 l 1
 244 730 l 1
 173 283 l 2
 162 216 168 168 190 136 c 0
 211 106 251 90 309 90 c 0
 367 90 412 106 444 136 c 0
 475 168 496 216 506 283 c 2
 577 730 l 1
 685 730 l 1
 612 270 l 2
 597 179 563 109 509 62 c 0
 455 14 383 -10 293 -10 c 0
 204 -10 140 14 100 62 c 0
252 938 m 1
 376 938 l 1
 356 812 l 1
 232 812 l 1
 252 938 l 1
501 938 m 1
 624 938 l 1
 604 812 l 1
 481 812 l 1
 501 938 l 1
EndSplineSet
EndChar

StartChar: uni1EE4
Encoding: 7908 7908 166
Width: 704
Flags: W
LayerCount: 2
Fore
SplineSet
100 62 m 0
 62 109 49 179 63 270 c 2
 136 730 l 1
 244 730 l 1
 173 283 l 2
 162 216 168 168 190 136 c 0
 211 106 251 90 309 90 c 0
 367 90 412 106 444 136 c 0
 475 168 496 216 506 283 c 2
 577 730 l 1
 685 730 l 1
 612 270 l 2
 597 179 563 109 509 62 c 0
 455 14 383 -10 293 -10 c 0
 204 -10 140 14 100 62 c 0
245 -82 m 1
 369 -82 l 1
 349 -208 l 1
 225 -208 l 1
 245 -82 l 1
EndSplineSet
EndChar

StartChar: Ugrave
Encoding: 217 217 167
Width: 704
Flags: W
LayerCount: 2
Fore
SplineSet
100 62 m 0
 62 109 49 179 63 270 c 2
 136 730 l 1
 244 730 l 1
 173 283 l 2
 162 216 168 168 190 136 c 0
 211 106 251 90 309 90 c 0
 367 90 412 106 444 136 c 0
 475 168 496 216 506 283 c 2
 577 730 l 1
 685 730 l 1
 612 270 l 2
 597 179 563 109 509 62 c 0
 455 14 383 -10 293 -10 c 0
 204 -10 140 14 100 62 c 0
272 980 m 1
 409 980 l 1
 469 770 l 1
 361 770 l 1
 272 980 l 1
EndSplineSet
EndChar

StartChar: uni1EE6
Encoding: 7910 7910 168
Width: 704
Flags: W
LayerCount: 2
Fore
SplineSet
100 62 m 0
 62 109 49 179 63 270 c 2
 136 730 l 1
 244 730 l 1
 173 283 l 2
 162 216 168 168 190 136 c 0
 211 106 251 90 309 90 c 0
 367 90 412 106 444 136 c 0
 475 168 496 216 506 283 c 2
 577 730 l 1
 685 730 l 1
 612 270 l 2
 597 179 563 109 509 62 c 0
 455 14 383 -10 293 -10 c 0
 204 -10 140 14 100 62 c 0
504 826 m 0
 509 840 512 850 513 859 c 0
 515 874 512 884 503 888 c 0
 494 894 477 896 452 896 c 0
 410 896 369 890 328 878 c 1
 332 965 l 1
 383 977 436 983 491 983 c 0
 532 983 563 980 584 976 c 0
 605 970 620 962 628 950 c 0
 635 939 637 922 634 900 c 0
 631 884 627 866 620 846 c 0
 613 826 606 808 598 793 c 1
 490 793 l 1
 495 802 499 814 504 826 c 0
EndSplineSet
EndChar

StartChar: Uhorn
Encoding: 431 431 169
Width: 784
Flags: W
LayerCount: 2
Fore
SplineSet
881 720 m 0
 874 675 857 639 832 614 c 0
 806 588 773 575 733 575 c 0
 710 575 687 580 663 589 c 1
 612 270 l 2
 597 179 563 109 509 62 c 0
 455 14 383 -10 293 -10 c 0
 204 -10 140 14 100 62 c 0
 62 109 49 179 63 270 c 2
 136 730 l 1
 244 730 l 1
 173 283 l 2
 162 216 168 168 190 136 c 0
 211 106 251 90 309 90 c 0
 367 90 412 106 444 136 c 0
 475 168 496 216 506 283 c 2
 577 730 l 1
 685 730 l 1
 677 677 l 1
 686 671 696 668 709 668 c 0
 726 668 740 674 752 686 c 0
 763 697 771 713 774 734 c 0
 777 749 778 768 776 789 c 0
 776 810 773 827 770 840 c 1
 881 840 l 1
 887 799 887 759 881 720 c 0
EndSplineSet
EndChar

StartChar: uni1EE8
Encoding: 7912 7912 170
Width: 804
Flags: W
LayerCount: 2
Fore
SplineSet
881 720 m 0
 874 675 857 639 832 614 c 0
 806 588 773 575 733 575 c 0
 710 575 687 580 663 589 c 1
 612 270 l 2
 597 179 563 109 509 62 c 0
 455 14 383 -10 293 -10 c 0
 204 -10 140 14 100 62 c 0
 62 109 49 179 63 270 c 2
 136 730 l 1
 244 730 l 1
 173 283 l 2
 162 216 168 168 190 136 c 0
 211 106 251 90 309 90 c 0
 367 90 412 106 444 136 c 0
 475 168 496 216 506 283 c 2
 577 730 l 1
 685 730 l 1
 677 677 l 1
 686 671 696 668 709 668 c 0
 726 668 740 674 752 686 c 0
 763 697 771 713 774 734 c 0
 777 749 778 768 776 789 c 0
 776 810 773 827 770 840 c 1
 881 840 l 1
 887 799 887 759 881 720 c 0
460 770 m 1
 352 770 l 1
 478 980 l 1
 616 980 l 1
 460 770 l 1
EndSplineSet
EndChar

StartChar: uni1EF0
Encoding: 7920 7920 171
Width: 804
Flags: W
LayerCount: 2
Fore
SplineSet
881 720 m 0
 874 675 857 639 832 614 c 0
 806 588 773 575 733 575 c 0
 710 575 687 580 663 589 c 1
 612 270 l 2
 597 179 563 109 509 62 c 0
 455 14 383 -10 293 -10 c 0
 204 -10 140 14 100 62 c 0
 62 109 49 179 63 270 c 2
 136 730 l 1
 244 730 l 1
 173 283 l 2
 162 216 168 168 190 136 c 0
 211 106 251 90 309 90 c 0
 367 90 412 106 444 136 c 0
 475 168 496 216 506 283 c 2
 577 730 l 1
 685 730 l 1
 677 677 l 1
 686 671 696 668 709 668 c 0
 726 668 740 674 752 686 c 0
 763 697 771 713 774 734 c 0
 777 749 778 768 776 789 c 0
 776 810 773 827 770 840 c 1
 881 840 l 1
 887 799 887 759 881 720 c 0
245 -82 m 1
 369 -82 l 1
 349 -208 l 1
 225 -208 l 1
 245 -82 l 1
EndSplineSet
EndChar

StartChar: uni1EEA
Encoding: 7914 7914 172
Width: 804
Flags: W
LayerCount: 2
Fore
SplineSet
881 720 m 0
 874 675 857 639 832 614 c 0
 806 588 773 575 733 575 c 0
 710 575 687 580 663 589 c 1
 612 270 l 2
 597 179 563 109 509 62 c 0
 455 14 383 -10 293 -10 c 0
 204 -10 140 14 100 62 c 0
 62 109 49 179 63 270 c 2
 136 730 l 1
 244 730 l 1
 173 283 l 2
 162 216 168 168 190 136 c 0
 211 106 251 90 309 90 c 0
 367 90 412 106 444 136 c 0
 475 168 496 216 506 283 c 2
 577 730 l 1
 685 730 l 1
 677 677 l 1
 686 671 696 668 709 668 c 0
 726 668 740 674 752 686 c 0
 763 697 771 713 774 734 c 0
 777 749 778 768 776 789 c 0
 776 810 773 827 770 840 c 1
 881 840 l 1
 887 799 887 759 881 720 c 0
272 980 m 1
 409 980 l 1
 469 770 l 1
 361 770 l 1
 272 980 l 1
EndSplineSet
EndChar

StartChar: uni1EEC
Encoding: 7916 7916 173
Width: 804
Flags: W
LayerCount: 2
Fore
SplineSet
881 720 m 0
 874 675 857 639 832 614 c 0
 806 588 773 575 733 575 c 0
 710 575 687 580 663 589 c 1
 612 270 l 2
 597 179 563 109 509 62 c 0
 455 14 383 -10 293 -10 c 0
 204 -10 140 14 100 62 c 0
 62 109 49 179 63 270 c 2
 136 730 l 1
 244 730 l 1
 173 283 l 2
 162 216 168 168 190 136 c 0
 211 106 251 90 309 90 c 0
 367 90 412 106 444 136 c 0
 475 168 496 216 506 283 c 2
 577 730 l 1
 685 730 l 1
 677 677 l 1
 686 671 696 668 709 668 c 0
 726 668 740 674 752 686 c 0
 763 697 771 713 774 734 c 0
 777 749 778 768 776 789 c 0
 776 810 773 827 770 840 c 1
 881 840 l 1
 887 799 887 759 881 720 c 0
504 826 m 0
 509 840 512 850 513 859 c 0
 515 874 512 884 503 888 c 0
 494 894 477 896 452 896 c 0
 410 896 369 890 328 878 c 1
 332 965 l 1
 383 977 436 983 491 983 c 0
 532 983 563 980 584 976 c 0
 605 970 620 962 628 950 c 0
 635 939 637 922 634 900 c 0
 631 884 627 866 620 846 c 0
 613 826 606 808 598 793 c 1
 490 793 l 1
 495 802 499 814 504 826 c 0
EndSplineSet
EndChar

StartChar: uni1EEE
Encoding: 7918 7918 174
Width: 804
Flags: W
LayerCount: 2
Fore
SplineSet
881 720 m 0
 874 675 857 639 832 614 c 0
 806 588 773 575 733 575 c 0
 710 575 687 580 663 589 c 1
 612 270 l 2
 597 179 563 109 509 62 c 0
 455 14 383 -10 293 -10 c 0
 204 -10 140 14 100 62 c 0
 62 109 49 179 63 270 c 2
 136 730 l 1
 244 730 l 1
 173 283 l 2
 162 216 168 168 190 136 c 0
 211 106 251 90 309 90 c 0
 367 90 412 106 444 136 c 0
 475 168 496 216 506 283 c 2
 577 730 l 1
 685 730 l 1
 677 677 l 1
 686 671 696 668 709 668 c 0
 726 668 740 674 752 686 c 0
 763 697 771 713 774 734 c 0
 777 749 778 768 776 789 c 0
 776 810 773 827 770 840 c 1
 881 840 l 1
 887 799 887 759 881 720 c 0
476 796 m 0
 460 803 440 814 416 829 c 0
 388 848 367 857 353 857 c 0
 343 857 335 852 330 844 c 0
 324 834 319 819 315 797 c 1
 217 797 l 1
 226 854 241 896 260 923 c 0
 280 950 306 963 338 963 c 0
 354 963 370 960 386 954 c 0
 403 947 423 936 446 921 c 0
 474 902 495 893 508 893 c 0
 518 893 526 898 532 907 c 0
 538 916 543 932 546 953 c 1
 644 953 l 1
 635 896 620 854 601 827 c 0
 582 800 556 787 524 787 c 0
 509 787 493 790 476 796 c 0
EndSplineSet
EndChar

StartChar: Uhungarumlaut
Encoding: 368 368 175
Width: 704
Flags: W
LayerCount: 2
Fore
SplineSet
100 62 m 0
 62 109 49 179 63 270 c 2
 136 730 l 1
 244 730 l 1
 173 283 l 2
 162 216 168 168 190 136 c 0
 211 106 251 90 309 90 c 0
 367 90 412 106 444 136 c 0
 475 168 496 216 506 283 c 2
 577 730 l 1
 685 730 l 1
 612 270 l 2
 597 179 563 109 509 62 c 0
 455 14 383 -10 293 -10 c 0
 204 -10 140 14 100 62 c 0
350 770 m 1
 242 770 l 1
 368 980 l 1
 506 980 l 1
 350 770 l 1
575 770 m 1
 467 770 l 1
 593 980 l 1
 731 980 l 1
 575 770 l 1
EndSplineSet
EndChar

StartChar: uni0216
Encoding: 534 534 176
Width: 704
Flags: W
LayerCount: 2
Fore
SplineSet
100 62 m 0
 62 109 49 179 63 270 c 2
 136 730 l 1
 244 730 l 1
 173 283 l 2
 162 216 168 168 190 136 c 0
 211 106 251 90 309 90 c 0
 367 90 412 106 444 136 c 0
 475 168 496 216 506 283 c 2
 577 730 l 1
 685 730 l 1
 612 270 l 2
 597 179 563 109 509 62 c 0
 455 14 383 -10 293 -10 c 0
 204 -10 140 14 100 62 c 0
541 946 m 0
 568 931 589 911 602 885 c 0
 616 859 621 830 618 797 c 1
 504 797 l 1
 505 824 500 845 487 860 c 0
 474 874 456 881 431 881 c 0
 406 881 385 874 368 860 c 0
 351 845 338 824 331 797 c 1
 216 797 l 1
 223 830 238 859 260 885 c 0
 281 911 308 931 340 946 c 0
 372 960 407 967 444 967 c 0
 481 967 514 960 541 946 c 0
EndSplineSet
EndChar

StartChar: Umacron
Encoding: 362 362 177
Width: 704
Flags: W
LayerCount: 2
Fore
SplineSet
100 62 m 0
 62 109 49 179 63 270 c 2
 136 730 l 1
 244 730 l 1
 173 283 l 2
 162 216 168 168 190 136 c 0
 211 106 251 90 309 90 c 0
 367 90 412 106 444 136 c 0
 475 168 496 216 506 283 c 2
 577 730 l 1
 685 730 l 1
 612 270 l 2
 597 179 563 109 509 62 c 0
 455 14 383 -10 293 -10 c 0
 204 -10 140 14 100 62 c 0
250 918 m 1
 620 918 l 1
 606 832 l 1
 236 832 l 1
 250 918 l 1
EndSplineSet
EndChar

StartChar: Uogonek
Encoding: 370 370 178
Width: 679
Flags: W
LayerCount: 2
Fore
SplineSet
350 -38 m 0
 334 -55 324 -70 322 -83 c 0
 320 -95 324 -104 334 -110 c 0
 345 -117 361 -120 383 -120 c 0
 414 -120 444 -114 473 -101 c 1
 476 -186 l 1
 441 -200 402 -207 360 -207 c 0
 310 -207 273 -198 248 -180 c 0
 223 -161 214 -135 219 -102 c 0
 224 -70 242 -39 272 -10 c 1
 189 -6 130 20 95 67 c 0
 60 114 49 182 63 270 c 2
 136 730 l 1
 244 730 l 1
 173 283 l 2
 162 216 168 168 190 136 c 0
 211 106 251 90 309 90 c 0
 367 90 412 106 444 136 c 0
 475 168 496 216 506 283 c 2
 577 730 l 1
 685 730 l 1
 612 270 l 2
 601 203 580 147 548 103 c 0
 515 59 472 28 419 9 c 1
 390 -6 368 -22 350 -38 c 0
EndSplineSet
EndChar

StartChar: Uring
Encoding: 366 366 179
Width: 704
Flags: W
LayerCount: 2
Fore
SplineSet
100 62 m 0
 62 109 49 179 63 270 c 2
 136 730 l 1
 244 730 l 1
 173 283 l 2
 162 216 168 168 190 136 c 0
 211 106 251 90 309 90 c 0
 367 90 412 106 444 136 c 0
 475 168 496 216 506 283 c 2
 577 730 l 1
 685 730 l 1
 612 270 l 2
 597 179 563 109 509 62 c 0
 455 14 383 -10 293 -10 c 0
 204 -10 140 14 100 62 c 0
328 745 m 0
 307 758 292 776 283 800 c 0
 274 822 271 848 275 875 c 0
 279 902 290 928 306 950 c 0
 324 974 344 992 369 1005 c 0
 394 1018 419 1025 446 1025 c 0
 473 1025 496 1018 517 1005 c 0
 538 992 553 974 562 950 c 0
 571 928 574 902 569 875 c 0
 565 848 555 822 538 800 c 0
 521 776 501 758 476 745 c 0
 451 732 426 725 399 725 c 0
 372 725 348 732 328 745 c 0
463 826 m 0
 478 839 488 856 491 875 c 0
 494 894 490 911 479 924 c 0
 468 938 452 945 433 945 c 0
 414 945 397 938 382 924 c 0
 366 911 357 894 354 875 c 0
 351 856 355 839 366 826 c 0
 377 812 392 805 411 805 c 0
 430 805 448 812 463 826 c 0
EndSplineSet
EndChar

StartChar: Utilde
Encoding: 360 360 180
Width: 704
Flags: W
LayerCount: 2
Fore
SplineSet
100 62 m 0
 62 109 49 179 63 270 c 2
 136 730 l 1
 244 730 l 1
 173 283 l 2
 162 216 168 168 190 136 c 0
 211 106 251 90 309 90 c 0
 367 90 412 106 444 136 c 0
 475 168 496 216 506 283 c 2
 577 730 l 1
 685 730 l 1
 612 270 l 2
 597 179 563 109 509 62 c 0
 455 14 383 -10 293 -10 c 0
 204 -10 140 14 100 62 c 0
476 796 m 0
 460 803 440 814 416 829 c 0
 388 848 367 857 353 857 c 0
 343 857 335 852 330 844 c 0
 324 834 319 819 315 797 c 1
 217 797 l 1
 226 854 241 896 260 923 c 0
 280 950 306 963 338 963 c 0
 354 963 370 960 386 954 c 0
 403 947 423 936 446 921 c 0
 474 902 495 893 508 893 c 0
 518 893 526 898 532 907 c 0
 538 916 543 932 546 953 c 1
 644 953 l 1
 635 896 620 854 601 827 c 0
 582 800 556 787 524 787 c 0
 509 787 493 790 476 796 c 0
EndSplineSet
EndChar

StartChar: V
Encoding: 86 86 181
Width: 658
Flags: W
LayerCount: 2
Fore
SplineSet
82 730 m 1
 200 730 l 1
 301 110 l 1
 303 110 l 1
 600 730 l 1
 719 730 l 1
 356 0 l 1
 214 0 l 1
 82 730 l 1
EndSplineSet
EndChar

StartChar: W
Encoding: 87 87 182
Width: 908
Flags: W
LayerCount: 2
Fore
SplineSet
205 730 m 1
 235 120 l 1
 237 120 l 1
 460 730 l 1
 597 730 l 1
 627 120 l 1
 629 120 l 1
 852 730 l 1
 958 730 l 1
 670 0 l 1
 538 0 l 1
 508 610 l 1
 506 610 l 1
 283 0 l 1
 151 0 l 1
 95 730 l 1
 205 730 l 1
EndSplineSet
EndChar

StartChar: Wacute
Encoding: 7810 7810 183
Width: 931
Flags: W
LayerCount: 2
Fore
SplineSet
205 730 m 1
 235 120 l 1
 237 120 l 1
 460 730 l 1
 597 730 l 1
 627 120 l 1
 629 120 l 1
 852 730 l 1
 958 730 l 1
 670 0 l 1
 538 0 l 1
 508 610 l 1
 506 610 l 1
 283 0 l 1
 151 0 l 1
 95 730 l 1
 205 730 l 1
573 770 m 1
 465 770 l 1
 591 980 l 1
 729 980 l 1
 573 770 l 1
EndSplineSet
EndChar

StartChar: Wcircumflex
Encoding: 372 372 184
Width: 931
Flags: W
LayerCount: 2
Fore
SplineSet
205 730 m 1
 235 120 l 1
 237 120 l 1
 460 730 l 1
 597 730 l 1
 627 120 l 1
 629 120 l 1
 852 730 l 1
 958 730 l 1
 670 0 l 1
 538 0 l 1
 508 610 l 1
 506 610 l 1
 283 0 l 1
 151 0 l 1
 95 730 l 1
 205 730 l 1
467 980 m 1
 657 980 l 1
 746 770 l 1
 618 770 l 1
 556 930 l 1
 554 930 l 1
 440 770 l 1
 313 770 l 1
 467 980 l 1
EndSplineSet
EndChar

StartChar: Wdieresis
Encoding: 7812 7812 185
Width: 931
Flags: W
LayerCount: 2
Fore
SplineSet
205 730 m 1
 235 120 l 1
 237 120 l 1
 460 730 l 1
 597 730 l 1
 627 120 l 1
 629 120 l 1
 852 730 l 1
 958 730 l 1
 670 0 l 1
 538 0 l 1
 508 610 l 1
 506 610 l 1
 283 0 l 1
 151 0 l 1
 95 730 l 1
 205 730 l 1
365 938 m 1
 489 938 l 1
 469 812 l 1
 345 812 l 1
 365 938 l 1
614 938 m 1
 737 938 l 1
 717 812 l 1
 594 812 l 1
 614 938 l 1
EndSplineSet
EndChar

StartChar: Wgrave
Encoding: 7808 7808 186
Width: 931
Flags: W
LayerCount: 2
Fore
SplineSet
205 730 m 1
 235 120 l 1
 237 120 l 1
 460 730 l 1
 597 730 l 1
 627 120 l 1
 629 120 l 1
 852 730 l 1
 958 730 l 1
 670 0 l 1
 538 0 l 1
 508 610 l 1
 506 610 l 1
 283 0 l 1
 151 0 l 1
 95 730 l 1
 205 730 l 1
385 980 m 1
 522 980 l 1
 582 770 l 1
 474 770 l 1
 385 980 l 1
EndSplineSet
EndChar

StartChar: X
Encoding: 88 88 187
Width: 668
Flags: W
LayerCount: 2
Fore
SplineSet
268 367 m 1
 114 730 l 1
 236 730 l 1
 356 431 l 1
 358 431 l 1
 573 730 l 1
 696 730 l 1
 427 367 l 1
 583 0 l 1
 461 0 l 1
 338 304 l 1
 336 304 l 1
 118 0 l 1
 -5 0 l 1
 268 367 l 1
EndSplineSet
EndChar

StartChar: Y
Encoding: 89 89 188
Width: 639
Flags: W
LayerCount: 2
Fore
SplineSet
266 294 m 1
 77 730 l 1
 200 730 l 1
 337 396 l 1
 339 396 l 1
 581 730 l 1
 704 730 l 1
 377 294 l 1
 331 0 l 1
 219 0 l 1
 266 294 l 1
EndSplineSet
EndChar

StartChar: Yacute
Encoding: 221 221 189
Width: 654
Flags: W
LayerCount: 2
Fore
SplineSet
266 294 m 1
 77 730 l 1
 200 730 l 1
 337 396 l 1
 339 396 l 1
 581 730 l 1
 704 730 l 1
 377 294 l 1
 331 0 l 1
 219 0 l 1
 266 294 l 1
435 770 m 1
 327 770 l 1
 453 980 l 1
 591 980 l 1
 435 770 l 1
EndSplineSet
EndChar

StartChar: Ycircumflex
Encoding: 374 374 190
Width: 654
Flags: W
LayerCount: 2
Fore
SplineSet
266 294 m 1
 77 730 l 1
 200 730 l 1
 337 396 l 1
 339 396 l 1
 581 730 l 1
 704 730 l 1
 377 294 l 1
 331 0 l 1
 219 0 l 1
 266 294 l 1
329 980 m 1
 519 980 l 1
 608 770 l 1
 480 770 l 1
 418 930 l 1
 416 930 l 1
 302 770 l 1
 175 770 l 1
 329 980 l 1
EndSplineSet
EndChar

StartChar: Ydieresis
Encoding: 376 376 191
Width: 654
Flags: W
LayerCount: 2
Fore
SplineSet
266 294 m 1
 77 730 l 1
 200 730 l 1
 337 396 l 1
 339 396 l 1
 581 730 l 1
 704 730 l 1
 377 294 l 1
 331 0 l 1
 219 0 l 1
 266 294 l 1
227 938 m 1
 351 938 l 1
 331 812 l 1
 207 812 l 1
 227 938 l 1
476 938 m 1
 599 938 l 1
 579 812 l 1
 456 812 l 1
 476 938 l 1
EndSplineSet
EndChar

StartChar: uni1EF4
Encoding: 7924 7924 192
Width: 654
Flags: W
LayerCount: 2
Fore
SplineSet
266 294 m 1
 77 730 l 1
 200 730 l 1
 337 396 l 1
 339 396 l 1
 581 730 l 1
 704 730 l 1
 377 294 l 1
 331 0 l 1
 219 0 l 1
 266 294 l 1
220 -82 m 1
 344 -82 l 1
 324 -208 l 1
 200 -208 l 1
 220 -82 l 1
EndSplineSet
EndChar

StartChar: Ygrave
Encoding: 7922 7922 193
Width: 654
Flags: W
LayerCount: 2
Fore
SplineSet
266 294 m 1
 77 730 l 1
 200 730 l 1
 337 396 l 1
 339 396 l 1
 581 730 l 1
 704 730 l 1
 377 294 l 1
 331 0 l 1
 219 0 l 1
 266 294 l 1
247 980 m 1
 384 980 l 1
 444 770 l 1
 336 770 l 1
 247 980 l 1
EndSplineSet
EndChar

StartChar: uni1EF6
Encoding: 7926 7926 194
Width: 654
Flags: W
LayerCount: 2
Fore
SplineSet
266 294 m 1
 77 730 l 1
 200 730 l 1
 337 396 l 1
 339 396 l 1
 581 730 l 1
 704 730 l 1
 377 294 l 1
 331 0 l 1
 219 0 l 1
 266 294 l 1
479 826 m 0
 484 840 487 850 488 859 c 0
 490 874 487 884 478 888 c 0
 469 894 452 896 427 896 c 0
 385 896 344 890 303 878 c 1
 307 965 l 1
 358 977 411 983 466 983 c 0
 507 983 538 980 559 976 c 0
 580 970 595 962 602 950 c 0
 610 939 612 922 609 900 c 0
 606 884 602 866 595 846 c 0
 588 826 581 808 573 793 c 1
 465 793 l 1
 470 802 474 814 479 826 c 0
EndSplineSet
EndChar

StartChar: uni0232
Encoding: 562 562 195
Width: 654
Flags: W
LayerCount: 2
Fore
SplineSet
266 294 m 1
 77 730 l 1
 200 730 l 1
 337 396 l 1
 339 396 l 1
 581 730 l 1
 704 730 l 1
 377 294 l 1
 331 0 l 1
 219 0 l 1
 266 294 l 1
225 918 m 1
 595 918 l 1
 581 832 l 1
 211 832 l 1
 225 918 l 1
EndSplineSet
EndChar

StartChar: uni1EF8
Encoding: 7928 7928 196
Width: 654
Flags: W
LayerCount: 2
Fore
SplineSet
266 294 m 1
 77 730 l 1
 200 730 l 1
 337 396 l 1
 339 396 l 1
 581 730 l 1
 704 730 l 1
 377 294 l 1
 331 0 l 1
 219 0 l 1
 266 294 l 1
452 796 m 0
 435 803 415 814 391 829 c 0
 363 848 342 857 328 857 c 0
 318 857 310 852 304 844 c 0
 299 834 294 819 290 797 c 1
 192 797 l 1
 201 854 216 896 236 923 c 0
 255 950 281 963 313 963 c 0
 329 963 345 960 362 954 c 0
 378 947 398 936 421 921 c 0
 449 902 470 893 483 893 c 0
 493 893 501 898 507 907 c 0
 513 916 518 932 521 953 c 1
 619 953 l 1
 610 896 595 854 576 827 c 0
 557 800 531 787 499 787 c 0
 484 787 468 790 452 796 c 0
EndSplineSet
EndChar

StartChar: Z
Encoding: 90 90 197
Width: 616
Flags: W
LayerCount: 2
Fore
SplineSet
29 100 m 1
 480 628 l 1
 481 630 l 1
 113 630 l 1
 129 730 l 1
 629 730 l 1
 613 630 l 1
 162 102 l 1
 161 100 l 1
 529 100 l 1
 513 0 l 1
 13 0 l 1
 29 100 l 1
EndSplineSet
EndChar

StartChar: Zacute
Encoding: 377 377 198
Width: 638
Flags: W
LayerCount: 2
Fore
SplineSet
29 100 m 1
 480 628 l 1
 481 630 l 1
 113 630 l 1
 129 730 l 1
 629 730 l 1
 613 630 l 1
 162 102 l 1
 161 100 l 1
 529 100 l 1
 513 0 l 1
 13 0 l 1
 29 100 l 1
427 770 m 1
 319 770 l 1
 445 980 l 1
 583 980 l 1
 427 770 l 1
EndSplineSet
EndChar

StartChar: Zcaron
Encoding: 381 381 199
Width: 638
Flags: W
LayerCount: 2
Fore
SplineSet
29 100 m 1
 480 628 l 1
 481 630 l 1
 113 630 l 1
 129 730 l 1
 629 730 l 1
 613 630 l 1
 162 102 l 1
 161 100 l 1
 529 100 l 1
 513 0 l 1
 13 0 l 1
 29 100 l 1
200 980 m 1
 327 980 l 1
 390 820 l 1
 392 820 l 1
 506 980 l 1
 633 980 l 1
 477 770 l 1
 288 770 l 1
 200 980 l 1
EndSplineSet
EndChar

StartChar: Zdotaccent
Encoding: 379 379 200
Width: 638
Flags: W
LayerCount: 2
Fore
SplineSet
29 100 m 1
 480 628 l 1
 481 630 l 1
 113 630 l 1
 129 730 l 1
 629 730 l 1
 613 630 l 1
 162 102 l 1
 161 100 l 1
 529 100 l 1
 513 0 l 1
 13 0 l 1
 29 100 l 1
373 938 m 1
 497 938 l 1
 477 812 l 1
 353 812 l 1
 373 938 l 1
EndSplineSet
EndChar

StartChar: a
Encoding: 97 97 201
Width: 513
Flags: W
LayerCount: 2
Fore
SplineSet
409 510 m 0
 435 496 452 474 460 444 c 0
 469 415 469 375 461 325 c 2
 410 0 l 1
 313 0 l 1
 323 69 l 1
 321 69 l 1
 300 44 273 25 242 11 c 0
 210 -3 176 -10 141 -10 c 0
 91 -10 54 4 30 32 c 0
 5 60 -3 98 4 145 c 0
 14 207 47 255 102 288 c 0
 157 321 231 338 323 338 c 2
 362 338 l 1
 367 377 364 404 352 418 c 0
 339 433 314 440 276 440 c 0
 213 440 150 426 88 397 c 1
 74 481 l 1
 143 514 217 530 298 530 c 0
 346 530 383 523 409 510 c 0
251 96 m 0
 274 107 294 123 310 142 c 0
 327 161 337 182 340 203 c 2
 348 253 l 1
 309 253 l 2
 248 253 201 244 166 228 c 0
 132 210 112 186 107 154 c 0
 104 131 109 113 122 99 c 0
 135 85 155 78 181 78 c 0
 204 78 228 84 251 96 c 0
EndSplineSet
EndChar

StartChar: aacute
Encoding: 225 225 202
Width: 547
Flags: W
LayerCount: 2
Fore
SplineSet
409 510 m 0
 435 496 452 474 460 444 c 0
 469 415 469 375 461 325 c 2
 410 0 l 1
 313 0 l 1
 323 69 l 1
 321 69 l 1
 300 44 273 25 242 11 c 0
 210 -3 176 -10 141 -10 c 0
 91 -10 54 4 30 32 c 0
 5 60 -3 98 4 145 c 0
 14 207 47 255 102 288 c 0
 157 321 231 338 323 338 c 2
 362 338 l 1
 367 377 364 404 352 418 c 0
 339 433 314 440 276 440 c 0
 213 440 150 426 88 397 c 1
 74 481 l 1
 143 514 217 530 298 530 c 0
 346 530 383 523 409 510 c 0
251 96 m 0
 274 107 294 123 310 142 c 0
 327 161 337 182 340 203 c 2
 348 253 l 1
 309 253 l 2
 248 253 201 244 166 228 c 0
 132 210 112 186 107 154 c 0
 104 131 109 113 122 99 c 0
 135 85 155 78 181 78 c 0
 204 78 228 84 251 96 c 0
335 560 m 1
 227 560 l 1
 353 770 l 1
 491 770 l 1
 335 560 l 1
EndSplineSet
EndChar

StartChar: abreve
Encoding: 259 259 203
Width: 547
Flags: W
LayerCount: 2
Fore
SplineSet
409 510 m 0
 435 496 452 474 460 444 c 0
 469 415 469 375 461 325 c 2
 410 0 l 1
 313 0 l 1
 323 69 l 1
 321 69 l 1
 300 44 273 25 242 11 c 0
 210 -3 176 -10 141 -10 c 0
 91 -10 54 4 30 32 c 0
 5 60 -3 98 4 145 c 0
 14 207 47 255 102 288 c 0
 157 321 231 338 323 338 c 2
 362 338 l 1
 367 377 364 404 352 418 c 0
 339 433 314 440 276 440 c 0
 213 440 150 426 88 397 c 1
 74 481 l 1
 143 514 217 530 298 530 c 0
 346 530 383 523 409 510 c 0
251 96 m 0
 274 107 294 123 310 142 c 0
 327 161 337 182 340 203 c 2
 348 253 l 1
 309 253 l 2
 248 253 201 244 166 228 c 0
 132 210 112 186 107 154 c 0
 104 131 109 113 122 99 c 0
 135 85 155 78 181 78 c 0
 204 78 228 84 251 96 c 0
193 594 m 0
 166 609 145 629 132 655 c 0
 118 681 113 710 116 743 c 1
 231 743 l 1
 230 716 235 695 248 680 c 0
 260 666 279 659 304 659 c 0
 329 659 350 666 366 680 c 0
 384 695 396 716 403 743 c 1
 518 743 l 1
 511 710 496 681 474 655 c 0
 453 629 426 609 394 594 c 0
 362 580 327 573 290 573 c 0
 253 573 220 580 193 594 c 0
EndSplineSet
EndChar

StartChar: uni1EAF
Encoding: 7855 7855 204
Width: 513
Flags: W
LayerCount: 2
Fore
SplineSet
197 594 m 0
 170 609 151 629 138 655 c 0
 125 681 121 710 124 743 c 1
 228 743 l 1
 344 940 l 1
 477 940 l 1
 325 730 l 1
 234 730 l 1
 236 683 259 659 304 659 c 0
 328 659 348 666 365 680 c 0
 382 695 394 716 401 743 c 1
 511 743 l 1
 504 710 490 681 468 655 c 0
 448 629 422 609 390 594 c 0
 360 580 326 573 290 573 c 0
 255 573 224 580 197 594 c 0
409 510 m 0
 435 496 452 474 460 444 c 0
 469 415 469 375 461 325 c 2
 410 0 l 1
 313 0 l 1
 323 69 l 1
 321 69 l 1
 300 44 273 25 242 11 c 0
 210 -3 176 -10 141 -10 c 0
 91 -10 54 4 30 32 c 0
 5 60 -3 98 4 145 c 0
 14 207 47 255 102 288 c 0
 157 321 231 338 323 338 c 2
 362 338 l 1
 367 377 364 404 352 418 c 0
 339 433 314 440 276 440 c 0
 213 440 150 426 88 397 c 1
 74 481 l 1
 143 514 217 530 298 530 c 0
 346 530 383 523 409 510 c 0
251 96 m 0
 274 107 294 123 310 142 c 0
 327 161 337 182 340 203 c 2
 348 253 l 1
 309 253 l 2
 248 253 201 244 166 228 c 0
 132 210 112 186 107 154 c 0
 104 131 109 113 122 99 c 0
 135 85 155 78 181 78 c 0
 204 78 228 84 251 96 c 0
EndSplineSet
EndChar

StartChar: uni1EB7
Encoding: 7863 7863 205
Width: 547
Flags: W
LayerCount: 2
Fore
SplineSet
409 510 m 0
 435 496 452 474 460 444 c 0
 469 415 469 375 461 325 c 2
 410 0 l 1
 313 0 l 1
 323 69 l 1
 321 69 l 1
 300 44 273 25 242 11 c 0
 210 -3 176 -10 141 -10 c 0
 91 -10 54 4 30 32 c 0
 5 60 -3 98 4 145 c 0
 14 207 47 255 102 288 c 0
 157 321 231 338 323 338 c 2
 362 338 l 1
 367 377 364 404 352 418 c 0
 339 433 314 440 276 440 c 0
 213 440 150 426 88 397 c 1
 74 481 l 1
 143 514 217 530 298 530 c 0
 346 530 383 523 409 510 c 0
251 96 m 0
 274 107 294 123 310 142 c 0
 327 161 337 182 340 203 c 2
 348 253 l 1
 309 253 l 2
 248 253 201 244 166 228 c 0
 132 210 112 186 107 154 c 0
 104 131 109 113 122 99 c 0
 135 85 155 78 181 78 c 0
 204 78 228 84 251 96 c 0
153 -82 m 1
 277 -82 l 1
 257 -208 l 1
 133 -208 l 1
 153 -82 l 1
193 594 m 0
 166 609 145 629 132 655 c 0
 118 681 113 710 116 743 c 1
 231 743 l 1
 230 716 235 695 248 680 c 0
 260 666 279 659 304 659 c 0
 329 659 350 666 366 680 c 0
 384 695 396 716 403 743 c 1
 518 743 l 1
 511 710 496 681 474 655 c 0
 453 629 426 609 394 594 c 0
 362 580 327 573 290 573 c 0
 253 573 220 580 193 594 c 0
EndSplineSet
EndChar

StartChar: uni1EB1
Encoding: 7857 7857 206
Width: 513
Flags: W
LayerCount: 2
Fore
SplineSet
397 730 m 1
 306 730 l 1
 221 940 l 1
 353 940 l 1
 407 743 l 1
 511 743 l 1
 504 710 490 681 468 655 c 0
 448 629 422 609 390 594 c 0
 360 580 326 573 290 573 c 0
 254 573 223 580 196 594 c 0
 170 609 151 629 138 655 c 0
 125 681 121 710 124 743 c 1
 234 743 l 1
 233 716 238 695 250 680 c 0
 262 666 280 659 304 659 c 0
 349 659 380 683 397 730 c 1
409 510 m 0
 435 496 452 474 460 444 c 0
 469 415 469 375 461 325 c 2
 410 0 l 1
 313 0 l 1
 323 69 l 1
 321 69 l 1
 300 44 273 25 242 11 c 0
 210 -3 176 -10 141 -10 c 0
 91 -10 54 4 30 32 c 0
 5 60 -3 98 4 145 c 0
 14 207 47 255 102 288 c 0
 157 321 231 338 323 338 c 2
 362 338 l 1
 367 377 364 404 352 418 c 0
 339 433 314 440 276 440 c 0
 213 440 150 426 88 397 c 1
 74 481 l 1
 143 514 217 530 298 530 c 0
 346 530 383 523 409 510 c 0
251 96 m 0
 274 107 294 123 310 142 c 0
 327 161 337 182 340 203 c 2
 348 253 l 1
 309 253 l 2
 248 253 201 244 166 228 c 0
 132 210 112 186 107 154 c 0
 104 131 109 113 122 99 c 0
 135 85 155 78 181 78 c 0
 204 78 228 84 251 96 c 0
EndSplineSet
EndChar

StartChar: uni1EB3
Encoding: 7859 7859 207
Width: 513
Flags: W
LayerCount: 2
Fore
SplineSet
397 733 m 1
 344 733 l 1
 349 742 353 754 358 766 c 0
 363 780 366 790 367 799 c 0
 369 814 366 824 358 828 c 0
 350 834 334 836 309 836 c 0
 268 836 228 830 188 818 c 1
 192 905 l 1
 241 917 293 923 346 923 c 0
 385 923 415 920 436 916 c 0
 457 910 471 902 478 890 c 0
 485 879 487 862 484 840 c 0
 482 826 478 810 472 792 c 0
 466 774 460 758 453 743 c 1
 511 743 l 1
 504 710 490 681 468 655 c 0
 448 629 422 609 390 594 c 0
 360 580 326 573 290 573 c 0
 254 573 223 580 196 594 c 0
 170 609 151 629 138 655 c 0
 125 681 121 710 124 743 c 1
 234 743 l 1
 233 716 238 695 250 680 c 0
 262 666 280 659 304 659 c 0
 349 659 380 684 397 733 c 1
408 510 m 0
 435 496 452 474 460 444 c 0
 468 415 468 375 460 325 c 2
 409 0 l 1
 312 0 l 1
 322 69 l 1
 320 69 l 1
 299 44 272 25 240 11 c 0
 209 -3 175 -10 140 -10 c 0
 90 -10 53 4 29 32 c 0
 5 60 -3 98 4 145 c 0
 14 207 46 255 102 288 c 0
 156 321 230 338 322 338 c 2
 361 338 l 1
 366 377 363 404 351 418 c 0
 339 433 314 440 276 440 c 0
 213 440 150 426 88 397 c 1
 74 481 l 1
 143 514 217 530 297 530 c 0
 345 530 382 523 408 510 c 0
250 96 m 0
 274 107 293 123 310 142 c 0
 326 161 336 182 340 203 c 2
 347 253 l 1
 309 253 l 2
 248 253 201 244 166 228 c 0
 132 210 112 186 107 154 c 0
 104 131 109 113 122 99 c 0
 135 85 155 78 180 78 c 0
 204 78 228 84 250 96 c 0
EndSplineSet
EndChar

StartChar: uni1EB5
Encoding: 7861 7861 208
Width: 547
Flags: W
LayerCount: 2
Fore
SplineSet
409 510 m 0
 435 496 452 474 460 444 c 0
 469 415 469 375 461 325 c 2
 410 0 l 1
 313 0 l 1
 323 69 l 1
 321 69 l 1
 300 44 273 25 242 11 c 0
 210 -3 176 -10 141 -10 c 0
 91 -10 54 4 30 32 c 0
 5 60 -3 98 4 145 c 0
 14 207 47 255 102 288 c 0
 157 321 231 338 323 338 c 2
 362 338 l 1
 367 377 364 404 352 418 c 0
 339 433 314 440 276 440 c 0
 213 440 150 426 88 397 c 1
 74 481 l 1
 143 514 217 530 298 530 c 0
 346 530 383 523 409 510 c 0
251 96 m 0
 274 107 294 123 310 142 c 0
 327 161 337 182 340 203 c 2
 348 253 l 1
 309 253 l 2
 248 253 201 244 166 228 c 0
 132 210 112 186 107 154 c 0
 104 131 109 113 122 99 c 0
 135 85 155 78 181 78 c 0
 204 78 228 84 251 96 c 0
193 594 m 0
 166 609 145 629 132 655 c 0
 118 681 113 710 116 743 c 1
 231 743 l 1
 230 716 235 695 248 680 c 0
 260 666 279 659 304 659 c 0
 329 659 350 666 366 680 c 0
 384 695 396 716 403 743 c 1
 518 743 l 1
 511 710 496 681 474 655 c 0
 453 629 426 609 394 594 c 0
 362 580 327 573 290 573 c 0
 253 573 220 580 193 594 c 0
384 796 m 0
 368 803 348 814 324 829 c 0
 296 848 275 857 261 857 c 0
 251 857 243 852 238 844 c 0
 232 834 227 819 223 797 c 1
 125 797 l 1
 134 854 149 896 168 923 c 0
 188 950 214 963 246 963 c 0
 262 963 278 960 294 954 c 0
 311 947 331 936 354 921 c 0
 382 902 403 893 416 893 c 0
 426 893 434 898 440 907 c 0
 446 916 451 932 454 953 c 1
 552 953 l 1
 543 896 528 854 509 827 c 0
 490 800 464 787 432 787 c 0
 417 787 401 790 384 796 c 0
EndSplineSet
EndChar

StartChar: acircumflex
Encoding: 226 226 209
Width: 547
Flags: W
LayerCount: 2
Fore
SplineSet
409 510 m 0
 435 496 452 474 460 444 c 0
 469 415 469 375 461 325 c 2
 410 0 l 1
 313 0 l 1
 323 69 l 1
 321 69 l 1
 300 44 273 25 242 11 c 0
 210 -3 176 -10 141 -10 c 0
 91 -10 54 4 30 32 c 0
 5 60 -3 98 4 145 c 0
 14 207 47 255 102 288 c 0
 157 321 231 338 323 338 c 2
 362 338 l 1
 367 377 364 404 352 418 c 0
 339 433 314 440 276 440 c 0
 213 440 150 426 88 397 c 1
 74 481 l 1
 143 514 217 530 298 530 c 0
 346 530 383 523 409 510 c 0
251 96 m 0
 274 107 294 123 310 142 c 0
 327 161 337 182 340 203 c 2
 348 253 l 1
 309 253 l 2
 248 253 201 244 166 228 c 0
 132 210 112 186 107 154 c 0
 104 131 109 113 122 99 c 0
 135 85 155 78 181 78 c 0
 204 78 228 84 251 96 c 0
229 770 m 1
 419 770 l 1
 508 560 l 1
 380 560 l 1
 318 720 l 1
 316 720 l 1
 202 560 l 1
 75 560 l 1
 229 770 l 1
EndSplineSet
EndChar

StartChar: uni1EA5
Encoding: 7845 7845 210
Width: 517
Flags: W
LayerCount: 2
Fore
SplineSet
313 720 m 1
 202 560 l 1
 79 560 l 1
 230 770 l 1
 410 770 l 1
 515 950 l 1
 647 950 l 1
 496 740 l 1
 425 740 l 1
 497 560 l 1
 375 560 l 1
 315 720 l 1
 313 720 l 1
409 510 m 0
 435 496 452 474 460 444 c 0
 469 415 469 375 461 325 c 2
 410 0 l 1
 313 0 l 1
 323 69 l 1
 321 69 l 1
 300 44 273 25 242 11 c 0
 210 -3 176 -10 141 -10 c 0
 91 -10 54 4 30 32 c 0
 5 60 -3 98 4 145 c 0
 14 207 47 255 102 288 c 0
 157 321 231 338 323 338 c 2
 362 338 l 1
 367 377 364 404 352 418 c 0
 339 433 314 440 276 440 c 0
 213 440 150 426 88 397 c 1
 74 481 l 1
 143 514 217 530 298 530 c 0
 346 530 383 523 409 510 c 0
251 96 m 0
 274 107 294 123 310 142 c 0
 327 161 337 182 340 203 c 2
 348 253 l 1
 309 253 l 2
 248 253 201 244 166 228 c 0
 132 210 112 186 107 154 c 0
 104 131 109 113 122 99 c 0
 135 85 155 78 181 78 c 0
 204 78 228 84 251 96 c 0
EndSplineSet
EndChar

StartChar: uni1EAD
Encoding: 7853 7853 211
Width: 547
Flags: W
LayerCount: 2
Fore
SplineSet
409 510 m 0
 435 496 452 474 460 444 c 0
 469 415 469 375 461 325 c 2
 410 0 l 1
 313 0 l 1
 323 69 l 1
 321 69 l 1
 300 44 273 25 242 11 c 0
 210 -3 176 -10 141 -10 c 0
 91 -10 54 4 30 32 c 0
 5 60 -3 98 4 145 c 0
 14 207 47 255 102 288 c 0
 157 321 231 338 323 338 c 2
 362 338 l 1
 367 377 364 404 352 418 c 0
 339 433 314 440 276 440 c 0
 213 440 150 426 88 397 c 1
 74 481 l 1
 143 514 217 530 298 530 c 0
 346 530 383 523 409 510 c 0
251 96 m 0
 274 107 294 123 310 142 c 0
 327 161 337 182 340 203 c 2
 348 253 l 1
 309 253 l 2
 248 253 201 244 166 228 c 0
 132 210 112 186 107 154 c 0
 104 131 109 113 122 99 c 0
 135 85 155 78 181 78 c 0
 204 78 228 84 251 96 c 0
153 -82 m 1
 277 -82 l 1
 257 -208 l 1
 133 -208 l 1
 153 -82 l 1
229 770 m 1
 419 770 l 1
 508 560 l 1
 380 560 l 1
 318 720 l 1
 316 720 l 1
 202 560 l 1
 75 560 l 1
 229 770 l 1
EndSplineSet
EndChar

StartChar: uni1EA7
Encoding: 7847 7847 212
Width: 517
Flags: W
LayerCount: 2
Fore
SplineSet
211 740 m 1
 141 740 l 1
 56 950 l 1
 189 950 l 1
 237 770 l 1
 416 770 l 1
 501 560 l 1
 378 560 l 1
 318 720 l 1
 316 720 l 1
 205 560 l 1
 83 560 l 1
 211 740 l 1
412 510 m 0
 439 496 456 474 464 444 c 0
 472 415 472 375 464 325 c 2
 413 0 l 1
 316 0 l 1
 326 69 l 1
 324 69 l 1
 303 44 276 25 244 11 c 0
 213 -3 179 -10 144 -10 c 0
 94 -10 57 4 32 32 c 0
 8 60 0 98 8 145 c 0
 18 207 50 255 106 288 c 0
 160 321 234 338 326 338 c 2
 365 338 l 1
 370 377 367 404 355 418 c 0
 343 433 318 440 280 440 c 0
 217 440 154 426 91 397 c 1
 78 481 l 1
 147 514 221 530 301 530 c 0
 349 530 386 523 412 510 c 0
254 96 m 0
 277 107 297 123 314 142 c 0
 330 161 340 182 344 203 c 2
 351 253 l 1
 313 253 l 2
 252 253 205 244 170 228 c 0
 135 210 116 186 111 154 c 0
 108 131 112 113 126 99 c 0
 138 85 158 78 184 78 c 0
 207 78 231 84 254 96 c 0
EndSplineSet
EndChar

StartChar: uni1EA9
Encoding: 7849 7849 213
Width: 513
Flags: W
LayerCount: 2
Fore
SplineSet
405 770 m 1
 410 787 414 799 415 804 c 0
 417 819 414 828 406 834 c 0
 397 838 381 841 356 841 c 0
 315 841 275 835 235 823 c 1
 239 910 l 1
 288 922 340 928 394 928 c 0
 433 928 463 926 484 920 c 0
 504 916 518 907 525 896 c 0
 532 884 534 867 531 845 c 0
 528 829 524 811 517 791 c 0
 510 771 503 753 495 738 c 1
 426 738 l 1
 497 560 l 1
 375 560 l 1
 315 720 l 1
 313 720 l 1
 202 560 l 1
 79 560 l 1
 230 770 l 1
 405 770 l 1
409 510 m 0
 435 496 452 474 460 444 c 0
 469 415 469 375 461 325 c 2
 409 0 l 1
 313 0 l 1
 323 69 l 1
 321 69 l 1
 300 44 273 25 242 11 c 0
 210 -3 176 -10 141 -10 c 0
 91 -10 54 4 30 32 c 0
 5 60 -3 98 4 145 c 0
 14 207 46 255 102 288 c 0
 156 321 230 338 323 338 c 2
 361 338 l 1
 366 377 363 404 351 418 c 0
 339 433 314 440 276 440 c 0
 213 440 150 426 88 397 c 1
 74 481 l 1
 143 514 217 530 298 530 c 0
 346 530 383 523 409 510 c 0
251 96 m 0
 274 107 294 123 310 142 c 0
 327 161 337 182 340 203 c 2
 348 253 l 1
 309 253 l 2
 248 253 201 244 166 228 c 0
 132 210 112 186 107 154 c 0
 104 131 109 113 122 99 c 0
 135 85 155 78 181 78 c 0
 204 78 228 84 251 96 c 0
EndSplineSet
EndChar

StartChar: uni1EAB
Encoding: 7851 7851 214
Width: 547
Flags: W
LayerCount: 2
Fore
SplineSet
409 510 m 0
 435 496 452 474 460 444 c 0
 469 415 469 375 461 325 c 2
 410 0 l 1
 313 0 l 1
 323 69 l 1
 321 69 l 1
 300 44 273 25 242 11 c 0
 210 -3 176 -10 141 -10 c 0
 91 -10 54 4 30 32 c 0
 5 60 -3 98 4 145 c 0
 14 207 47 255 102 288 c 0
 157 321 231 338 323 338 c 2
 362 338 l 1
 367 377 364 404 352 418 c 0
 339 433 314 440 276 440 c 0
 213 440 150 426 88 397 c 1
 74 481 l 1
 143 514 217 530 298 530 c 0
 346 530 383 523 409 510 c 0
251 96 m 0
 274 107 294 123 310 142 c 0
 327 161 337 182 340 203 c 2
 348 253 l 1
 309 253 l 2
 248 253 201 244 166 228 c 0
 132 210 112 186 107 154 c 0
 104 131 109 113 122 99 c 0
 135 85 155 78 181 78 c 0
 204 78 228 84 251 96 c 0
229 770 m 1
 419 770 l 1
 508 560 l 1
 380 560 l 1
 318 720 l 1
 316 720 l 1
 202 560 l 1
 75 560 l 1
 229 770 l 1
384 796 m 0
 368 803 348 814 324 829 c 0
 296 848 275 857 261 857 c 0
 251 857 243 852 238 844 c 0
 232 834 227 819 223 797 c 1
 125 797 l 1
 134 854 149 896 168 923 c 0
 188 950 214 963 246 963 c 0
 262 963 278 960 294 954 c 0
 311 947 331 936 354 921 c 0
 382 902 403 893 416 893 c 0
 426 893 434 898 440 907 c 0
 446 916 451 932 454 953 c 1
 552 953 l 1
 543 896 528 854 509 827 c 0
 490 800 464 787 432 787 c 0
 417 787 401 790 384 796 c 0
EndSplineSet
EndChar

StartChar: uni0201
Encoding: 513 513 215
Width: 547
Flags: W
LayerCount: 2
Fore
SplineSet
409 510 m 0
 435 496 452 474 460 444 c 0
 469 415 469 375 461 325 c 2
 410 0 l 1
 313 0 l 1
 323 69 l 1
 321 69 l 1
 300 44 273 25 242 11 c 0
 210 -3 176 -10 141 -10 c 0
 91 -10 54 4 30 32 c 0
 5 60 -3 98 4 145 c 0
 14 207 47 255 102 288 c 0
 157 321 231 338 323 338 c 2
 362 338 l 1
 367 377 364 404 352 418 c 0
 339 433 314 440 276 440 c 0
 213 440 150 426 88 397 c 1
 74 481 l 1
 143 514 217 530 298 530 c 0
 346 530 383 523 409 510 c 0
251 96 m 0
 274 107 294 123 310 142 c 0
 327 161 337 182 340 203 c 2
 348 253 l 1
 309 253 l 2
 248 253 201 244 166 228 c 0
 132 210 112 186 107 154 c 0
 104 131 109 113 122 99 c 0
 135 85 155 78 181 78 c 0
 204 78 228 84 251 96 c 0
56 770 m 1
 193 770 l 1
 253 560 l 1
 145 560 l 1
 56 770 l 1
276 770 m 1
 414 770 l 1
 473 560 l 1
 366 560 l 1
 276 770 l 1
EndSplineSet
EndChar

StartChar: adieresis
Encoding: 228 228 216
Width: 547
Flags: W
LayerCount: 2
Fore
SplineSet
409 510 m 0
 435 496 452 474 460 444 c 0
 469 415 469 375 461 325 c 2
 410 0 l 1
 313 0 l 1
 323 69 l 1
 321 69 l 1
 300 44 273 25 242 11 c 0
 210 -3 176 -10 141 -10 c 0
 91 -10 54 4 30 32 c 0
 5 60 -3 98 4 145 c 0
 14 207 47 255 102 288 c 0
 157 321 231 338 323 338 c 2
 362 338 l 1
 367 377 364 404 352 418 c 0
 339 433 314 440 276 440 c 0
 213 440 150 426 88 397 c 1
 74 481 l 1
 143 514 217 530 298 530 c 0
 346 530 383 523 409 510 c 0
251 96 m 0
 274 107 294 123 310 142 c 0
 327 161 337 182 340 203 c 2
 348 253 l 1
 309 253 l 2
 248 253 201 244 166 228 c 0
 132 210 112 186 107 154 c 0
 104 131 109 113 122 99 c 0
 135 85 155 78 181 78 c 0
 204 78 228 84 251 96 c 0
127 728 m 1
 251 728 l 1
 231 602 l 1
 107 602 l 1
 127 728 l 1
376 728 m 1
 499 728 l 1
 479 602 l 1
 356 602 l 1
 376 728 l 1
EndSplineSet
EndChar

StartChar: uni1EA1
Encoding: 7841 7841 217
Width: 547
Flags: W
LayerCount: 2
Fore
SplineSet
409 510 m 0
 435 496 452 474 460 444 c 0
 469 415 469 375 461 325 c 2
 410 0 l 1
 313 0 l 1
 323 69 l 1
 321 69 l 1
 300 44 273 25 242 11 c 0
 210 -3 176 -10 141 -10 c 0
 91 -10 54 4 30 32 c 0
 5 60 -3 98 4 145 c 0
 14 207 47 255 102 288 c 0
 157 321 231 338 323 338 c 2
 362 338 l 1
 367 377 364 404 352 418 c 0
 339 433 314 440 276 440 c 0
 213 440 150 426 88 397 c 1
 74 481 l 1
 143 514 217 530 298 530 c 0
 346 530 383 523 409 510 c 0
251 96 m 0
 274 107 294 123 310 142 c 0
 327 161 337 182 340 203 c 2
 348 253 l 1
 309 253 l 2
 248 253 201 244 166 228 c 0
 132 210 112 186 107 154 c 0
 104 131 109 113 122 99 c 0
 135 85 155 78 181 78 c 0
 204 78 228 84 251 96 c 0
153 -82 m 1
 277 -82 l 1
 257 -208 l 1
 133 -208 l 1
 153 -82 l 1
EndSplineSet
EndChar

StartChar: agrave
Encoding: 224 224 218
Width: 547
Flags: W
LayerCount: 2
Fore
SplineSet
409 510 m 0
 435 496 452 474 460 444 c 0
 469 415 469 375 461 325 c 2
 410 0 l 1
 313 0 l 1
 323 69 l 1
 321 69 l 1
 300 44 273 25 242 11 c 0
 210 -3 176 -10 141 -10 c 0
 91 -10 54 4 30 32 c 0
 5 60 -3 98 4 145 c 0
 14 207 47 255 102 288 c 0
 157 321 231 338 323 338 c 2
 362 338 l 1
 367 377 364 404 352 418 c 0
 339 433 314 440 276 440 c 0
 213 440 150 426 88 397 c 1
 74 481 l 1
 143 514 217 530 298 530 c 0
 346 530 383 523 409 510 c 0
251 96 m 0
 274 107 294 123 310 142 c 0
 327 161 337 182 340 203 c 2
 348 253 l 1
 309 253 l 2
 248 253 201 244 166 228 c 0
 132 210 112 186 107 154 c 0
 104 131 109 113 122 99 c 0
 135 85 155 78 181 78 c 0
 204 78 228 84 251 96 c 0
147 770 m 1
 284 770 l 1
 344 560 l 1
 236 560 l 1
 147 770 l 1
EndSplineSet
EndChar

StartChar: uni1EA3
Encoding: 7843 7843 219
Width: 547
Flags: W
LayerCount: 2
Fore
SplineSet
409 510 m 0
 435 496 452 474 460 444 c 0
 469 415 469 375 461 325 c 2
 410 0 l 1
 313 0 l 1
 323 69 l 1
 321 69 l 1
 300 44 273 25 242 11 c 0
 210 -3 176 -10 141 -10 c 0
 91 -10 54 4 30 32 c 0
 5 60 -3 98 4 145 c 0
 14 207 47 255 102 288 c 0
 157 321 231 338 323 338 c 2
 362 338 l 1
 367 377 364 404 352 418 c 0
 339 433 314 440 276 440 c 0
 213 440 150 426 88 397 c 1
 74 481 l 1
 143 514 217 530 298 530 c 0
 346 530 383 523 409 510 c 0
251 96 m 0
 274 107 294 123 310 142 c 0
 327 161 337 182 340 203 c 2
 348 253 l 1
 309 253 l 2
 248 253 201 244 166 228 c 0
 132 210 112 186 107 154 c 0
 104 131 109 113 122 99 c 0
 135 85 155 78 181 78 c 0
 204 78 228 84 251 96 c 0
379 616 m 0
 384 630 387 640 388 649 c 0
 390 664 387 674 378 678 c 0
 369 684 352 686 327 686 c 0
 285 686 244 680 203 668 c 1
 207 755 l 1
 258 767 311 773 366 773 c 0
 407 773 438 770 459 766 c 0
 480 760 495 752 502 740 c 0
 510 729 512 712 509 690 c 0
 506 674 502 656 495 636 c 0
 488 616 481 598 473 583 c 1
 365 583 l 1
 370 592 374 604 379 616 c 0
EndSplineSet
EndChar

StartChar: uni0203
Encoding: 515 515 220
Width: 547
Flags: W
LayerCount: 2
Fore
SplineSet
409 510 m 0
 435 496 452 474 460 444 c 0
 469 415 469 375 461 325 c 2
 410 0 l 1
 313 0 l 1
 323 69 l 1
 321 69 l 1
 300 44 273 25 242 11 c 0
 210 -3 176 -10 141 -10 c 0
 91 -10 54 4 30 32 c 0
 5 60 -3 98 4 145 c 0
 14 207 47 255 102 288 c 0
 157 321 231 338 323 338 c 2
 362 338 l 1
 367 377 364 404 352 418 c 0
 339 433 314 440 276 440 c 0
 213 440 150 426 88 397 c 1
 74 481 l 1
 143 514 217 530 298 530 c 0
 346 530 383 523 409 510 c 0
251 96 m 0
 274 107 294 123 310 142 c 0
 327 161 337 182 340 203 c 2
 348 253 l 1
 309 253 l 2
 248 253 201 244 166 228 c 0
 132 210 112 186 107 154 c 0
 104 131 109 113 122 99 c 0
 135 85 155 78 181 78 c 0
 204 78 228 84 251 96 c 0
416 736 m 0
 443 721 464 701 478 675 c 0
 491 649 496 620 493 587 c 1
 379 587 l 1
 380 614 375 635 362 650 c 0
 349 664 331 671 306 671 c 0
 281 671 260 664 243 650 c 0
 226 635 213 614 206 587 c 1
 91 587 l 1
 98 620 113 649 134 675 c 0
 156 701 183 721 215 736 c 0
 247 750 282 757 319 757 c 0
 356 757 389 750 416 736 c 0
EndSplineSet
EndChar

StartChar: amacron
Encoding: 257 257 221
Width: 547
Flags: W
LayerCount: 2
Fore
SplineSet
409 510 m 0
 435 496 452 474 460 444 c 0
 469 415 469 375 461 325 c 2
 410 0 l 1
 313 0 l 1
 323 69 l 1
 321 69 l 1
 300 44 273 25 242 11 c 0
 210 -3 176 -10 141 -10 c 0
 91 -10 54 4 30 32 c 0
 5 60 -3 98 4 145 c 0
 14 207 47 255 102 288 c 0
 157 321 231 338 323 338 c 2
 362 338 l 1
 367 377 364 404 352 418 c 0
 339 433 314 440 276 440 c 0
 213 440 150 426 88 397 c 1
 74 481 l 1
 143 514 217 530 298 530 c 0
 346 530 383 523 409 510 c 0
251 96 m 0
 274 107 294 123 310 142 c 0
 327 161 337 182 340 203 c 2
 348 253 l 1
 309 253 l 2
 248 253 201 244 166 228 c 0
 132 210 112 186 107 154 c 0
 104 131 109 113 122 99 c 0
 135 85 155 78 181 78 c 0
 204 78 228 84 251 96 c 0
125 708 m 1
 495 708 l 1
 481 622 l 1
 111 622 l 1
 125 708 l 1
EndSplineSet
EndChar

StartChar: aogonek
Encoding: 261 261 222
Width: 516
Flags: W
LayerCount: 2
Fore
SplineSet
462 -196 m 1
 428 -210 391 -217 351 -217 c 0
 302 -217 266 -208 242 -190 c 0
 219 -171 210 -145 215 -112 c 0
 222 -65 256 -21 315 20 c 1
 322 69 l 1
 320 69 l 1
 299 44 272 25 240 11 c 0
 209 -3 175 -10 140 -10 c 0
 90 -10 53 4 29 32 c 0
 5 60 -3 98 4 145 c 0
 14 207 46 255 102 288 c 0
 156 321 230 338 322 338 c 2
 361 338 l 1
 366 377 363 404 351 418 c 0
 339 433 314 440 276 440 c 0
 213 440 150 426 88 397 c 1
 74 481 l 1
 143 514 217 530 297 530 c 0
 345 530 382 523 408 510 c 0
 435 496 452 474 460 444 c 0
 468 415 468 375 460 325 c 2
 409 0 l 1
 382 -16 360 -32 342 -48 c 0
 326 -65 316 -80 314 -93 c 0
 312 -105 316 -114 326 -120 c 0
 336 -127 352 -130 373 -130 c 0
 403 -130 432 -124 460 -111 c 1
 462 -196 l 1
250 96 m 0
 273 107 293 123 310 142 c 0
 326 161 336 182 339 203 c 2
 347 253 l 1
 309 253 l 2
 248 253 201 244 166 228 c 0
 132 210 112 186 107 154 c 0
 104 131 109 113 122 99 c 0
 135 85 155 78 180 78 c 0
 203 78 227 84 250 96 c 0
EndSplineSet
EndChar

StartChar: aring
Encoding: 229 229 223
Width: 512
Flags: W
LayerCount: 2
Fore
SplineSet
448 472 m 0
 467 440 471 391 460 325 c 2
 409 0 l 1
 312 0 l 1
 322 69 l 1
 320 69 l 1
 299 44 272 25 240 11 c 0
 209 -3 175 -10 140 -10 c 0
 90 -10 53 4 29 32 c 0
 5 60 -3 98 4 145 c 0
 14 207 46 255 102 288 c 0
 156 321 230 338 322 338 c 2
 361 338 l 1
 366 377 363 404 350 418 c 0
 338 433 313 440 276 440 c 0
 213 440 151 426 88 397 c 1
 74 481 l 1
 121 504 173 519 230 526 c 1
 205 537 187 556 174 580 c 0
 162 606 159 634 164 665 c 0
 168 692 178 718 194 740 c 0
 211 764 231 782 255 795 c 0
 279 808 304 815 329 815 c 0
 355 815 378 808 398 795 c 0
 417 782 432 764 440 740 c 0
 450 718 452 692 447 665 c 0
 442 635 430 608 411 583 c 0
 392 558 369 540 342 528 c 1
 395 522 430 503 448 472 c 0
266 714 m 0
 252 701 242 684 239 665 c 0
 236 646 240 629 250 616 c 0
 262 602 276 595 294 595 c 0
 313 595 330 602 344 616 c 0
 360 629 369 646 372 665 c 0
 375 684 372 701 360 714 c 0
 350 728 335 735 317 735 c 0
 298 735 282 728 266 714 c 0
250 96 m 0
 273 107 293 123 310 142 c 0
 326 161 336 182 339 203 c 2
 347 253 l 1
 308 253 l 2
 247 253 200 244 166 228 c 0
 132 210 112 186 107 154 c 0
 104 131 109 113 122 99 c 0
 135 85 155 78 180 78 c 0
 203 78 227 84 250 96 c 0
EndSplineSet
EndChar

StartChar: aringacute
Encoding: 507 507 224
Width: 512
Flags: W
LayerCount: 2
Fore
SplineSet
448 472 m 0
 467 440 471 391 460 325 c 2
 409 0 l 1
 312 0 l 1
 322 69 l 1
 320 69 l 1
 299 44 272 25 240 11 c 0
 209 -3 175 -10 140 -10 c 0
 90 -10 53 4 29 32 c 0
 5 60 -3 98 4 145 c 0
 14 207 46 255 102 288 c 0
 156 321 230 338 322 338 c 2
 361 338 l 1
 366 377 363 404 350 418 c 0
 338 433 313 440 276 440 c 0
 213 440 151 426 88 397 c 1
 74 481 l 1
 121 504 173 519 230 526 c 1
 205 537 187 556 174 580 c 0
 162 606 159 634 164 665 c 0
 167 688 175 709 188 729 c 0
 200 749 215 766 233 780 c 1
 350 980 l 1
 482 980 l 1
 361 811 l 1
 391 804 414 786 431 759 c 0
 448 732 453 700 447 665 c 0
 442 635 430 608 411 583 c 0
 392 558 369 540 342 528 c 1
 395 522 430 503 448 472 c 0
266 714 m 0
 252 701 242 684 239 665 c 0
 236 646 240 629 250 616 c 0
 262 602 276 595 294 595 c 0
 313 595 330 602 344 616 c 0
 360 629 369 646 372 665 c 0
 375 684 372 701 360 714 c 0
 350 728 335 735 317 735 c 0
 298 735 282 728 266 714 c 0
250 96 m 0
 273 107 293 123 310 142 c 0
 326 161 336 182 339 203 c 2
 347 253 l 1
 308 253 l 2
 247 253 200 244 166 228 c 0
 132 210 112 186 107 154 c 0
 104 131 109 113 122 99 c 0
 135 85 155 78 180 78 c 0
 203 78 227 84 250 96 c 0
EndSplineSet
EndChar

StartChar: atilde
Encoding: 227 227 225
Width: 547
Flags: W
LayerCount: 2
Fore
SplineSet
409 510 m 0
 435 496 452 474 460 444 c 0
 469 415 469 375 461 325 c 2
 410 0 l 1
 313 0 l 1
 323 69 l 1
 321 69 l 1
 300 44 273 25 242 11 c 0
 210 -3 176 -10 141 -10 c 0
 91 -10 54 4 30 32 c 0
 5 60 -3 98 4 145 c 0
 14 207 47 255 102 288 c 0
 157 321 231 338 323 338 c 2
 362 338 l 1
 367 377 364 404 352 418 c 0
 339 433 314 440 276 440 c 0
 213 440 150 426 88 397 c 1
 74 481 l 1
 143 514 217 530 298 530 c 0
 346 530 383 523 409 510 c 0
251 96 m 0
 274 107 294 123 310 142 c 0
 327 161 337 182 340 203 c 2
 348 253 l 1
 309 253 l 2
 248 253 201 244 166 228 c 0
 132 210 112 186 107 154 c 0
 104 131 109 113 122 99 c 0
 135 85 155 78 181 78 c 0
 204 78 228 84 251 96 c 0
352 586 m 0
 335 593 315 604 291 619 c 0
 263 638 242 647 228 647 c 0
 218 647 210 642 204 634 c 0
 199 624 194 609 190 587 c 1
 92 587 l 1
 101 644 116 686 136 713 c 0
 155 740 181 753 213 753 c 0
 229 753 245 750 262 744 c 0
 278 737 298 726 321 711 c 0
 349 692 370 683 383 683 c 0
 393 683 401 688 407 697 c 0
 413 706 418 722 421 743 c 1
 519 743 l 1
 510 686 495 644 476 617 c 0
 457 590 431 577 399 577 c 0
 384 577 368 580 352 586 c 0
EndSplineSet
EndChar

StartChar: ae
Encoding: 230 230 226
Width: 843
Flags: W
LayerCount: 2
Fore
SplineSet
800 215 m 1
 442 215 l 1
 435 125 480 80 575 80 c 0
 601 80 628 83 656 90 c 0
 684 96 709 104 730 115 c 1
 740 32 l 1
 713 19 683 8 651 1 c 0
 619 -6 587 -10 556 -10 c 0
 467 -10 405 19 371 76 c 1
 319 19 249 -10 162 -10 c 0
 104 -10 61 4 34 31 c 0
 7 58 -3 96 4 145 c 0
 14 207 47 255 102 288 c 0
 157 321 231 338 323 338 c 2
 362 338 l 1
 367 377 364 404 352 418 c 0
 339 433 314 440 276 440 c 0
 213 440 150 426 88 397 c 1
 74 481 l 1
 143 514 217 530 298 530 c 0
 339 530 371 525 396 515 c 0
 421 505 439 489 450 467 c 1
 498 509 557 530 626 530 c 0
 699 530 752 507 783 460 c 0
 814 414 823 347 809 260 c 0
 807 246 804 231 800 215 c 1
510 407 m 0
 484 384 466 348 455 300 c 1
 718 300 l 1
 723 349 716 385 699 408 c 0
 682 431 653 442 612 442 c 0
 570 442 536 430 510 407 c 0
251 96 m 0
 274 107 294 123 310 142 c 0
 327 161 337 182 340 203 c 2
 348 253 l 1
 309 253 l 2
 248 253 201 244 166 228 c 0
 132 210 112 186 107 154 c 0
 104 131 109 113 122 99 c 0
 135 85 155 78 181 78 c 0
 204 78 228 84 251 96 c 0
EndSplineSet
EndChar

StartChar: aeacute
Encoding: 509 509 227
Width: 893
Flags: W
LayerCount: 2
Fore
SplineSet
800 215 m 1
 442 215 l 1
 435 125 480 80 575 80 c 0
 601 80 628 83 656 90 c 0
 684 96 709 104 730 115 c 1
 740 32 l 1
 713 19 683 8 651 1 c 0
 619 -6 587 -10 556 -10 c 0
 467 -10 405 19 371 76 c 1
 319 19 249 -10 162 -10 c 0
 104 -10 61 4 34 31 c 0
 7 58 -3 96 4 145 c 0
 14 207 47 255 102 288 c 0
 157 321 231 338 323 338 c 2
 362 338 l 1
 367 377 364 404 352 418 c 0
 339 433 314 440 276 440 c 0
 213 440 150 426 88 397 c 1
 74 481 l 1
 143 514 217 530 298 530 c 0
 339 530 371 525 396 515 c 0
 421 505 439 489 450 467 c 1
 498 509 557 530 626 530 c 0
 699 530 752 507 783 460 c 0
 814 414 823 347 809 260 c 0
 807 246 804 231 800 215 c 1
510 407 m 0
 484 384 466 348 455 300 c 1
 718 300 l 1
 723 349 716 385 699 408 c 0
 682 431 653 442 612 442 c 0
 570 442 536 430 510 407 c 0
251 96 m 0
 274 107 294 123 310 142 c 0
 327 161 337 182 340 203 c 2
 348 253 l 1
 309 253 l 2
 248 253 201 244 166 228 c 0
 132 210 112 186 107 154 c 0
 104 131 109 113 122 99 c 0
 135 85 155 78 181 78 c 0
 204 78 228 84 251 96 c 0
522 560 m 1
 414 560 l 1
 540 770 l 1
 678 770 l 1
 522 560 l 1
EndSplineSet
EndChar

StartChar: b
Encoding: 98 98 228
Width: 558
Flags: W
LayerCount: 2
Fore
SplineSet
501 460 m 0
 526 413 532 347 518 260 c 0
 504 173 477 107 437 60 c 0
 397 13 346 -10 284 -10 c 0
 250 -10 220 -3 193 12 c 0
 166 26 146 46 131 71 c 1
 130 71 l 1
 117 0 l 1
 21 0 l 1
 139 750 l 1
 241 750 l 1
 193 449 l 1
 195 449 l 1
 217 475 243 495 274 509 c 0
 305 523 337 530 370 530 c 0
 432 530 476 507 501 460 c 0
364 128 m 0
 391 161 408 205 417 260 c 0
 426 315 422 359 406 392 c 0
 390 424 364 440 327 440 c 0
 303 440 279 433 256 419 c 0
 233 405 213 386 198 362 c 0
 182 338 172 312 167 283 c 2
 160 237 l 2
 155 208 157 182 165 158 c 0
 173 134 186 115 206 101 c 0
 224 87 246 80 270 80 c 0
 307 80 338 96 364 128 c 0
EndSplineSet
EndChar

StartChar: c
Encoding: 99 99 229
Width: 498
Flags: W
LayerCount: 2
Fore
SplineSet
65 60 m 0
 28 108 16 174 29 260 c 0
 42 346 75 412 128 460 c 0
 180 506 247 530 328 530 c 0
 385 530 435 517 478 492 c 1
 435 410 l 1
 398 430 360 440 319 440 c 0
 268 440 226 424 193 394 c 0
 160 362 139 318 130 260 c 0
 121 202 128 158 150 126 c 0
 174 96 211 80 262 80 c 0
 303 80 345 90 388 110 c 1
 404 28 l 1
 354 3 300 -10 243 -10 c 0
 162 -10 102 14 65 60 c 0
EndSplineSet
EndChar

StartChar: cacute
Encoding: 263 263 230
Width: 530
Flags: W
LayerCount: 2
Fore
SplineSet
65 60 m 0
 28 108 16 174 29 260 c 0
 42 346 75 412 128 460 c 0
 180 506 247 530 328 530 c 0
 385 530 435 517 478 492 c 1
 435 410 l 1
 398 430 360 440 319 440 c 0
 268 440 226 424 193 394 c 0
 160 362 139 318 130 260 c 0
 121 202 128 158 150 126 c 0
 174 96 211 80 262 80 c 0
 303 80 345 90 388 110 c 1
 404 28 l 1
 354 3 300 -10 243 -10 c 0
 162 -10 102 14 65 60 c 0
355 560 m 1
 247 560 l 1
 373 770 l 1
 511 770 l 1
 355 560 l 1
EndSplineSet
EndChar

StartChar: ccaron
Encoding: 269 269 231
Width: 530
Flags: W
LayerCount: 2
Fore
SplineSet
65 60 m 0
 28 108 16 174 29 260 c 0
 42 346 75 412 128 460 c 0
 180 506 247 530 328 530 c 0
 385 530 435 517 478 492 c 1
 435 410 l 1
 398 430 360 440 319 440 c 0
 268 440 226 424 193 394 c 0
 160 362 139 318 130 260 c 0
 121 202 128 158 150 126 c 0
 174 96 211 80 262 80 c 0
 303 80 345 90 388 110 c 1
 404 28 l 1
 354 3 300 -10 243 -10 c 0
 162 -10 102 14 65 60 c 0
128 770 m 1
 255 770 l 1
 318 610 l 1
 320 610 l 1
 434 770 l 1
 561 770 l 1
 405 560 l 1
 216 560 l 1
 128 770 l 1
EndSplineSet
EndChar

StartChar: ccedilla
Encoding: 231 231 232
Width: 497
Flags: W
LayerCount: 2
Fore
SplineSet
403 28 m 1
 371 12 339 1 307 -5 c 1
 336 -39 347 -75 340 -112 c 0
 335 -145 317 -171 288 -190 c 0
 259 -208 220 -217 171 -217 c 0
 130 -217 95 -210 66 -196 c 1
 95 -111 l 1
 119 -124 146 -130 177 -130 c 0
 198 -130 214 -127 226 -120 c 0
 239 -114 246 -105 247 -93 c 0
 249 -80 245 -66 236 -51 c 0
 226 -36 211 -21 190 -6 c 1
 127 3 81 31 53 77 c 0
 25 123 17 184 29 260 c 0
 42 346 75 412 128 460 c 0
 180 506 247 530 328 530 c 0
 385 530 435 517 477 492 c 1
 434 410 l 1
 397 430 359 440 318 440 c 0
 267 440 225 424 192 394 c 0
 160 362 139 318 130 260 c 0
 121 202 127 158 150 126 c 0
 173 96 210 80 261 80 c 0
 302 80 344 90 387 110 c 1
 403 28 l 1
EndSplineSet
EndChar

StartChar: ccircumflex
Encoding: 265 265 233
Width: 530
Flags: W
LayerCount: 2
Fore
SplineSet
65 60 m 0
 28 108 16 174 29 260 c 0
 42 346 75 412 128 460 c 0
 180 506 247 530 328 530 c 0
 385 530 435 517 478 492 c 1
 435 410 l 1
 398 430 360 440 319 440 c 0
 268 440 226 424 193 394 c 0
 160 362 139 318 130 260 c 0
 121 202 128 158 150 126 c 0
 174 96 211 80 262 80 c 0
 303 80 345 90 388 110 c 1
 404 28 l 1
 354 3 300 -10 243 -10 c 0
 162 -10 102 14 65 60 c 0
249 770 m 1
 439 770 l 1
 528 560 l 1
 400 560 l 1
 338 720 l 1
 336 720 l 1
 222 560 l 1
 95 560 l 1
 249 770 l 1
EndSplineSet
EndChar

StartChar: cdotaccent
Encoding: 267 267 234
Width: 530
Flags: W
LayerCount: 2
Fore
SplineSet
65 60 m 0
 28 108 16 174 29 260 c 0
 42 346 75 412 128 460 c 0
 180 506 247 530 328 530 c 0
 385 530 435 517 478 492 c 1
 435 410 l 1
 398 430 360 440 319 440 c 0
 268 440 226 424 193 394 c 0
 160 362 139 318 130 260 c 0
 121 202 128 158 150 126 c 0
 174 96 211 80 262 80 c 0
 303 80 345 90 388 110 c 1
 404 28 l 1
 354 3 300 -10 243 -10 c 0
 162 -10 102 14 65 60 c 0
301 728 m 1
 425 728 l 1
 405 602 l 1
 281 602 l 1
 301 728 l 1
EndSplineSet
EndChar

StartChar: d
Encoding: 100 100 235
Width: 558
Flags: W
LayerCount: 2
Fore
SplineSet
567 750 m 1
 448 0 l 1
 351 0 l 1
 362 71 l 1
 360 71 l 1
 338 46 311 26 280 12 c 0
 248 -3 215 -10 181 -10 c 0
 119 -10 75 13 50 60 c 0
 25 107 19 173 33 260 c 0
 47 347 74 413 114 460 c 0
 154 507 205 530 267 530 c 0
 300 530 330 523 356 509 c 0
 382 495 402 475 416 449 c 1
 418 449 l 1
 465 750 l 1
 567 750 l 1
295 101 m 0
 318 115 338 134 354 158 c 0
 369 182 379 208 384 237 c 2
 391 283 l 2
 396 312 394 338 386 362 c 0
 378 386 364 405 346 419 c 0
 326 433 305 440 281 440 c 0
 244 440 213 424 186 392 c 0
 160 359 143 315 134 260 c 0
 125 205 129 161 145 128 c 0
 161 96 187 80 224 80 c 0
 248 80 272 87 295 101 c 0
EndSplineSet
EndChar

StartChar: eth
Encoding: 240 240 236
Width: 557
Flags: W
LayerCount: 2
Fore
SplineSet
464 617 m 1
 490 570 507 517 516 456 c 0
 524 396 523 332 512 263 c 0
 498 176 466 108 418 61 c 0
 368 14 305 -10 227 -10 c 0
 152 -10 96 12 60 57 c 0
 25 102 13 164 26 243 c 0
 38 317 68 375 114 417 c 0
 162 459 220 480 291 480 c 0
 346 480 387 465 414 434 c 1
 416 435 l 1
 410 488 393 536 365 578 c 1
 141 490 l 1
 120 574 l 1
 304 646 l 1
 267 675 226 693 179 700 c 1
 212 790 l 1
 293 778 359 744 411 689 c 1
 564 749 l 1
 585 665 l 1
 464 617 l 1
352 123 m 0
 380 152 399 192 407 243 c 0
 422 341 384 390 291 390 c 0
 198 390 143 341 128 243 c 0
 120 192 126 152 146 123 c 0
 165 94 197 80 242 80 c 0
 286 80 322 94 352 123 c 0
EndSplineSet
EndChar

StartChar: dcaron
Encoding: 271 271 237
Width: 795
Flags: W
LayerCount: 2
Fore
SplineSet
567 750 m 1
 448 0 l 1
 351 0 l 1
 362 71 l 1
 360 71 l 1
 338 46 311 26 280 12 c 0
 248 -3 215 -10 181 -10 c 0
 119 -10 75 13 50 60 c 0
 25 107 19 173 33 260 c 0
 47 347 74 413 114 460 c 0
 154 507 205 530 267 530 c 0
 300 530 330 523 356 509 c 0
 382 495 402 475 416 449 c 1
 418 449 l 1
 465 750 l 1
 567 750 l 1
295 101 m 0
 318 115 338 134 354 158 c 0
 369 182 379 208 384 237 c 2
 391 283 l 2
 396 312 394 338 386 362 c 0
 378 386 364 405 346 419 c 0
 326 433 305 440 281 440 c 0
 244 440 213 424 186 392 c 0
 160 359 143 315 134 260 c 0
 125 205 129 161 145 128 c 0
 161 96 187 80 224 80 c 0
 248 80 272 87 295 101 c 0
717 770 m 1
 844 770 l 1
 684 470 l 1
 586 470 l 1
 717 770 l 1
EndSplineSet
EndChar

StartChar: dcroat
Encoding: 273 273 238
Width: 623
Flags: W
LayerCount: 2
Fore
SplineSet
644 580 m 1
 540 580 l 1
 448 0 l 1
 351 0 l 1
 362 71 l 1
 360 71 l 1
 338 46 311 26 280 12 c 0
 248 -3 215 -10 181 -10 c 0
 119 -10 75 13 50 60 c 0
 25 107 19 173 33 260 c 0
 47 347 74 413 114 460 c 0
 154 507 205 530 267 530 c 0
 300 530 330 523 356 509 c 0
 382 495 402 475 416 449 c 1
 418 449 l 1
 438 580 l 1
 247 580 l 1
 261 670 l 1
 453 670 l 1
 465 750 l 1
 567 750 l 1
 554 670 l 1
 659 670 l 1
 644 580 l 1
295 101 m 0
 318 115 338 134 354 158 c 0
 369 182 379 208 384 237 c 2
 391 283 l 2
 396 312 394 338 386 362 c 0
 378 386 364 405 346 419 c 0
 326 433 305 440 281 440 c 0
 244 440 213 424 186 392 c 0
 160 359 143 315 134 260 c 0
 125 205 129 161 145 128 c 0
 161 96 187 80 224 80 c 0
 248 80 272 87 295 101 c 0
EndSplineSet
EndChar

StartChar: uni01C6
Encoding: 454 454 239
Width: 1123
Flags: W
LayerCount: 2
Fore
SplineSet
567 750 m 1
 448 0 l 1
 351 0 l 1
 362 71 l 1
 360 71 l 1
 338 46 311 26 280 12 c 0
 248 -3 215 -10 181 -10 c 0
 119 -10 75 13 50 60 c 0
 25 107 19 173 33 260 c 0
 47 347 74 413 114 460 c 0
 154 507 205 530 267 530 c 0
 300 530 330 523 356 509 c 0
 382 495 402 475 416 449 c 1
 418 449 l 1
 465 750 l 1
 567 750 l 1
295 101 m 0
 318 115 338 134 354 158 c 0
 369 182 379 208 384 237 c 2
 391 283 l 2
 396 312 394 338 386 362 c 0
 378 386 364 405 346 419 c 0
 326 433 305 440 281 440 c 0
 244 440 213 424 186 392 c 0
 160 359 143 315 134 260 c 0
 125 205 129 161 145 128 c 0
 161 96 187 80 224 80 c 0
 248 80 272 87 295 101 c 0
613 90 m 1
 937 428 l 1
 937 430 l 1
 667 430 l 1
 682 520 l 1
 1080 520 l 1
 1066 430 l 1
 743 92 l 1
 743 90 l 1
 1012 90 l 1
 998 0 l 1
 599 0 l 1
 613 90 l 1
707 770 m 1
 834 770 l 1
 897 610 l 1
 899 610 l 1
 1013 770 l 1
 1140 770 l 1
 984 560 l 1
 795 560 l 1
 707 770 l 1
EndSplineSet
EndChar

StartChar: e
Encoding: 101 101 240
Width: 524
Flags: W
LayerCount: 2
Fore
SplineSet
481 215 m 1
 122 215 l 1
 119 170 130 136 154 114 c 0
 178 91 216 80 268 80 c 0
 317 80 365 90 412 109 c 1
 423 24 l 1
 397 13 369 5 338 -1 c 0
 308 -7 278 -10 249 -10 c 0
 165 -10 104 13 66 60 c 0
 27 107 15 173 29 260 c 0
 42 345 73 412 122 459 c 0
 171 506 232 530 307 530 c 0
 380 530 432 507 464 460 c 0
 494 414 503 347 490 260 c 0
 488 246 485 231 481 215 c 1
191 407 m 0
 165 384 147 348 136 300 c 1
 399 300 l 1
 404 349 397 385 380 408 c 0
 363 431 333 442 292 442 c 0
 251 442 217 430 191 407 c 0
EndSplineSet
EndChar

StartChar: eacute
Encoding: 233 233 241
Width: 556
Flags: W
LayerCount: 2
Fore
SplineSet
481 215 m 1
 122 215 l 1
 119 170 130 136 154 114 c 0
 178 91 216 80 268 80 c 0
 317 80 365 90 412 109 c 1
 423 24 l 1
 397 13 369 5 338 -1 c 0
 308 -7 278 -10 249 -10 c 0
 165 -10 104 13 66 60 c 0
 27 107 15 173 29 260 c 0
 42 345 73 412 122 459 c 0
 171 506 232 530 307 530 c 0
 380 530 432 507 464 460 c 0
 494 414 503 347 490 260 c 0
 488 246 485 231 481 215 c 1
191 407 m 0
 165 384 147 348 136 300 c 1
 399 300 l 1
 404 349 397 385 380 408 c 0
 363 431 333 442 292 442 c 0
 251 442 217 430 191 407 c 0
357 560 m 1
 249 560 l 1
 375 770 l 1
 513 770 l 1
 357 560 l 1
EndSplineSet
EndChar

StartChar: ebreve
Encoding: 277 277 242
Width: 556
Flags: W
LayerCount: 2
Fore
SplineSet
481 215 m 1
 122 215 l 1
 119 170 130 136 154 114 c 0
 178 91 216 80 268 80 c 0
 317 80 365 90 412 109 c 1
 423 24 l 1
 397 13 369 5 338 -1 c 0
 308 -7 278 -10 249 -10 c 0
 165 -10 104 13 66 60 c 0
 27 107 15 173 29 260 c 0
 42 345 73 412 122 459 c 0
 171 506 232 530 307 530 c 0
 380 530 432 507 464 460 c 0
 494 414 503 347 490 260 c 0
 488 246 485 231 481 215 c 1
191 407 m 0
 165 384 147 348 136 300 c 1
 399 300 l 1
 404 349 397 385 380 408 c 0
 363 431 333 442 292 442 c 0
 251 442 217 430 191 407 c 0
215 594 m 0
 188 609 167 629 154 655 c 0
 140 681 135 710 138 743 c 1
 253 743 l 1
 252 716 257 695 270 680 c 0
 282 666 301 659 326 659 c 0
 351 659 372 666 388 680 c 0
 406 695 418 716 425 743 c 1
 540 743 l 1
 533 710 518 681 496 655 c 0
 475 629 448 609 416 594 c 0
 384 580 349 573 312 573 c 0
 275 573 242 580 215 594 c 0
EndSplineSet
EndChar

StartChar: ecaron
Encoding: 283 283 243
Width: 556
Flags: W
LayerCount: 2
Fore
SplineSet
481 215 m 1
 122 215 l 1
 119 170 130 136 154 114 c 0
 178 91 216 80 268 80 c 0
 317 80 365 90 412 109 c 1
 423 24 l 1
 397 13 369 5 338 -1 c 0
 308 -7 278 -10 249 -10 c 0
 165 -10 104 13 66 60 c 0
 27 107 15 173 29 260 c 0
 42 345 73 412 122 459 c 0
 171 506 232 530 307 530 c 0
 380 530 432 507 464 460 c 0
 494 414 503 347 490 260 c 0
 488 246 485 231 481 215 c 1
191 407 m 0
 165 384 147 348 136 300 c 1
 399 300 l 1
 404 349 397 385 380 408 c 0
 363 431 333 442 292 442 c 0
 251 442 217 430 191 407 c 0
130 770 m 1
 257 770 l 1
 320 610 l 1
 322 610 l 1
 436 770 l 1
 563 770 l 1
 407 560 l 1
 218 560 l 1
 130 770 l 1
EndSplineSet
EndChar

StartChar: ecircumflex
Encoding: 234 234 244
Width: 556
Flags: W
LayerCount: 2
Fore
SplineSet
481 215 m 1
 122 215 l 1
 119 170 130 136 154 114 c 0
 178 91 216 80 268 80 c 0
 317 80 365 90 412 109 c 1
 423 24 l 1
 397 13 369 5 338 -1 c 0
 308 -7 278 -10 249 -10 c 0
 165 -10 104 13 66 60 c 0
 27 107 15 173 29 260 c 0
 42 345 73 412 122 459 c 0
 171 506 232 530 307 530 c 0
 380 530 432 507 464 460 c 0
 494 414 503 347 490 260 c 0
 488 246 485 231 481 215 c 1
191 407 m 0
 165 384 147 348 136 300 c 1
 399 300 l 1
 404 349 397 385 380 408 c 0
 363 431 333 442 292 442 c 0
 251 442 217 430 191 407 c 0
251 770 m 1
 441 770 l 1
 530 560 l 1
 402 560 l 1
 340 720 l 1
 338 720 l 1
 224 560 l 1
 97 560 l 1
 251 770 l 1
EndSplineSet
EndChar

StartChar: uni1EBF
Encoding: 7871 7871 245
Width: 527
Flags: W
LayerCount: 2
Fore
SplineSet
333 720 m 1
 223 560 l 1
 100 560 l 1
 250 770 l 1
 431 770 l 1
 536 950 l 1
 669 950 l 1
 517 740 l 1
 446 740 l 1
 519 560 l 1
 396 560 l 1
 335 720 l 1
 333 720 l 1
464 460 m 0
 494 414 503 347 490 260 c 0
 488 246 485 231 481 215 c 1
 122 215 l 1
 119 170 130 136 154 114 c 0
 178 91 216 80 268 80 c 0
 317 80 365 90 412 109 c 1
 423 24 l 1
 397 13 369 5 338 -1 c 0
 308 -7 278 -10 249 -10 c 0
 165 -10 104 13 66 60 c 0
 27 107 15 173 29 260 c 0
 42 345 73 412 122 459 c 0
 171 506 232 530 307 530 c 0
 380 530 432 507 464 460 c 0
191 407 m 0
 165 384 147 348 136 300 c 1
 399 300 l 1
 404 349 397 385 380 408 c 0
 363 431 333 442 292 442 c 0
 251 442 217 430 191 407 c 0
EndSplineSet
EndChar

StartChar: uni1EC7
Encoding: 7879 7879 246
Width: 556
Flags: W
LayerCount: 2
Fore
SplineSet
481 215 m 1
 122 215 l 1
 119 170 130 136 154 114 c 0
 178 91 216 80 268 80 c 0
 317 80 365 90 412 109 c 1
 423 24 l 1
 397 13 369 5 338 -1 c 0
 308 -7 278 -10 249 -10 c 0
 165 -10 104 13 66 60 c 0
 27 107 15 173 29 260 c 0
 42 345 73 412 122 459 c 0
 171 506 232 530 307 530 c 0
 380 530 432 507 464 460 c 0
 494 414 503 347 490 260 c 0
 488 246 485 231 481 215 c 1
191 407 m 0
 165 384 147 348 136 300 c 1
 399 300 l 1
 404 349 397 385 380 408 c 0
 363 431 333 442 292 442 c 0
 251 442 217 430 191 407 c 0
175 -82 m 1
 299 -82 l 1
 279 -208 l 1
 155 -208 l 1
 175 -82 l 1
251 770 m 1
 441 770 l 1
 530 560 l 1
 402 560 l 1
 340 720 l 1
 338 720 l 1
 224 560 l 1
 97 560 l 1
 251 770 l 1
EndSplineSet
EndChar

StartChar: uni1EC1
Encoding: 7873 7873 247
Width: 527
Flags: W
LayerCount: 2
Fore
SplineSet
231 740 m 1
 161 740 l 1
 76 950 l 1
 209 950 l 1
 257 770 l 1
 436 770 l 1
 522 560 l 1
 398 560 l 1
 338 720 l 1
 336 720 l 1
 225 560 l 1
 103 560 l 1
 231 740 l 1
483 215 m 1
 125 215 l 1
 122 170 133 136 157 114 c 0
 181 91 219 80 271 80 c 0
 320 80 368 90 415 109 c 1
 425 24 l 1
 399 13 371 5 341 -1 c 0
 311 -7 281 -10 251 -10 c 0
 167 -10 106 13 68 60 c 0
 30 107 18 173 32 260 c 0
 45 345 76 412 125 459 c 0
 174 506 235 530 309 530 c 0
 382 530 435 507 466 460 c 0
 497 414 506 347 492 260 c 0
 490 246 487 231 483 215 c 1
194 407 m 0
 168 384 150 348 139 300 c 1
 402 300 l 1
 407 349 400 385 383 408 c 0
 366 431 336 442 295 442 c 0
 253 442 219 430 194 407 c 0
EndSplineSet
EndChar

StartChar: uni1EC3
Encoding: 7875 7875 248
Width: 523
Flags: W
LayerCount: 2
Fore
SplineSet
426 770 m 1
 431 787 434 799 435 804 c 0
 437 819 434 828 426 834 c 0
 417 838 401 841 376 841 c 0
 335 841 295 835 256 823 c 1
 260 910 l 1
 309 922 361 928 414 928 c 0
 453 928 483 926 504 920 c 0
 525 916 539 907 546 896 c 0
 553 884 555 867 552 845 c 0
 549 829 545 811 538 791 c 0
 531 771 524 753 516 738 c 1
 446 738 l 1
 518 560 l 1
 396 560 l 1
 335 720 l 1
 333 720 l 1
 223 560 l 1
 100 560 l 1
 250 770 l 1
 426 770 l 1
479 215 m 1
 122 215 l 1
 119 170 130 136 154 114 c 0
 178 91 216 80 268 80 c 0
 317 80 365 90 412 109 c 1
 422 24 l 1
 397 13 369 5 338 -1 c 0
 307 -7 277 -10 248 -10 c 0
 164 -10 103 13 65 60 c 0
 27 107 15 173 29 260 c 0
 42 345 73 412 122 459 c 0
 171 506 232 530 306 530 c 0
 379 530 432 507 462 460 c 0
 494 414 502 347 488 260 c 0
 486 246 483 231 479 215 c 1
190 407 m 0
 165 384 147 348 136 300 c 1
 399 300 l 1
 404 349 397 385 380 408 c 0
 363 431 333 442 292 442 c 0
 250 442 216 430 190 407 c 0
EndSplineSet
EndChar

StartChar: uni1EC5
Encoding: 7877 7877 249
Width: 556
Flags: W
LayerCount: 2
Fore
SplineSet
481 215 m 1
 122 215 l 1
 119 170 130 136 154 114 c 0
 178 91 216 80 268 80 c 0
 317 80 365 90 412 109 c 1
 423 24 l 1
 397 13 369 5 338 -1 c 0
 308 -7 278 -10 249 -10 c 0
 165 -10 104 13 66 60 c 0
 27 107 15 173 29 260 c 0
 42 345 73 412 122 459 c 0
 171 506 232 530 307 530 c 0
 380 530 432 507 464 460 c 0
 494 414 503 347 490 260 c 0
 488 246 485 231 481 215 c 1
191 407 m 0
 165 384 147 348 136 300 c 1
 399 300 l 1
 404 349 397 385 380 408 c 0
 363 431 333 442 292 442 c 0
 251 442 217 430 191 407 c 0
251 770 m 1
 441 770 l 1
 530 560 l 1
 402 560 l 1
 340 720 l 1
 338 720 l 1
 224 560 l 1
 97 560 l 1
 251 770 l 1
406 796 m 0
 390 803 370 814 346 829 c 0
 318 848 297 857 283 857 c 0
 273 857 265 852 260 844 c 0
 254 834 249 819 245 797 c 1
 147 797 l 1
 156 854 171 896 190 923 c 0
 210 950 236 963 268 963 c 0
 284 963 300 960 316 954 c 0
 333 947 353 936 376 921 c 0
 404 902 425 893 438 893 c 0
 448 893 456 898 462 907 c 0
 468 916 473 932 476 953 c 1
 574 953 l 1
 565 896 550 854 531 827 c 0
 512 800 486 787 454 787 c 0
 439 787 423 790 406 796 c 0
EndSplineSet
EndChar

StartChar: uni0205
Encoding: 517 517 250
Width: 556
Flags: W
LayerCount: 2
Fore
SplineSet
481 215 m 1
 122 215 l 1
 119 170 130 136 154 114 c 0
 178 91 216 80 268 80 c 0
 317 80 365 90 412 109 c 1
 423 24 l 1
 397 13 369 5 338 -1 c 0
 308 -7 278 -10 249 -10 c 0
 165 -10 104 13 66 60 c 0
 27 107 15 173 29 260 c 0
 42 345 73 412 122 459 c 0
 171 506 232 530 307 530 c 0
 380 530 432 507 464 460 c 0
 494 414 503 347 490 260 c 0
 488 246 485 231 481 215 c 1
191 407 m 0
 165 384 147 348 136 300 c 1
 399 300 l 1
 404 349 397 385 380 408 c 0
 363 431 333 442 292 442 c 0
 251 442 217 430 191 407 c 0
78 770 m 1
 215 770 l 1
 275 560 l 1
 167 560 l 1
 78 770 l 1
298 770 m 1
 436 770 l 1
 495 560 l 1
 388 560 l 1
 298 770 l 1
EndSplineSet
EndChar

StartChar: edieresis
Encoding: 235 235 251
Width: 556
Flags: W
LayerCount: 2
Fore
SplineSet
481 215 m 1
 122 215 l 1
 119 170 130 136 154 114 c 0
 178 91 216 80 268 80 c 0
 317 80 365 90 412 109 c 1
 423 24 l 1
 397 13 369 5 338 -1 c 0
 308 -7 278 -10 249 -10 c 0
 165 -10 104 13 66 60 c 0
 27 107 15 173 29 260 c 0
 42 345 73 412 122 459 c 0
 171 506 232 530 307 530 c 0
 380 530 432 507 464 460 c 0
 494 414 503 347 490 260 c 0
 488 246 485 231 481 215 c 1
191 407 m 0
 165 384 147 348 136 300 c 1
 399 300 l 1
 404 349 397 385 380 408 c 0
 363 431 333 442 292 442 c 0
 251 442 217 430 191 407 c 0
149 728 m 1
 273 728 l 1
 253 602 l 1
 129 602 l 1
 149 728 l 1
398 728 m 1
 521 728 l 1
 501 602 l 1
 378 602 l 1
 398 728 l 1
EndSplineSet
EndChar

StartChar: edotaccent
Encoding: 279 279 252
Width: 556
Flags: W
LayerCount: 2
Fore
SplineSet
481 215 m 1
 122 215 l 1
 119 170 130 136 154 114 c 0
 178 91 216 80 268 80 c 0
 317 80 365 90 412 109 c 1
 423 24 l 1
 397 13 369 5 338 -1 c 0
 308 -7 278 -10 249 -10 c 0
 165 -10 104 13 66 60 c 0
 27 107 15 173 29 260 c 0
 42 345 73 412 122 459 c 0
 171 506 232 530 307 530 c 0
 380 530 432 507 464 460 c 0
 494 414 503 347 490 260 c 0
 488 246 485 231 481 215 c 1
191 407 m 0
 165 384 147 348 136 300 c 1
 399 300 l 1
 404 349 397 385 380 408 c 0
 363 431 333 442 292 442 c 0
 251 442 217 430 191 407 c 0
303 728 m 1
 427 728 l 1
 407 602 l 1
 283 602 l 1
 303 728 l 1
EndSplineSet
EndChar

StartChar: uni1EB9
Encoding: 7865 7865 253
Width: 556
Flags: W
LayerCount: 2
Fore
SplineSet
481 215 m 1
 122 215 l 1
 119 170 130 136 154 114 c 0
 178 91 216 80 268 80 c 0
 317 80 365 90 412 109 c 1
 423 24 l 1
 397 13 369 5 338 -1 c 0
 308 -7 278 -10 249 -10 c 0
 165 -10 104 13 66 60 c 0
 27 107 15 173 29 260 c 0
 42 345 73 412 122 459 c 0
 171 506 232 530 307 530 c 0
 380 530 432 507 464 460 c 0
 494 414 503 347 490 260 c 0
 488 246 485 231 481 215 c 1
191 407 m 0
 165 384 147 348 136 300 c 1
 399 300 l 1
 404 349 397 385 380 408 c 0
 363 431 333 442 292 442 c 0
 251 442 217 430 191 407 c 0
175 -82 m 1
 299 -82 l 1
 279 -208 l 1
 155 -208 l 1
 175 -82 l 1
EndSplineSet
EndChar

StartChar: egrave
Encoding: 232 232 254
Width: 556
Flags: W
LayerCount: 2
Fore
SplineSet
481 215 m 1
 122 215 l 1
 119 170 130 136 154 114 c 0
 178 91 216 80 268 80 c 0
 317 80 365 90 412 109 c 1
 423 24 l 1
 397 13 369 5 338 -1 c 0
 308 -7 278 -10 249 -10 c 0
 165 -10 104 13 66 60 c 0
 27 107 15 173 29 260 c 0
 42 345 73 412 122 459 c 0
 171 506 232 530 307 530 c 0
 380 530 432 507 464 460 c 0
 494 414 503 347 490 260 c 0
 488 246 485 231 481 215 c 1
191 407 m 0
 165 384 147 348 136 300 c 1
 399 300 l 1
 404 349 397 385 380 408 c 0
 363 431 333 442 292 442 c 0
 251 442 217 430 191 407 c 0
169 770 m 1
 306 770 l 1
 366 560 l 1
 258 560 l 1
 169 770 l 1
EndSplineSet
EndChar

StartChar: uni1EBB
Encoding: 7867 7867 255
Width: 556
Flags: W
LayerCount: 2
Fore
SplineSet
481 215 m 1
 122 215 l 1
 119 170 130 136 154 114 c 0
 178 91 216 80 268 80 c 0
 317 80 365 90 412 109 c 1
 423 24 l 1
 397 13 369 5 338 -1 c 0
 308 -7 278 -10 249 -10 c 0
 165 -10 104 13 66 60 c 0
 27 107 15 173 29 260 c 0
 42 345 73 412 122 459 c 0
 171 506 232 530 307 530 c 0
 380 530 432 507 464 460 c 0
 494 414 503 347 490 260 c 0
 488 246 485 231 481 215 c 1
191 407 m 0
 165 384 147 348 136 300 c 1
 399 300 l 1
 404 349 397 385 380 408 c 0
 363 431 333 442 292 442 c 0
 251 442 217 430 191 407 c 0
401 616 m 0
 406 630 409 640 410 649 c 0
 412 664 409 674 400 678 c 0
 391 684 374 686 349 686 c 0
 307 686 266 680 225 668 c 1
 229 755 l 1
 280 767 333 773 388 773 c 0
 429 773 460 770 481 766 c 0
 502 760 517 752 524 740 c 0
 532 729 534 712 531 690 c 0
 528 674 524 656 517 636 c 0
 510 616 503 598 495 583 c 1
 387 583 l 1
 392 592 396 604 401 616 c 0
EndSplineSet
EndChar

StartChar: uni0207
Encoding: 519 519 256
Width: 556
Flags: W
LayerCount: 2
Fore
SplineSet
481 215 m 1
 122 215 l 1
 119 170 130 136 154 114 c 0
 178 91 216 80 268 80 c 0
 317 80 365 90 412 109 c 1
 423 24 l 1
 397 13 369 5 338 -1 c 0
 308 -7 278 -10 249 -10 c 0
 165 -10 104 13 66 60 c 0
 27 107 15 173 29 260 c 0
 42 345 73 412 122 459 c 0
 171 506 232 530 307 530 c 0
 380 530 432 507 464 460 c 0
 494 414 503 347 490 260 c 0
 488 246 485 231 481 215 c 1
191 407 m 0
 165 384 147 348 136 300 c 1
 399 300 l 1
 404 349 397 385 380 408 c 0
 363 431 333 442 292 442 c 0
 251 442 217 430 191 407 c 0
438 736 m 0
 465 721 486 701 500 675 c 0
 513 649 518 620 515 587 c 1
 401 587 l 1
 402 614 397 635 384 650 c 0
 371 664 353 671 328 671 c 0
 303 671 282 664 265 650 c 0
 248 635 235 614 228 587 c 1
 113 587 l 1
 120 620 135 649 156 675 c 0
 178 701 205 721 237 736 c 0
 269 750 304 757 341 757 c 0
 378 757 411 750 438 736 c 0
EndSplineSet
EndChar

StartChar: emacron
Encoding: 275 275 257
Width: 556
Flags: W
LayerCount: 2
Fore
SplineSet
481 215 m 1
 122 215 l 1
 119 170 130 136 154 114 c 0
 178 91 216 80 268 80 c 0
 317 80 365 90 412 109 c 1
 423 24 l 1
 397 13 369 5 338 -1 c 0
 308 -7 278 -10 249 -10 c 0
 165 -10 104 13 66 60 c 0
 27 107 15 173 29 260 c 0
 42 345 73 412 122 459 c 0
 171 506 232 530 307 530 c 0
 380 530 432 507 464 460 c 0
 494 414 503 347 490 260 c 0
 488 246 485 231 481 215 c 1
191 407 m 0
 165 384 147 348 136 300 c 1
 399 300 l 1
 404 349 397 385 380 408 c 0
 363 431 333 442 292 442 c 0
 251 442 217 430 191 407 c 0
147 708 m 1
 517 708 l 1
 503 622 l 1
 133 622 l 1
 147 708 l 1
EndSplineSet
EndChar

StartChar: eogonek
Encoding: 281 281 258
Width: 525
Flags: W
LayerCount: 2
Fore
SplineSet
477 -169 m 1
 442 -183 405 -190 365 -190 c 0
 316 -190 280 -181 256 -162 c 0
 233 -144 224 -118 229 -85 c 0
 233 -60 245 -35 265 -10 c 1
 248 -10 l 2
 164 -10 103 13 65 60 c 0
 27 107 15 173 29 260 c 0
 42 345 73 412 122 459 c 0
 171 506 232 530 306 530 c 0
 379 530 432 507 462 460 c 0
 494 414 502 347 489 260 c 0
 487 246 484 231 480 215 c 1
 122 215 l 1
 119 170 130 136 154 114 c 0
 178 91 216 80 268 80 c 0
 317 80 365 90 411 109 c 1
 421 27 l 1
 421 27 423 27 423 27 c 1
 423 27 421 26 421 26 c 1
 422 24 l 1
 419 23 415 21 411 20 c 0
 386 5 367 -10 352 -24 c 0
 338 -40 330 -53 328 -66 c 0
 326 -78 330 -87 340 -94 c 0
 350 -100 365 -103 386 -103 c 0
 417 -103 446 -97 474 -84 c 1
 477 -169 l 1
190 407 m 0
 165 384 147 348 136 300 c 1
 398 300 l 1
 403 349 396 385 379 408 c 0
 362 431 333 442 292 442 c 0
 250 442 216 430 190 407 c 0
EndSplineSet
EndChar

StartChar: uni1EBD
Encoding: 7869 7869 259
Width: 556
Flags: W
LayerCount: 2
Fore
SplineSet
481 215 m 1
 122 215 l 1
 119 170 130 136 154 114 c 0
 178 91 216 80 268 80 c 0
 317 80 365 90 412 109 c 1
 423 24 l 1
 397 13 369 5 338 -1 c 0
 308 -7 278 -10 249 -10 c 0
 165 -10 104 13 66 60 c 0
 27 107 15 173 29 260 c 0
 42 345 73 412 122 459 c 0
 171 506 232 530 307 530 c 0
 380 530 432 507 464 460 c 0
 494 414 503 347 490 260 c 0
 488 246 485 231 481 215 c 1
191 407 m 0
 165 384 147 348 136 300 c 1
 399 300 l 1
 404 349 397 385 380 408 c 0
 363 431 333 442 292 442 c 0
 251 442 217 430 191 407 c 0
374 586 m 0
 357 593 337 604 313 619 c 0
 285 638 264 647 250 647 c 0
 240 647 232 642 226 634 c 0
 221 624 216 609 212 587 c 1
 114 587 l 1
 123 644 138 686 158 713 c 0
 177 740 203 753 235 753 c 0
 251 753 267 750 284 744 c 0
 300 737 320 726 343 711 c 0
 371 692 392 683 405 683 c 0
 415 683 423 688 429 697 c 0
 435 706 440 722 443 743 c 1
 541 743 l 1
 532 686 517 644 498 617 c 0
 479 590 453 577 421 577 c 0
 406 577 390 580 374 586 c 0
EndSplineSet
EndChar

StartChar: uni0259
Encoding: 601 601 260
Width: 524
Flags: W
LayerCount: 2
Fore
SplineSet
451 460 m 0
 489 413 501 347 488 260 c 0
 475 175 444 108 395 61 c 0
 346 14 285 -10 210 -10 c 0
 137 -10 84 13 53 60 c 0
 22 106 13 173 27 260 c 0
 29 274 32 289 36 305 c 1
 394 305 l 1
 397 350 386 384 362 406 c 0
 338 429 300 440 248 440 c 0
 199 440 151 430 104 411 c 1
 94 496 l 1
 120 507 148 515 178 521 c 0
 208 527 238 530 268 530 c 0
 352 530 413 507 451 460 c 0
326 113 m 0
 352 136 370 172 381 220 c 1
 118 220 l 1
 113 171 120 135 137 112 c 0
 154 89 183 78 224 78 c 0
 266 78 300 90 326 113 c 0
EndSplineSet
EndChar

StartChar: f
Encoding: 102 102 261
Width: 434
Flags: W
LayerCount: 2
Fore
SplineSet
43 430 m 1
 57 520 l 1
 188 520 l 1
 196 575 l 2
 215 698 278 760 384 760 c 0
 417 760 451 755 487 745 c 1
 458 657 l 1
 433 666 408 670 385 670 c 0
 358 670 339 663 326 650 c 0
 314 636 305 611 300 575 c 2
 291 520 l 1
 445 520 l 1
 431 430 l 1
 277 430 l 1
 209 0 l 1
 105 0 l 1
 173 430 l 1
 43 430 l 1
EndSplineSet
EndChar

StartChar: g
Encoding: 103 103 262
Width: 558
Flags: W
LayerCount: 2
Fore
SplineSet
530 520 m 1
 455 45 l 2
 440 -46 408 -114 359 -160 c 0
 310 -207 244 -230 161 -230 c 0
 97 -230 35 -216 -24 -189 c 1
 12 -106 l 1
 65 -129 114 -140 161 -140 c 0
 216 -140 260 -125 292 -94 c 0
 323 -64 344 -18 354 45 c 2
 358 71 l 1
 356 71 l 1
 334 45 308 25 278 11 c 0
 248 -3 216 -10 182 -10 c 0
 120 -10 76 13 50 60 c 0
 25 106 19 173 33 260 c 0
 47 347 74 414 114 460 c 0
 155 507 206 530 268 530 c 0
 302 530 332 523 358 509 c 0
 384 495 405 475 420 449 c 1
 421 449 l 1
 434 520 l 1
 530 520 l 1
295 101 m 0
 318 115 338 134 354 158 c 0
 369 182 379 208 384 237 c 2
 391 283 l 2
 396 312 394 338 386 362 c 0
 378 386 364 405 346 419 c 0
 326 433 305 440 281 440 c 0
 244 440 213 424 186 392 c 0
 160 359 143 315 134 260 c 0
 125 205 129 161 145 128 c 0
 161 96 187 80 224 80 c 0
 248 80 272 87 295 101 c 0
EndSplineSet
EndChar

StartChar: gbreve
Encoding: 287 287 263
Width: 595
Flags: W
LayerCount: 2
Fore
SplineSet
530 520 m 1
 455 45 l 2
 440 -46 408 -114 359 -160 c 0
 310 -207 244 -230 161 -230 c 0
 97 -230 35 -216 -24 -189 c 1
 12 -106 l 1
 65 -129 114 -140 161 -140 c 0
 216 -140 260 -125 292 -94 c 0
 323 -64 344 -18 354 45 c 2
 358 71 l 1
 356 71 l 1
 334 45 308 25 278 11 c 0
 248 -3 216 -10 182 -10 c 0
 120 -10 76 13 50 60 c 0
 25 106 19 173 33 260 c 0
 47 347 74 414 114 460 c 0
 155 507 206 530 268 530 c 0
 302 530 332 523 358 509 c 0
 384 495 405 475 420 449 c 1
 421 449 l 1
 434 520 l 1
 530 520 l 1
295 101 m 0
 318 115 338 134 354 158 c 0
 369 182 379 208 384 237 c 2
 391 283 l 2
 396 312 394 338 386 362 c 0
 378 386 364 405 346 419 c 0
 326 433 305 440 281 440 c 0
 244 440 213 424 186 392 c 0
 160 359 143 315 134 260 c 0
 125 205 129 161 145 128 c 0
 161 96 187 80 224 80 c 0
 248 80 272 87 295 101 c 0
228 594 m 0
 201 609 180 629 166 655 c 0
 153 681 148 710 151 743 c 1
 266 743 l 1
 265 716 270 695 282 680 c 0
 295 666 314 659 339 659 c 0
 364 659 384 666 402 680 c 0
 418 695 431 716 438 743 c 1
 553 743 l 1
 546 710 531 681 510 655 c 0
 488 629 461 609 429 594 c 0
 397 580 362 573 325 573 c 0
 288 573 255 580 228 594 c 0
EndSplineSet
EndChar

StartChar: gcaron
Encoding: 487 487 264
Width: 595
Flags: W
LayerCount: 2
Fore
SplineSet
530 520 m 1
 455 45 l 2
 440 -46 408 -114 359 -160 c 0
 310 -207 244 -230 161 -230 c 0
 97 -230 35 -216 -24 -189 c 1
 12 -106 l 1
 65 -129 114 -140 161 -140 c 0
 216 -140 260 -125 292 -94 c 0
 323 -64 344 -18 354 45 c 2
 358 71 l 1
 356 71 l 1
 334 45 308 25 278 11 c 0
 248 -3 216 -10 182 -10 c 0
 120 -10 76 13 50 60 c 0
 25 106 19 173 33 260 c 0
 47 347 74 414 114 460 c 0
 155 507 206 530 268 530 c 0
 302 530 332 523 358 509 c 0
 384 495 405 475 420 449 c 1
 421 449 l 1
 434 520 l 1
 530 520 l 1
295 101 m 0
 318 115 338 134 354 158 c 0
 369 182 379 208 384 237 c 2
 391 283 l 2
 396 312 394 338 386 362 c 0
 378 386 364 405 346 419 c 0
 326 433 305 440 281 440 c 0
 244 440 213 424 186 392 c 0
 160 359 143 315 134 260 c 0
 125 205 129 161 145 128 c 0
 161 96 187 80 224 80 c 0
 248 80 272 87 295 101 c 0
143 770 m 1
 270 770 l 1
 333 610 l 1
 335 610 l 1
 449 770 l 1
 576 770 l 1
 420 560 l 1
 231 560 l 1
 143 770 l 1
EndSplineSet
EndChar

StartChar: gcircumflex
Encoding: 285 285 265
Width: 595
Flags: W
LayerCount: 2
Fore
SplineSet
530 520 m 1
 455 45 l 2
 440 -46 408 -114 359 -160 c 0
 310 -207 244 -230 161 -230 c 0
 97 -230 35 -216 -24 -189 c 1
 12 -106 l 1
 65 -129 114 -140 161 -140 c 0
 216 -140 260 -125 292 -94 c 0
 323 -64 344 -18 354 45 c 2
 358 71 l 1
 356 71 l 1
 334 45 308 25 278 11 c 0
 248 -3 216 -10 182 -10 c 0
 120 -10 76 13 50 60 c 0
 25 106 19 173 33 260 c 0
 47 347 74 414 114 460 c 0
 155 507 206 530 268 530 c 0
 302 530 332 523 358 509 c 0
 384 495 405 475 420 449 c 1
 421 449 l 1
 434 520 l 1
 530 520 l 1
295 101 m 0
 318 115 338 134 354 158 c 0
 369 182 379 208 384 237 c 2
 391 283 l 2
 396 312 394 338 386 362 c 0
 378 386 364 405 346 419 c 0
 326 433 305 440 281 440 c 0
 244 440 213 424 186 392 c 0
 160 359 143 315 134 260 c 0
 125 205 129 161 145 128 c 0
 161 96 187 80 224 80 c 0
 248 80 272 87 295 101 c 0
264 770 m 1
 454 770 l 1
 543 560 l 1
 415 560 l 1
 353 720 l 1
 351 720 l 1
 237 560 l 1
 110 560 l 1
 264 770 l 1
EndSplineSet
EndChar

StartChar: uni0123
Encoding: 291 291 266
Width: 595
Flags: W
LayerCount: 2
Fore
SplineSet
530 520 m 1
 455 45 l 2
 440 -46 408 -114 359 -160 c 0
 310 -207 244 -230 161 -230 c 0
 97 -230 35 -216 -24 -189 c 1
 12 -106 l 1
 65 -129 114 -140 161 -140 c 0
 216 -140 260 -125 292 -94 c 0
 323 -64 344 -18 354 45 c 2
 358 71 l 1
 356 71 l 1
 334 45 308 25 278 11 c 0
 248 -3 216 -10 182 -10 c 0
 120 -10 76 13 50 60 c 0
 25 106 19 173 33 260 c 0
 47 347 74 414 114 460 c 0
 155 507 206 530 268 530 c 0
 302 530 332 523 358 509 c 0
 384 495 405 475 420 449 c 1
 421 449 l 1
 434 520 l 1
 530 520 l 1
295 101 m 0
 318 115 338 134 354 158 c 0
 369 182 379 208 384 237 c 2
 391 283 l 2
 396 312 394 338 386 362 c 0
 378 386 364 405 346 419 c 0
 326 433 305 440 281 440 c 0
 244 440 213 424 186 392 c 0
 160 359 143 315 134 260 c 0
 125 205 129 161 145 128 c 0
 161 96 187 80 224 80 c 0
 248 80 272 87 295 101 c 0
402 770 m 1
 510 770 l 1
 384 560 l 1
 246 560 l 1
 402 770 l 1
EndSplineSet
EndChar

StartChar: gdotaccent
Encoding: 289 289 267
Width: 595
Flags: W
LayerCount: 2
Fore
SplineSet
530 520 m 1
 455 45 l 2
 440 -46 408 -114 359 -160 c 0
 310 -207 244 -230 161 -230 c 0
 97 -230 35 -216 -24 -189 c 1
 12 -106 l 1
 65 -129 114 -140 161 -140 c 0
 216 -140 260 -125 292 -94 c 0
 323 -64 344 -18 354 45 c 2
 358 71 l 1
 356 71 l 1
 334 45 308 25 278 11 c 0
 248 -3 216 -10 182 -10 c 0
 120 -10 76 13 50 60 c 0
 25 106 19 173 33 260 c 0
 47 347 74 414 114 460 c 0
 155 507 206 530 268 530 c 0
 302 530 332 523 358 509 c 0
 384 495 405 475 420 449 c 1
 421 449 l 1
 434 520 l 1
 530 520 l 1
295 101 m 0
 318 115 338 134 354 158 c 0
 369 182 379 208 384 237 c 2
 391 283 l 2
 396 312 394 338 386 362 c 0
 378 386 364 405 346 419 c 0
 326 433 305 440 281 440 c 0
 244 440 213 424 186 392 c 0
 160 359 143 315 134 260 c 0
 125 205 129 161 145 128 c 0
 161 96 187 80 224 80 c 0
 248 80 272 87 295 101 c 0
316 728 m 1
 440 728 l 1
 420 602 l 1
 296 602 l 1
 316 728 l 1
EndSplineSet
EndChar

StartChar: h
Encoding: 104 104 268
Width: 559
Flags: W
LayerCount: 2
Fore
SplineSet
494 479 m 0
 513 445 517 392 506 320 c 2
 455 0 l 1
 354 0 l 1
 401 300 l 2
 408 347 407 382 398 406 c 0
 388 428 369 440 341 440 c 0
 316 440 290 432 265 415 c 0
 240 398 218 376 199 350 c 0
 180 322 169 294 164 265 c 2
 122 0 l 1
 21 0 l 1
 139 750 l 1
 241 750 l 1
 192 444 l 1
 194 444 l 1
 218 471 246 492 279 508 c 0
 312 522 346 530 383 530 c 0
 437 530 474 513 494 479 c 0
EndSplineSet
EndChar

StartChar: hbar
Encoding: 295 295 269
Width: 623
Flags: W
LayerCount: 2
Fore
SplineSet
558 479 m 0
 578 445 582 392 571 320 c 2
 520 0 l 1
 418 0 l 1
 466 300 l 2
 473 347 472 382 462 406 c 0
 452 428 433 440 405 440 c 0
 380 440 354 432 329 415 c 0
 304 398 282 376 263 350 c 0
 244 322 233 294 228 265 c 2
 187 0 l 1
 85 0 l 1
 177 580 l 1
 72 580 l 1
 87 670 l 1
 191 670 l 1
 204 750 l 1
 305 750 l 1
 293 670 l 1
 485 670 l 1
 470 580 l 1
 278 580 l 1
 257 444 l 1
 259 444 l 1
 283 471 311 492 344 508 c 0
 377 522 411 530 448 530 c 0
 501 530 538 513 558 479 c 0
EndSplineSet
EndChar

StartChar: hcircumflex
Encoding: 293 293 270
Width: 597
Flags: W
LayerCount: 2
Fore
SplineSet
494 479 m 0
 513 445 517 392 506 320 c 2
 455 0 l 1
 354 0 l 1
 401 300 l 2
 408 347 407 382 398 406 c 0
 388 428 369 440 341 440 c 0
 316 440 290 432 265 415 c 0
 240 398 218 376 199 350 c 0
 180 322 169 294 164 265 c 2
 122 0 l 1
 21 0 l 1
 139 750 l 1
 241 750 l 1
 192 444 l 1
 194 444 l 1
 218 471 246 492 279 508 c 0
 312 522 346 530 383 530 c 0
 437 530 474 513 494 479 c 0
295 1000 m 1
 485 1000 l 1
 574 790 l 1
 446 790 l 1
 384 950 l 1
 382 950 l 1
 268 790 l 1
 141 790 l 1
 295 1000 l 1
EndSplineSet
EndChar

StartChar: i
Encoding: 105 105 271
Width: 247
Flags: W
LayerCount: 2
Fore
SplineSet
144 740 m 1
 247 740 l 1
 230 630 l 1
 127 630 l 1
 144 740 l 1
109 520 m 1
 213 520 l 1
 130 0 l 1
 27 0 l 1
 109 520 l 1
EndSplineSet
EndChar

StartChar: dotlessi
Encoding: 305 305 272
Width: 247
Flags: W
LayerCount: 2
Fore
SplineSet
109 520 m 1
 213 520 l 1
 130 0 l 1
 27 0 l 1
 109 520 l 1
EndSplineSet
EndChar

StartChar: iacute
Encoding: 237 237 273
Width: 268
Flags: W
LayerCount: 2
Fore
SplineSet
109 520 m 1
 213 520 l 1
 130 0 l 1
 27 0 l 1
 109 520 l 1
209 560 m 1
 101 560 l 1
 227 770 l 1
 365 770 l 1
 209 560 l 1
EndSplineSet
EndChar

StartChar: ibreve
Encoding: 301 301 274
Width: 268
Flags: W
LayerCount: 2
Fore
SplineSet
109 520 m 1
 213 520 l 1
 130 0 l 1
 27 0 l 1
 109 520 l 1
67 594 m 0
 40 609 19 629 6 655 c 0
 -8 681 -13 710 -10 743 c 1
 105 743 l 1
 104 716 109 695 122 680 c 0
 134 666 153 659 178 659 c 0
 203 659 224 666 240 680 c 0
 258 695 270 716 277 743 c 1
 392 743 l 1
 385 710 370 681 348 655 c 0
 327 629 300 609 268 594 c 0
 236 580 201 573 164 573 c 0
 127 573 94 580 67 594 c 0
EndSplineSet
EndChar

StartChar: icircumflex
Encoding: 238 238 275
Width: 268
Flags: W
LayerCount: 2
Fore
SplineSet
109 520 m 1
 213 520 l 1
 130 0 l 1
 27 0 l 1
 109 520 l 1
103 770 m 1
 293 770 l 1
 382 560 l 1
 254 560 l 1
 192 720 l 1
 190 720 l 1
 76 560 l 1
 -51 560 l 1
 103 770 l 1
EndSplineSet
EndChar

StartChar: uni0209
Encoding: 521 521 276
Width: 268
Flags: W
LayerCount: 2
Fore
SplineSet
109 520 m 1
 213 520 l 1
 130 0 l 1
 27 0 l 1
 109 520 l 1
-70 770 m 1
 67 770 l 1
 127 560 l 1
 19 560 l 1
 -70 770 l 1
150 770 m 1
 288 770 l 1
 347 560 l 1
 240 560 l 1
 150 770 l 1
EndSplineSet
EndChar

StartChar: idieresis
Encoding: 239 239 277
Width: 268
Flags: W
LayerCount: 2
Fore
SplineSet
109 520 m 1
 213 520 l 1
 130 0 l 1
 27 0 l 1
 109 520 l 1
1 728 m 1
 125 728 l 1
 105 602 l 1
 -19 602 l 1
 1 728 l 1
250 728 m 1
 373 728 l 1
 353 602 l 1
 230 602 l 1
 250 728 l 1
EndSplineSet
EndChar

StartChar: i.loclTRK
Encoding: 1114113 -1 278
Width: 268
Flags: W
LayerCount: 2
Fore
SplineSet
109 520 m 1
 213 520 l 1
 130 0 l 1
 27 0 l 1
 109 520 l 1
129 728 m 1
 253 728 l 1
 233 602 l 1
 109 602 l 1
 129 728 l 1
EndSplineSet
EndChar

StartChar: uni1ECB
Encoding: 7883 7883 279
Width: 268
Flags: W
LayerCount: 2
Fore
SplineSet
144 740 m 1
 247 740 l 1
 230 630 l 1
 127 630 l 1
 144 740 l 1
109 520 m 1
 213 520 l 1
 130 0 l 1
 27 0 l 1
 109 520 l 1
27 -82 m 1
 151 -82 l 1
 131 -208 l 1
 7 -208 l 1
 27 -82 l 1
EndSplineSet
EndChar

StartChar: igrave
Encoding: 236 236 280
Width: 268
Flags: W
LayerCount: 2
Fore
SplineSet
109 520 m 1
 213 520 l 1
 130 0 l 1
 27 0 l 1
 109 520 l 1
21 770 m 1
 158 770 l 1
 218 560 l 1
 110 560 l 1
 21 770 l 1
EndSplineSet
EndChar

StartChar: uni1EC9
Encoding: 7881 7881 281
Width: 268
Flags: W
LayerCount: 2
Fore
SplineSet
109 520 m 1
 213 520 l 1
 130 0 l 1
 27 0 l 1
 109 520 l 1
252 616 m 0
 257 630 260 640 261 649 c 0
 263 664 260 674 251 678 c 0
 242 684 225 686 200 686 c 0
 158 686 117 680 76 668 c 1
 80 755 l 1
 131 767 184 773 239 773 c 0
 280 773 311 770 332 766 c 0
 353 760 368 752 376 740 c 0
 383 729 385 712 382 690 c 0
 379 674 375 656 368 636 c 0
 361 616 354 598 346 583 c 1
 238 583 l 1
 243 592 247 604 252 616 c 0
EndSplineSet
EndChar

StartChar: uni020B
Encoding: 523 523 282
Width: 268
Flags: W
LayerCount: 2
Fore
SplineSet
109 520 m 1
 213 520 l 1
 130 0 l 1
 27 0 l 1
 109 520 l 1
290 736 m 0
 317 721 338 701 352 675 c 0
 365 649 370 620 367 587 c 1
 253 587 l 1
 254 614 249 635 236 650 c 0
 223 664 205 671 180 671 c 0
 155 671 134 664 117 650 c 0
 100 635 87 614 80 587 c 1
 -35 587 l 1
 -28 620 -13 649 8 675 c 0
 30 701 57 721 89 736 c 0
 121 750 156 757 193 757 c 0
 230 757 263 750 290 736 c 0
EndSplineSet
EndChar

StartChar: imacron
Encoding: 299 299 283
Width: 268
Flags: W
LayerCount: 2
Fore
SplineSet
109 520 m 1
 213 520 l 1
 130 0 l 1
 27 0 l 1
 109 520 l 1
-1 708 m 1
 369 708 l 1
 355 622 l 1
 -15 622 l 1
 -1 708 l 1
EndSplineSet
EndChar

StartChar: iogonek
Encoding: 303 303 284
Width: 252
Flags: W
LayerCount: 2
Fore
SplineSet
255 728 m 1
 235 602 l 1
 117 602 l 1
 137 728 l 1
 255 728 l 1
186 -196 m 1
 152 -210 115 -217 74 -217 c 0
 25 -217 -11 -208 -34 -190 c 0
 -57 -171 -66 -145 -61 -112 c 0
 -54 -67 -23 -24 32 15 c 1
 112 520 l 1
 215 520 l 1
 133 0 l 1
 106 -16 84 -32 66 -48 c 0
 50 -65 40 -80 38 -93 c 0
 36 -105 40 -114 50 -120 c 0
 60 -127 75 -130 96 -130 c 0
 126 -130 155 -124 183 -111 c 1
 186 -196 l 1
EndSplineSet
EndChar

StartChar: itilde
Encoding: 297 297 285
Width: 268
Flags: W
LayerCount: 2
Fore
SplineSet
109 520 m 1
 213 520 l 1
 130 0 l 1
 27 0 l 1
 109 520 l 1
226 586 m 0
 209 593 189 604 165 619 c 0
 137 638 116 647 102 647 c 0
 92 647 84 642 78 634 c 0
 73 624 68 609 64 587 c 1
 -34 587 l 1
 -25 644 -10 686 10 713 c 0
 29 740 55 753 87 753 c 0
 103 753 119 750 136 744 c 0
 152 737 172 726 195 711 c 0
 223 692 244 683 257 683 c 0
 267 683 275 688 281 697 c 0
 287 706 292 722 295 743 c 1
 393 743 l 1
 384 686 369 644 350 617 c 0
 331 590 305 577 273 577 c 0
 258 577 242 580 226 586 c 0
EndSplineSet
EndChar

StartChar: j
Encoding: 106 106 286
Width: 308
Flags: W
LayerCount: 2
Fore
SplineSet
205 740 m 1
 308 740 l 1
 291 630 l 1
 188 630 l 1
 205 740 l 1
0 -128 m 0
 27 -120 48 -105 60 -84 c 0
 74 -62 84 -27 91 20 c 2
 170 520 l 1
 274 520 l 1
 194 20 l 2
 183 -47 167 -98 144 -133 c 0
 122 -168 89 -193 46 -208 c 0
 2 -223 -59 -230 -137 -230 c 1
 -127 -140 l 1
 -70 -140 -28 -136 0 -128 c 0
EndSplineSet
EndChar

StartChar: uni0237
Encoding: 567 567 287
Width: 308
Flags: W
LayerCount: 2
Fore
SplineSet
0 -128 m 0
 27 -120 48 -105 60 -84 c 0
 74 -62 84 -27 91 20 c 2
 170 520 l 1
 274 520 l 1
 194 20 l 2
 183 -47 167 -98 144 -133 c 0
 122 -168 89 -193 46 -208 c 0
 2 -223 -59 -230 -137 -230 c 1
 -127 -140 l 1
 -70 -140 -28 -136 0 -128 c 0
EndSplineSet
EndChar

StartChar: jcircumflex
Encoding: 309 309 288
Width: 326
Flags: W
LayerCount: 2
Fore
SplineSet
0 -128 m 0
 27 -120 48 -105 60 -84 c 0
 74 -62 84 -27 91 20 c 2
 170 520 l 1
 274 520 l 1
 194 20 l 2
 183 -47 167 -98 144 -133 c 0
 122 -168 89 -193 46 -208 c 0
 2 -223 -59 -230 -137 -230 c 1
 -127 -140 l 1
 -70 -140 -28 -136 0 -128 c 0
132 770 m 1
 322 770 l 1
 411 560 l 1
 283 560 l 1
 221 720 l 1
 219 720 l 1
 105 560 l 1
 -22 560 l 1
 132 770 l 1
EndSplineSet
EndChar

StartChar: k
Encoding: 107 107 289
Width: 538
Flags: W
LayerCount: 2
Fore
SplineSet
139 750 m 1
 241 750 l 1
 170 305 l 1
 172 305 l 1
 412 520 l 1
 544 520 l 1
 254 270 l 1
 471 0 l 1
 339 0 l 1
 161 234 l 1
 159 234 l 1
 122 0 l 1
 21 0 l 1
 139 750 l 1
EndSplineSet
EndChar

StartChar: uni0137
Encoding: 311 311 290
Width: 572
Flags: W
LayerCount: 2
Fore
SplineSet
139 750 m 1
 241 750 l 1
 170 305 l 1
 172 305 l 1
 412 520 l 1
 544 520 l 1
 254 270 l 1
 471 0 l 1
 339 0 l 1
 161 234 l 1
 159 234 l 1
 122 0 l 1
 21 0 l 1
 139 750 l 1
109 -250 m 1
 1 -250 l 1
 127 -40 l 1
 264 -40 l 1
 109 -250 l 1
EndSplineSet
EndChar

StartChar: kgreenlandic
Encoding: 312 312 291
Width: 538
Flags: W
LayerCount: 2
Fore
SplineSet
103 520 m 1
 204 520 l 1
 170 305 l 1
 172 305 l 1
 412 520 l 1
 544 520 l 1
 254 270 l 1
 471 0 l 1
 339 0 l 1
 161 234 l 1
 159 234 l 1
 122 0 l 1
 21 0 l 1
 103 520 l 1
EndSplineSet
EndChar

StartChar: l
Encoding: 108 108 292
Width: 325
Flags: W
LayerCount: 2
Fore
SplineSet
146 750 m 1
 246 750 l 1
 156 180 l 2
 149 136 150 107 157 92 c 0
 164 77 182 70 209 70 c 0
 241 70 270 76 297 88 c 1
 299 10 l 1
 261 -3 222 -10 182 -10 c 0
 127 -10 89 3 69 29 c 0
 49 55 44 99 53 160 c 2
 146 750 l 1
EndSplineSet
EndChar

StartChar: lacute
Encoding: 314 314 293
Width: 325
Flags: W
LayerCount: 2
Fore
SplineSet
146 750 m 1
 246 750 l 1
 156 180 l 2
 149 136 150 107 157 92 c 0
 164 77 182 70 209 70 c 0
 241 70 270 76 297 88 c 1
 299 10 l 1
 261 -3 222 -10 182 -10 c 0
 127 -10 89 3 69 29 c 0
 49 55 44 99 53 160 c 2
 146 750 l 1
245 790 m 1
 137 790 l 1
 263 1000 l 1
 401 1000 l 1
 245 790 l 1
EndSplineSet
EndChar

StartChar: lcaron
Encoding: 318 318 294
Width: 465
Flags: W
LayerCount: 2
Fore
SplineSet
146 750 m 1
 246 750 l 1
 156 180 l 2
 149 136 150 107 157 92 c 0
 164 77 182 70 209 70 c 0
 241 70 270 76 297 88 c 1
 299 10 l 1
 261 -3 222 -10 182 -10 c 0
 127 -10 89 3 69 29 c 0
 49 55 44 99 53 160 c 2
 146 750 l 1
387 770 m 1
 514 770 l 1
 354 470 l 1
 256 470 l 1
 387 770 l 1
EndSplineSet
EndChar

StartChar: uni013C
Encoding: 316 316 295
Width: 325
Flags: W
LayerCount: 2
Fore
SplineSet
146 750 m 1
 246 750 l 1
 156 180 l 2
 149 136 150 107 157 92 c 0
 164 77 182 70 209 70 c 0
 241 70 270 76 297 88 c 1
 299 10 l 1
 261 -3 222 -10 182 -10 c 0
 127 -10 89 3 69 29 c 0
 49 55 44 99 53 160 c 2
 146 750 l 1
83 -250 m 1
 -25 -250 l 1
 101 -40 l 1
 238 -40 l 1
 83 -250 l 1
EndSplineSet
EndChar

StartChar: ldot
Encoding: 320 320 296
Width: 448
Flags: W
LayerCount: 2
Fore
SplineSet
146 750 m 1
 246 750 l 1
 156 180 l 2
 149 136 150 107 157 92 c 0
 164 77 182 70 209 70 c 0
 241 70 270 76 297 88 c 1
 299 10 l 1
 261 -3 222 -10 182 -10 c 0
 127 -10 89 3 69 29 c 0
 49 55 44 99 53 160 c 2
 146 750 l 1
297 440 m 1
 424 440 l 1
 403 310 l 1
 276 310 l 1
 297 440 l 1
EndSplineSet
EndChar

StartChar: uni01C9
Encoding: 457 457 297
Width: 591
Flags: W
LayerCount: 2
Fore
SplineSet
146 750 m 1
 246 750 l 1
 156 180 l 2
 149 136 150 107 157 92 c 0
 164 77 182 70 209 70 c 0
 241 70 270 76 297 88 c 1
 299 10 l 1
 261 -3 222 -10 182 -10 c 0
 127 -10 89 3 69 29 c 0
 49 55 44 99 53 160 c 2
 146 750 l 1
470 740 m 1
 573 740 l 1
 556 630 l 1
 453 630 l 1
 470 740 l 1
264 -128 m 0
 292 -120 312 -105 326 -84 c 0
 338 -62 349 -27 356 20 c 2
 435 520 l 1
 539 520 l 1
 459 20 l 2
 448 -47 432 -98 410 -133 c 0
 387 -168 354 -193 310 -208 c 0
 267 -223 206 -230 128 -230 c 1
 138 -140 l 1
 195 -140 237 -136 264 -128 c 0
EndSplineSet
EndChar

StartChar: lslash
Encoding: 322 322 298
Width: 429
Flags: W
LayerCount: 2
Fore
SplineSet
441 407 m 1
 35 239 l 1
 14 323 l 1
 420 491 l 1
 441 407 l 1
236 750 m 1
 336 750 l 1
 246 180 l 2
 239 136 240 107 247 92 c 0
 254 77 272 70 299 70 c 0
 331 70 360 76 387 88 c 1
 389 10 l 1
 351 -3 312 -10 272 -10 c 0
 217 -10 179 3 159 29 c 0
 139 55 134 99 143 160 c 2
 236 750 l 1
EndSplineSet
EndChar

StartChar: m
Encoding: 109 109 299
Width: 780
Flags: W
LayerCount: 2
Fore
SplineSet
720 480 m 0
 737 446 739 393 727 320 c 2
 677 0 l 1
 577 0 l 1
 625 300 l 2
 632 346 632 381 624 404 c 0
 616 428 600 440 576 440 c 0
 557 440 538 432 519 416 c 0
 500 401 483 380 469 354 c 0
 455 328 446 300 441 269 c 2
 398 0 l 1
 299 0 l 1
 346 300 l 2
 353 346 353 381 345 404 c 0
 337 428 321 440 298 440 c 0
 279 440 260 432 240 416 c 0
 222 399 205 377 190 348 c 0
 176 320 166 289 161 255 c 2
 120 0 l 1
 21 0 l 1
 103 520 l 1
 198 520 l 1
 188 449 l 1
 189 449 l 1
 232 503 285 530 346 530 c 0
 404 530 439 503 451 449 c 1
 453 449 l 1
 477 475 504 495 533 509 c 0
 562 523 593 530 624 530 c 0
 671 530 703 513 720 480 c 0
EndSplineSet
EndChar

StartChar: n
Encoding: 110 110 300
Width: 559
Flags: W
LayerCount: 2
Fore
SplineSet
492 478 m 0
 512 443 517 391 506 320 c 2
 455 0 l 1
 354 0 l 1
 401 300 l 2
 408 346 407 381 396 404 c 0
 385 428 365 440 336 440 c 0
 311 440 287 432 262 416 c 0
 237 399 216 378 198 350 c 0
 180 324 169 295 164 265 c 2
 122 0 l 1
 21 0 l 1
 103 520 l 1
 200 520 l 1
 189 444 l 1
 190 444 l 1
 215 471 243 492 276 508 c 0
 308 522 342 530 378 530 c 0
 433 530 470 513 492 478 c 0
EndSplineSet
EndChar

StartChar: nacute
Encoding: 324 324 301
Width: 597
Flags: W
LayerCount: 2
Fore
SplineSet
492 478 m 0
 512 443 517 391 506 320 c 2
 455 0 l 1
 354 0 l 1
 401 300 l 2
 408 346 407 381 396 404 c 0
 385 428 365 440 336 440 c 0
 311 440 287 432 262 416 c 0
 237 399 216 378 198 350 c 0
 180 324 169 295 164 265 c 2
 122 0 l 1
 21 0 l 1
 103 520 l 1
 200 520 l 1
 189 444 l 1
 190 444 l 1
 215 471 243 492 276 508 c 0
 308 522 342 530 378 530 c 0
 433 530 470 513 492 478 c 0
374 560 m 1
 266 560 l 1
 392 770 l 1
 530 770 l 1
 374 560 l 1
EndSplineSet
EndChar

StartChar: ncaron
Encoding: 328 328 302
Width: 597
Flags: W
LayerCount: 2
Fore
SplineSet
492 478 m 0
 512 443 517 391 506 320 c 2
 455 0 l 1
 354 0 l 1
 401 300 l 2
 408 346 407 381 396 404 c 0
 385 428 365 440 336 440 c 0
 311 440 287 432 262 416 c 0
 237 399 216 378 198 350 c 0
 180 324 169 295 164 265 c 2
 122 0 l 1
 21 0 l 1
 103 520 l 1
 200 520 l 1
 189 444 l 1
 190 444 l 1
 215 471 243 492 276 508 c 0
 308 522 342 530 378 530 c 0
 433 530 470 513 492 478 c 0
147 770 m 1
 274 770 l 1
 337 610 l 1
 339 610 l 1
 453 770 l 1
 580 770 l 1
 424 560 l 1
 235 560 l 1
 147 770 l 1
EndSplineSet
EndChar

StartChar: uni0146
Encoding: 326 326 303
Width: 597
Flags: W
LayerCount: 2
Fore
SplineSet
492 478 m 0
 512 443 517 391 506 320 c 2
 455 0 l 1
 354 0 l 1
 401 300 l 2
 408 346 407 381 396 404 c 0
 385 428 365 440 336 440 c 0
 311 440 287 432 262 416 c 0
 237 399 216 378 198 350 c 0
 180 324 169 295 164 265 c 2
 122 0 l 1
 21 0 l 1
 103 520 l 1
 200 520 l 1
 189 444 l 1
 190 444 l 1
 215 471 243 492 276 508 c 0
 308 522 342 530 378 530 c 0
 433 530 470 513 492 478 c 0
148 -250 m 1
 40 -250 l 1
 166 -40 l 1
 303 -40 l 1
 148 -250 l 1
EndSplineSet
EndChar

StartChar: eng
Encoding: 331 331 304
Width: 559
Flags: W
LayerCount: 2
Fore
SplineSet
492 478 m 0
 512 443 517 391 506 320 c 2
 451 -26 l 2
 440 -95 420 -144 388 -175 c 0
 358 -206 313 -221 254 -221 c 0
 217 -221 181 -216 148 -205 c 1
 179 -114 l 1
 200 -122 223 -126 248 -126 c 0
 279 -126 302 -118 318 -102 c 0
 333 -87 344 -61 350 -26 c 2
 401 300 l 2
 408 346 407 381 396 404 c 0
 385 428 365 440 336 440 c 0
 311 440 287 432 262 416 c 0
 237 399 216 378 198 350 c 0
 180 324 169 295 164 265 c 2
 122 0 l 1
 21 0 l 1
 103 520 l 1
 200 520 l 1
 189 444 l 1
 190 444 l 1
 215 471 243 492 276 508 c 0
 308 522 342 530 378 530 c 0
 433 530 470 513 492 478 c 0
EndSplineSet
EndChar

StartChar: uni01CC
Encoding: 460 460 305
Width: 923
Flags: W
LayerCount: 2
Fore
SplineSet
492 478 m 0
 512 443 517 391 506 320 c 2
 455 0 l 1
 354 0 l 1
 401 300 l 2
 408 346 407 381 396 404 c 0
 385 428 365 440 336 440 c 0
 311 440 287 432 262 416 c 0
 237 399 216 378 198 350 c 0
 180 324 169 295 164 265 c 2
 122 0 l 1
 21 0 l 1
 103 520 l 1
 200 520 l 1
 189 444 l 1
 190 444 l 1
 215 471 243 492 276 508 c 0
 308 522 342 530 378 530 c 0
 433 530 470 513 492 478 c 0
802 740 m 1
 905 740 l 1
 888 630 l 1
 785 630 l 1
 802 740 l 1
596 -128 m 0
 624 -120 644 -105 658 -84 c 0
 670 -62 681 -27 688 20 c 2
 767 520 l 1
 871 520 l 1
 791 20 l 2
 780 -47 764 -98 742 -133 c 0
 719 -168 686 -193 642 -208 c 0
 599 -223 538 -230 460 -230 c 1
 470 -140 l 1
 527 -140 569 -136 596 -128 c 0
EndSplineSet
EndChar

StartChar: ntilde
Encoding: 241 241 306
Width: 597
Flags: W
LayerCount: 2
Fore
SplineSet
492 478 m 0
 512 443 517 391 506 320 c 2
 455 0 l 1
 354 0 l 1
 401 300 l 2
 408 346 407 381 396 404 c 0
 385 428 365 440 336 440 c 0
 311 440 287 432 262 416 c 0
 237 399 216 378 198 350 c 0
 180 324 169 295 164 265 c 2
 122 0 l 1
 21 0 l 1
 103 520 l 1
 200 520 l 1
 189 444 l 1
 190 444 l 1
 215 471 243 492 276 508 c 0
 308 522 342 530 378 530 c 0
 433 530 470 513 492 478 c 0
390 586 m 0
 374 593 354 604 330 619 c 0
 302 638 281 647 267 647 c 0
 257 647 249 642 244 634 c 0
 238 624 233 609 229 587 c 1
 131 587 l 1
 140 644 155 686 174 713 c 0
 194 740 220 753 252 753 c 0
 268 753 284 750 300 744 c 0
 317 737 337 726 360 711 c 0
 388 692 409 683 422 683 c 0
 432 683 440 688 446 697 c 0
 452 706 457 722 460 743 c 1
 558 743 l 1
 549 686 534 644 515 617 c 0
 496 590 470 577 438 577 c 0
 423 577 407 580 390 586 c 0
EndSplineSet
EndChar

StartChar: o
Encoding: 111 111 307
Width: 544
Flags: W
LayerCount: 2
Fore
SplineSet
60 61 m 0
 26 108 16 175 29 260 c 0
 42 345 74 412 123 459 c 0
 172 506 235 530 311 530 c 0
 386 530 441 506 476 459 c 0
 511 412 521 345 507 260 c 0
 494 175 462 108 413 61 c 0
 364 14 301 -10 225 -10 c 0
 150 -10 95 14 60 61 c 0
350 126 m 0
 378 157 397 201 406 260 c 0
 415 319 411 363 392 394 c 0
 373 425 342 440 297 440 c 0
 252 440 216 425 187 394 c 0
 158 363 139 319 130 260 c 0
 121 201 125 157 144 126 c 0
 163 95 195 80 240 80 c 0
 285 80 321 95 350 126 c 0
EndSplineSet
EndChar

StartChar: oacute
Encoding: 243 243 308
Width: 578
Flags: W
LayerCount: 2
Fore
SplineSet
60 61 m 0
 26 108 16 175 29 260 c 0
 42 345 74 412 123 459 c 0
 172 506 235 530 311 530 c 0
 386 530 441 506 476 459 c 0
 511 412 521 345 507 260 c 0
 494 175 462 108 413 61 c 0
 364 14 301 -10 225 -10 c 0
 150 -10 95 14 60 61 c 0
350 126 m 0
 378 157 397 201 406 260 c 0
 415 319 411 363 392 394 c 0
 373 425 342 440 297 440 c 0
 252 440 216 425 187 394 c 0
 158 363 139 319 130 260 c 0
 121 201 125 157 144 126 c 0
 163 95 195 80 240 80 c 0
 285 80 321 95 350 126 c 0
364 560 m 1
 256 560 l 1
 382 770 l 1
 520 770 l 1
 364 560 l 1
EndSplineSet
EndChar

